<?xml version="1.0" encoding="UTF-8" standalone="no"?>
<!DOCTYPE svg PUBLIC "-//W3C//DTD SVG 1.1//EN"
 "http://www.w3.org/Graphics/SVG/1.1/DTD/svg11.dtd">
<!-- Generated by graphviz version 7.0.4 (20221203.1631)
 -->
<!-- Title: SubtractItemException Pages: 1 -->
<svg width="127pt" height="192pt"
 viewBox="0.00 0.00 127.00 192.00" xmlns="http://www.w3.org/2000/svg" xmlns:xlink="http://www.w3.org/1999/xlink">
<g id="graph0" class="graph" transform="scale(1 1) rotate(0) translate(4 188)">
<title>SubtractItemException</title>
<!-- Node1 -->
<g id="node1" class="node">
<title>Node1</title>
<g id="a_node1"><a xlink:title="Exceção que lida com erros relacionados a falta de itens no inventário.">
<polygon fill="#999999" stroke="#666666" points="119,-41 0,-41 0,0 119,0 119,-41"/>
<text text-anchor="middle" x="59.5" y="-29" font-family="Helvetica,sans-Serif" font-size="10.00">{SubtractItemException</text>
<text text-anchor="start" x="8" y="-18" font-family="Helvetica,sans-Serif" font-size="10.00">||+ what()</text>
<text text-anchor="middle" x="59.5" y="-7" font-family="Helvetica,sans-Serif" font-size="10.00">}</text>
</a>
</g>
</g>
<!-- Node2 -->
<g id="node2" class="node">
<title>Node2</title>
<g id="a_node2"><a xlink:href="class_erro_de_jogo_exception.html" target="_top" xlink:title="Exceção que lida com erros genéricos.">
<polygon fill="white" stroke="#666666" points="116,-118 3,-118 3,-77 116,-77 116,-118"/>
<text text-anchor="middle" x="59.5" y="-106" font-family="Helvetica,sans-Serif" font-size="10.00">{ErroDeJogoException</text>
<text text-anchor="start" x="11" y="-95" font-family="Helvetica,sans-Serif" font-size="10.00">||+ what()</text>
<text text-anchor="middle" x="59.5" y="-84" font-family="Helvetica,sans-Serif" font-size="10.00">}</text>
</a>
</g>
</g>
<!-- Node2&#45;&gt;Node1 -->
<g id="edge1" class="edge">
<title>Node2&#45;&gt;Node1</title>
<path fill="none" stroke="#63b8ff" d="M59.5,-65.36C59.5,-57.24 59.5,-48.7 59.5,-41.33"/>
<polygon fill="none" stroke="#63b8ff" points="56,-65.28 59.5,-75.28 63,-65.28 56,-65.28"/>
</g>
<!-- Node3 -->
<g id="node3" class="node">
<title>Node3</title>
<g id="a_node3"><a xlink:title=" ">
<polygon fill="white" stroke="#666666" points="100,-184 19,-184 19,-154 100,-154 100,-184"/>
<text text-anchor="middle" x="59.5" y="-172" font-family="Helvetica,sans-Serif" font-size="10.00">{std::exception</text>
<text text-anchor="middle" x="59.5" y="-161" font-family="Helvetica,sans-Serif" font-size="10.00">||}</text>
</a>
</g>
</g>
<!-- Node3&#45;&gt;Node2 -->
<g id="edge2" class="edge">
<title>Node3&#45;&gt;Node2</title>
<path fill="none" stroke="#63b8ff" d="M59.5,-142.36C59.5,-134.45 59.5,-125.87 59.5,-118.42"/>
<polygon fill="none" stroke="#63b8ff" points="56,-142.09 59.5,-152.09 63,-142.09 56,-142.09"/>
</g>
</g>
</svg>
