<?xml version="1.0" encoding="UTF-8" standalone="no"?>
<!DOCTYPE svg PUBLIC "-//W3C//DTD SVG 1.1//EN"
 "http://www.w3.org/Graphics/SVG/1.1/DTD/svg11.dtd">
<!-- Generated by graphviz version 7.0.4 (20221203.1631)
 -->
<!-- Title: Inventory Pages: 1 -->
<svg width="197pt" height="523pt"
 viewBox="0.00 0.00 196.50 523.00" xmlns="http://www.w3.org/2000/svg" xmlns:xlink="http://www.w3.org/1999/xlink">
<g id="graph0" class="graph" transform="scale(1 1) rotate(0) translate(4 519)">
<title>Inventory</title>
<!-- Node1 -->
<g id="node1" class="node">
<title>Node1</title>
<g id="a_node1"><a xlink:title="Armazena e processa o inventário.">
<polygon fill="#999999" stroke="#666666" points="148,-140 47,-140 47,0 148,0 148,-140"/>
<text text-anchor="middle" x="97.5" y="-128" font-family="Helvetica,sans-Serif" font-size="10.00">{Inventory</text>
<text text-anchor="start" x="55" y="-117" font-family="Helvetica,sans-Serif" font-size="10.00">||+ Inventory()</text>
<text text-anchor="start" x="55" y="-106" font-family="Helvetica,sans-Serif" font-size="10.00">+ ~Inventory()</text>
<text text-anchor="start" x="55" y="-95" font-family="Helvetica,sans-Serif" font-size="10.00">+ createInventory()</text>
<text text-anchor="start" x="55" y="-84" font-family="Helvetica,sans-Serif" font-size="10.00">+ useItem()</text>
<text text-anchor="start" x="55" y="-73" font-family="Helvetica,sans-Serif" font-size="10.00">+ subtractItem()</text>
<text text-anchor="start" x="55" y="-62" font-family="Helvetica,sans-Serif" font-size="10.00">+ displayInventory()</text>
<text text-anchor="start" x="55" y="-51" font-family="Helvetica,sans-Serif" font-size="10.00">+ operator&lt;()</text>
<text text-anchor="start" x="55" y="-40" font-family="Helvetica,sans-Serif" font-size="10.00">+ addItem()</text>
<text text-anchor="start" x="55" y="-29" font-family="Helvetica,sans-Serif" font-size="10.00">+ checkValue()</text>
<text text-anchor="start" x="55" y="-18" font-family="Helvetica,sans-Serif" font-size="10.00">+ getItemN()</text>
<text text-anchor="middle" x="97.5" y="-7" font-family="Helvetica,sans-Serif" font-size="10.00">}</text>
</a>
</g>
</g>
<!-- Node2 -->
<g id="node2" class="node">
<title>Node2</title>
<g id="a_node2"><a xlink:href="class_item.html" target="_top" xlink:title="Processa todos os atributos armazenados e funções dos itens do jogo.">
<polygon fill="white" stroke="#666666" points="181,-349 98,-349 98,-264 181,-264 181,-349"/>
<text text-anchor="middle" x="139.5" y="-337" font-family="Helvetica,sans-Serif" font-size="10.00">{Item</text>
<text text-anchor="start" x="106" y="-326" font-family="Helvetica,sans-Serif" font-size="10.00">||+ Item()</text>
<text text-anchor="start" x="106" y="-315" font-family="Helvetica,sans-Serif" font-size="10.00">+ getByName()</text>
<text text-anchor="start" x="106" y="-304" font-family="Helvetica,sans-Serif" font-size="10.00">+ getName()</text>
<text text-anchor="start" x="106" y="-293" font-family="Helvetica,sans-Serif" font-size="10.00">+ getPrice()</text>
<text text-anchor="start" x="106" y="-282" font-family="Helvetica,sans-Serif" font-size="10.00">+ operator&lt;()</text>
<text text-anchor="middle" x="139.5" y="-271" font-family="Helvetica,sans-Serif" font-size="10.00">}</text>
</a>
</g>
</g>
<!-- Node2&#45;&gt;Node1 -->
<g id="edge1" class="edge">
<title>Node2&#45;&gt;Node1</title>
<path fill="none" stroke="#63b8ff" d="M137.26,-252.56C135.36,-224.28 131.88,-189 125.5,-158 124.32,-152.25 122.89,-146.34 121.32,-140.45"/>
<polygon fill="none" stroke="#63b8ff" points="133.75,-252.54 137.86,-262.31 140.74,-252.11 133.75,-252.54"/>
</g>
<!-- Node6 -->
<g id="node6" class="node">
<title>Node6</title>
<g id="a_node6"><a xlink:title=" ">
<polygon fill="white" stroke="#666666" points="111,-217 0,-217 0,-187 111,-187 111,-217"/>
<text text-anchor="middle" x="55.5" y="-205" font-family="Helvetica,sans-Serif" font-size="10.00">{std::map&lt; Item, int &gt;</text>
<text text-anchor="middle" x="55.5" y="-194" font-family="Helvetica,sans-Serif" font-size="10.00">||}</text>
</a>
</g>
</g>
<!-- Node2&#45;&gt;Node6 -->
<g id="edge6" class="edge">
<title>Node2&#45;&gt;Node6</title>
<path fill="none" stroke="#404040" d="M105.09,-263.51C95.03,-251.24 84.37,-238.23 75.53,-227.44"/>
<polygon fill="none" stroke="#404040" points="75.55,-227.46 68.65,-225.36 67.94,-218.18 74.84,-220.29 75.55,-227.46"/>
<text text-anchor="middle" x="106" y="-238" font-family="Helvetica,sans-Serif" font-size="10.00"> +keys</text>
</g>
<!-- Node3 -->
<g id="node3" class="node">
<title>Node3</title>
<g id="a_node3"><a xlink:title=" ">
<polygon fill="white" stroke="#666666" points="171,-437 108,-437 108,-407 171,-407 171,-437"/>
<text text-anchor="middle" x="139.5" y="-425" font-family="Helvetica,sans-Serif" font-size="10.00">{std::string</text>
<text text-anchor="middle" x="139.5" y="-414" font-family="Helvetica,sans-Serif" font-size="10.00">||}</text>
</a>
</g>
</g>
<!-- Node3&#45;&gt;Node2 -->
<g id="edge2" class="edge">
<title>Node3&#45;&gt;Node2</title>
<path fill="none" stroke="#404040" d="M139.5,-406.63C139.5,-395.23 139.5,-378.55 139.5,-362.11"/>
<polygon fill="none" stroke="#404040" points="139.5,-361.98 135.5,-355.98 139.5,-349.98 143.5,-355.98 139.5,-361.98"/>
<text text-anchor="middle" x="159" y="-375.5" font-family="Helvetica,sans-Serif" font-size="10.00"> +_name</text>
</g>
<!-- Node4 -->
<g id="node4" class="node">
<title>Node4</title>
<g id="a_node4"><a xlink:title=" ">
<polygon fill="white" stroke="#666666" points="188.5,-515 90.5,-515 90.5,-474 188.5,-474 188.5,-515"/>
<text text-anchor="start" x="98.5" y="-503" font-family="Helvetica,sans-Serif" font-size="10.00">{std::basic_string&lt;</text>
<text text-anchor="middle" x="139.5" y="-492" font-family="Helvetica,sans-Serif" font-size="10.00"> Char &gt;</text>
<text text-anchor="middle" x="139.5" y="-481" font-family="Helvetica,sans-Serif" font-size="10.00">||}</text>
</a>
</g>
</g>
<!-- Node4&#45;&gt;Node3 -->
<g id="edge3" class="edge">
<title>Node4&#45;&gt;Node3</title>
<path fill="none" stroke="#63b8ff" d="M139.5,-462.39C139.5,-453.68 139.5,-444.62 139.5,-437.39"/>
<polygon fill="none" stroke="#63b8ff" points="136,-462.35 139.5,-472.35 143,-462.35 136,-462.35"/>
</g>
<!-- Node5 -->
<g id="node5" class="node">
<title>Node5</title>
<g id="a_node5"><a xlink:title=" ">
<polygon fill="white" stroke="#666666" points="67.5,-437 37.5,-437 37.5,-407 67.5,-407 67.5,-437"/>
<text text-anchor="middle" x="52.5" y="-425" font-family="Helvetica,sans-Serif" font-size="10.00">{int</text>
<text text-anchor="middle" x="52.5" y="-414" font-family="Helvetica,sans-Serif" font-size="10.00">||}</text>
</a>
</g>
</g>
<!-- Node5&#45;&gt;Node2 -->
<g id="edge4" class="edge">
<title>Node5&#45;&gt;Node2</title>
<path fill="none" stroke="#404040" d="M63.52,-406.63C72.77,-394.56 86.57,-376.55 99.88,-359.18"/>
<polygon fill="none" stroke="#404040" points="99.78,-359.32 100.25,-352.12 107.08,-349.8 106.6,-356.99 99.78,-359.32"/>
<text text-anchor="middle" x="110" y="-381" font-family="Helvetica,sans-Serif" font-size="10.00"> +_id</text>
<text text-anchor="middle" x="110" y="-370" font-family="Helvetica,sans-Serif" font-size="10.00">+_price</text>
</g>
<!-- Node5&#45;&gt;Node6 -->
<g id="edge7" class="edge">
<title>Node5&#45;&gt;Node6</title>
<path fill="none" stroke="#404040" d="M49.15,-406.76C45.94,-392.31 41.31,-369.24 39.5,-349 36.13,-311.37 34.67,-301.47 39.5,-264 40.98,-252.55 43.95,-240.18 46.94,-229.59"/>
<polygon fill="none" stroke="#404040" points="46.91,-229.69 44.81,-222.8 50.36,-218.2 52.47,-225.1 46.91,-229.69"/>
<text text-anchor="middle" x="64" y="-304" font-family="Helvetica,sans-Serif" font-size="10.00"> +elements</text>
</g>
<!-- Node6&#45;&gt;Node1 -->
<g id="edge5" class="edge">
<title>Node6&#45;&gt;Node1</title>
<path fill="none" stroke="#404040" d="M60.16,-186.59C63.02,-177.73 66.94,-165.6 71.17,-152.5"/>
<polygon fill="none" stroke="#404040" points="71.15,-152.55 69.19,-145.61 74.84,-141.13 76.8,-148.07 71.15,-152.55"/>
<text text-anchor="middle" x="96" y="-161" font-family="Helvetica,sans-Serif" font-size="10.00"> +_inventory</text>
</g>
</g>
</svg>
