<?xml version="1.0" encoding="UTF-8" standalone="no"?>
<!DOCTYPE svg PUBLIC "-//W3C//DTD SVG 1.1//EN"
 "http://www.w3.org/Graphics/SVG/1.1/DTD/svg11.dtd">
<!-- Generated by graphviz version 7.0.4 (20221203.1631)
 -->
<!-- Title: Enemy Pages: 1 -->
<svg width="261pt" height="425pt"
 viewBox="0.00 0.00 261.00 425.00" xmlns="http://www.w3.org/2000/svg" xmlns:xlink="http://www.w3.org/1999/xlink">
<g id="graph0" class="graph" transform="scale(1 1) rotate(0) translate(4 421)">
<title>Enemy</title>
<!-- Node1 -->
<g id="node1" class="node">
<title>Node1</title>
<g id="a_node1"><a xlink:title="Armazena todas informações referentes ao ataque e valor do monstro em ouro e experiência.">
<polygon fill="#999999" stroke="#666666" points="152,-74 76,-74 76,0 152,0 152,-74"/>
<text text-anchor="middle" x="114" y="-62" font-family="Helvetica,sans-Serif" font-size="10.00">{Enemy</text>
<text text-anchor="start" x="84" y="-51" font-family="Helvetica,sans-Serif" font-size="10.00">||+ Enemy()</text>
<text text-anchor="start" x="84" y="-40" font-family="Helvetica,sans-Serif" font-size="10.00">+ ~Enemy()</text>
<text text-anchor="start" x="84" y="-29" font-family="Helvetica,sans-Serif" font-size="10.00">+ goldWorth()</text>
<text text-anchor="start" x="84" y="-18" font-family="Helvetica,sans-Serif" font-size="10.00">+ xpWorth()</text>
<text text-anchor="middle" x="114" y="-7" font-family="Helvetica,sans-Serif" font-size="10.00">}</text>
</a>
</g>
</g>
<!-- Node2 -->
<g id="node2" class="node">
<title>Node2</title>
<g id="a_node2"><a xlink:href="class_monster.html" target="_top" xlink:title="Armazena e processa ações e atributos dos monstros dentro durante o jogo.">
<polygon fill="white" stroke="#666666" points="165.5,-240 62.5,-240 62.5,-111 165.5,-111 165.5,-240"/>
<text text-anchor="middle" x="114" y="-228" font-family="Helvetica,sans-Serif" font-size="10.00">{Monster</text>
<text text-anchor="start" x="70.5" y="-217" font-family="Helvetica,sans-Serif" font-size="10.00">||+ Monster()</text>
<text text-anchor="start" x="70.5" y="-206" font-family="Helvetica,sans-Serif" font-size="10.00">+ ~Monster()</text>
<text text-anchor="start" x="70.5" y="-195" font-family="Helvetica,sans-Serif" font-size="10.00">+ getName()</text>
<text text-anchor="start" x="70.5" y="-184" font-family="Helvetica,sans-Serif" font-size="10.00">+ getCurrentHp()</text>
<text text-anchor="start" x="70.5" y="-173" font-family="Helvetica,sans-Serif" font-size="10.00">+ isAlive()</text>
<text text-anchor="start" x="70.5" y="-162" font-family="Helvetica,sans-Serif" font-size="10.00">+ currentHealth()</text>
<text text-anchor="start" x="70.5" y="-151" font-family="Helvetica,sans-Serif" font-size="10.00">+ takeDamage()</text>
<text text-anchor="start" x="70.5" y="-140" font-family="Helvetica,sans-Serif" font-size="10.00">+ monsterDamage()</text>
<text text-anchor="start" x="70.5" y="-129" font-family="Helvetica,sans-Serif" font-size="10.00">+ getMaximumHp()</text>
<text text-anchor="middle" x="114" y="-118" font-family="Helvetica,sans-Serif" font-size="10.00">}</text>
</a>
</g>
</g>
<!-- Node2&#45;&gt;Node1 -->
<g id="edge1" class="edge">
<title>Node2&#45;&gt;Node1</title>
<path fill="none" stroke="#63b8ff" d="M114,-99.22C114,-90.56 114,-82.06 114,-74.27"/>
<polygon fill="none" stroke="#63b8ff" points="110.5,-99.13 114,-109.13 117.5,-99.13 110.5,-99.13"/>
</g>
<!-- Node3 -->
<g id="node3" class="node">
<title>Node3</title>
<g id="a_node3"><a xlink:title=" ">
<polygon fill="white" stroke="#666666" points="80.5,-339 17.5,-339 17.5,-309 80.5,-309 80.5,-339"/>
<text text-anchor="middle" x="49" y="-327" font-family="Helvetica,sans-Serif" font-size="10.00">{std::string</text>
<text text-anchor="middle" x="49" y="-316" font-family="Helvetica,sans-Serif" font-size="10.00">||}</text>
</a>
</g>
</g>
<!-- Node3&#45;&gt;Node2 -->
<g id="edge2" class="edge">
<title>Node3&#45;&gt;Node2</title>
<path fill="none" stroke="#404040" d="M53.48,-308.58C57.76,-295.27 64.64,-275.03 72,-258 72.87,-255.99 73.76,-253.96 74.68,-251.92"/>
<polygon fill="none" stroke="#404040" points="74.71,-251.87 73.61,-244.74 79.77,-240.99 80.87,-248.11 74.71,-251.87"/>
<text text-anchor="middle" x="91" y="-272" font-family="Helvetica,sans-Serif" font-size="10.00"> #_name</text>
</g>
<!-- Node4 -->
<g id="node4" class="node">
<title>Node4</title>
<g id="a_node4"><a xlink:title=" ">
<polygon fill="white" stroke="#666666" points="98,-417 0,-417 0,-376 98,-376 98,-417"/>
<text text-anchor="start" x="8" y="-405" font-family="Helvetica,sans-Serif" font-size="10.00">{std::basic_string&lt;</text>
<text text-anchor="middle" x="49" y="-394" font-family="Helvetica,sans-Serif" font-size="10.00"> Char &gt;</text>
<text text-anchor="middle" x="49" y="-383" font-family="Helvetica,sans-Serif" font-size="10.00">||}</text>
</a>
</g>
</g>
<!-- Node4&#45;&gt;Node3 -->
<g id="edge3" class="edge">
<title>Node4&#45;&gt;Node3</title>
<path fill="none" stroke="#63b8ff" d="M49,-364.39C49,-355.68 49,-346.62 49,-339.39"/>
<polygon fill="none" stroke="#63b8ff" points="45.5,-364.35 49,-374.35 52.5,-364.35 45.5,-364.35"/>
</g>
<!-- Node5 -->
<g id="node5" class="node">
<title>Node5</title>
<g id="a_node5"><a xlink:title=" ">
<polygon fill="white" stroke="#666666" points="129,-339 99,-339 99,-309 129,-309 129,-339"/>
<text text-anchor="middle" x="114" y="-327" font-family="Helvetica,sans-Serif" font-size="10.00">{int</text>
<text text-anchor="middle" x="114" y="-316" font-family="Helvetica,sans-Serif" font-size="10.00">||}</text>
</a>
</g>
</g>
<!-- Node5&#45;&gt;Node2 -->
<g id="edge4" class="edge">
<title>Node5&#45;&gt;Node2</title>
<path fill="none" stroke="#404040" d="M114,-308.69C114,-295.39 114,-274.48 114,-253.18"/>
<polygon fill="none" stroke="#404040" points="114,-253.2 110,-247.2 114,-241.2 118,-247.2 114,-253.2"/>
<text text-anchor="middle" x="142" y="-272" font-family="Helvetica,sans-Serif" font-size="10.00"> #_currentHp</text>
</g>
<!-- Node6 -->
<g id="node6" class="node">
<title>Node6</title>
<g id="a_node6"><a xlink:title=" ">
<polygon fill="white" stroke="#666666" points="210.5,-339 175.5,-339 175.5,-309 210.5,-309 210.5,-339"/>
<text text-anchor="middle" x="193" y="-327" font-family="Helvetica,sans-Serif" font-size="10.00">{uint</text>
<text text-anchor="middle" x="193" y="-316" font-family="Helvetica,sans-Serif" font-size="10.00">||}</text>
</a>
</g>
</g>
<!-- Node6&#45;&gt;Node2 -->
<g id="edge5" class="edge">
<title>Node6&#45;&gt;Node2</title>
<path fill="none" stroke="#404040" d="M189.39,-308.59C185.72,-295.09 179.39,-274.58 171,-258 169.94,-255.9 168.82,-253.78 167.67,-251.67"/>
<polygon fill="none" stroke="#404040" points="167.62,-251.58 161.15,-248.39 161.61,-241.19 168.08,-244.38 167.62,-251.58"/>
<text text-anchor="middle" x="218.5" y="-283" font-family="Helvetica,sans-Serif" font-size="10.00"> #_maxDamage</text>
<text text-anchor="middle" x="218.5" y="-272" font-family="Helvetica,sans-Serif" font-size="10.00">#_maxHp</text>
<text text-anchor="middle" x="218.5" y="-261" font-family="Helvetica,sans-Serif" font-size="10.00">#_minDamage</text>
</g>
</g>
</svg>
