<?xml version="1.0" encoding="UTF-8" standalone="no"?>
<!DOCTYPE svg PUBLIC "-//W3C//DTD SVG 1.1//EN"
 "http://www.w3.org/Graphics/SVG/1.1/DTD/svg11.dtd">
<!-- Generated by graphviz version 7.0.4 (20221203.1631)
 -->
<!-- Title: Item Pages: 1 -->
<svg width="145pt" height="259pt"
 viewBox="0.00 0.00 145.00 259.00" xmlns="http://www.w3.org/2000/svg" xmlns:xlink="http://www.w3.org/1999/xlink">
<g id="graph0" class="graph" transform="scale(1 1) rotate(0) translate(4 255)">
<title>Item</title>
<!-- Node1 -->
<g id="node1" class="node">
<title>Node1</title>
<g id="a_node1"><a xlink:title="Processa todos os atributos armazenados e funções dos itens do jogo.">
<polygon fill="#999999" stroke="#666666" points="123.5,-85 40.5,-85 40.5,0 123.5,0 123.5,-85"/>
<text text-anchor="middle" x="82" y="-73" font-family="Helvetica,sans-Serif" font-size="10.00">{Item</text>
<text text-anchor="start" x="48.5" y="-62" font-family="Helvetica,sans-Serif" font-size="10.00">||+ Item()</text>
<text text-anchor="start" x="48.5" y="-51" font-family="Helvetica,sans-Serif" font-size="10.00">+ getByName()</text>
<text text-anchor="start" x="48.5" y="-40" font-family="Helvetica,sans-Serif" font-size="10.00">+ getName()</text>
<text text-anchor="start" x="48.5" y="-29" font-family="Helvetica,sans-Serif" font-size="10.00">+ getPrice()</text>
<text text-anchor="start" x="48.5" y="-18" font-family="Helvetica,sans-Serif" font-size="10.00">+ operator&lt;()</text>
<text text-anchor="middle" x="82" y="-7" font-family="Helvetica,sans-Serif" font-size="10.00">}</text>
</a>
</g>
</g>
<!-- Node2 -->
<g id="node2" class="node">
<title>Node2</title>
<g id="a_node2"><a xlink:title=" ">
<polygon fill="white" stroke="#666666" points="80.5,-173 17.5,-173 17.5,-143 80.5,-143 80.5,-173"/>
<text text-anchor="middle" x="49" y="-161" font-family="Helvetica,sans-Serif" font-size="10.00">{std::string</text>
<text text-anchor="middle" x="49" y="-150" font-family="Helvetica,sans-Serif" font-size="10.00">||}</text>
</a>
</g>
</g>
<!-- Node2&#45;&gt;Node1 -->
<g id="edge1" class="edge">
<title>Node2&#45;&gt;Node1</title>
<path fill="none" stroke="#404040" d="M49.37,-142.56C49.95,-131.55 51.4,-116.1 55,-103 55.5,-101.19 56.04,-99.36 56.63,-97.53"/>
<polygon fill="none" stroke="#404040" points="56.61,-97.6 54.89,-90.6 60.69,-86.32 62.41,-93.32 56.61,-97.6"/>
<text text-anchor="middle" x="74.5" y="-111.5" font-family="Helvetica,sans-Serif" font-size="10.00"> +_name</text>
</g>
<!-- Node3 -->
<g id="node3" class="node">
<title>Node3</title>
<g id="a_node3"><a xlink:title=" ">
<polygon fill="white" stroke="#666666" points="98,-251 0,-251 0,-210 98,-210 98,-251"/>
<text text-anchor="start" x="8" y="-239" font-family="Helvetica,sans-Serif" font-size="10.00">{std::basic_string&lt;</text>
<text text-anchor="middle" x="49" y="-228" font-family="Helvetica,sans-Serif" font-size="10.00"> Char &gt;</text>
<text text-anchor="middle" x="49" y="-217" font-family="Helvetica,sans-Serif" font-size="10.00">||}</text>
</a>
</g>
</g>
<!-- Node3&#45;&gt;Node2 -->
<g id="edge2" class="edge">
<title>Node3&#45;&gt;Node2</title>
<path fill="none" stroke="#63b8ff" d="M49,-198.39C49,-189.68 49,-180.62 49,-173.39"/>
<polygon fill="none" stroke="#63b8ff" points="45.5,-198.35 49,-208.35 52.5,-198.35 45.5,-198.35"/>
</g>
<!-- Node4 -->
<g id="node4" class="node">
<title>Node4</title>
<g id="a_node4"><a xlink:title=" ">
<polygon fill="white" stroke="#666666" points="129,-173 99,-173 99,-143 129,-143 129,-173"/>
<text text-anchor="middle" x="114" y="-161" font-family="Helvetica,sans-Serif" font-size="10.00">{int</text>
<text text-anchor="middle" x="114" y="-150" font-family="Helvetica,sans-Serif" font-size="10.00">||}</text>
</a>
</g>
</g>
<!-- Node4&#45;&gt;Node1 -->
<g id="edge3" class="edge">
<title>Node4&#45;&gt;Node1</title>
<path fill="none" stroke="#404040" d="M109.95,-142.63C106.7,-131.12 101.94,-114.22 97.26,-97.62"/>
<polygon fill="none" stroke="#404040" points="97.22,-97.5 91.75,-92.81 93.97,-85.95 99.45,-90.64 97.22,-97.5"/>
<text text-anchor="middle" x="120.5" y="-117" font-family="Helvetica,sans-Serif" font-size="10.00"> +_id</text>
<text text-anchor="middle" x="120.5" y="-106" font-family="Helvetica,sans-Serif" font-size="10.00">+_price</text>
</g>
</g>
</svg>
