<?xml version="1.0" encoding="UTF-8" standalone="no"?>
<!DOCTYPE svg PUBLIC "-//W3C//DTD SVG 1.1//EN"
 "http://www.w3.org/Graphics/SVG/1.1/DTD/svg11.dtd">
<!-- Generated by graphviz version 7.0.4 (20221203.1631)
 -->
<!-- Title: Vampire Pages: 1 -->
<svg width="261pt" height="414pt"
 viewBox="0.00 0.00 261.00 414.00" xmlns="http://www.w3.org/2000/svg" xmlns:xlink="http://www.w3.org/1999/xlink">
<g id="graph0" class="graph" transform="scale(1 1) rotate(0) translate(4 410)">
<title>Vampire</title>
<!-- Node1 -->
<g id="node1" class="node">
<title>Node1</title>
<g id="a_node1"><a xlink:title="Armazena todas informações referentes ao inimigo final do jogo, o vampiro.">
<polygon fill="#999999" stroke="#666666" points="152.5,-63 75.5,-63 75.5,0 152.5,0 152.5,-63"/>
<text text-anchor="middle" x="114" y="-51" font-family="Helvetica,sans-Serif" font-size="10.00">{Vampire</text>
<text text-anchor="start" x="83.5" y="-40" font-family="Helvetica,sans-Serif" font-size="10.00">||+ Vampire()</text>
<text text-anchor="start" x="83.5" y="-29" font-family="Helvetica,sans-Serif" font-size="10.00">+ ~Vampire()</text>
<text text-anchor="start" x="83.5" y="-18" font-family="Helvetica,sans-Serif" font-size="10.00">+ drainBlood()</text>
<text text-anchor="middle" x="114" y="-7" font-family="Helvetica,sans-Serif" font-size="10.00">}</text>
</a>
</g>
</g>
<!-- Node2 -->
<g id="node2" class="node">
<title>Node2</title>
<g id="a_node2"><a xlink:href="class_monster.html" target="_top" xlink:title="Armazena e processa ações e atributos dos monstros dentro durante o jogo.">
<polygon fill="white" stroke="#666666" points="165.5,-229 62.5,-229 62.5,-100 165.5,-100 165.5,-229"/>
<text text-anchor="middle" x="114" y="-217" font-family="Helvetica,sans-Serif" font-size="10.00">{Monster</text>
<text text-anchor="start" x="70.5" y="-206" font-family="Helvetica,sans-Serif" font-size="10.00">||+ Monster()</text>
<text text-anchor="start" x="70.5" y="-195" font-family="Helvetica,sans-Serif" font-size="10.00">+ ~Monster()</text>
<text text-anchor="start" x="70.5" y="-184" font-family="Helvetica,sans-Serif" font-size="10.00">+ getName()</text>
<text text-anchor="start" x="70.5" y="-173" font-family="Helvetica,sans-Serif" font-size="10.00">+ getCurrentHp()</text>
<text text-anchor="start" x="70.5" y="-162" font-family="Helvetica,sans-Serif" font-size="10.00">+ isAlive()</text>
<text text-anchor="start" x="70.5" y="-151" font-family="Helvetica,sans-Serif" font-size="10.00">+ currentHealth()</text>
<text text-anchor="start" x="70.5" y="-140" font-family="Helvetica,sans-Serif" font-size="10.00">+ takeDamage()</text>
<text text-anchor="start" x="70.5" y="-129" font-family="Helvetica,sans-Serif" font-size="10.00">+ monsterDamage()</text>
<text text-anchor="start" x="70.5" y="-118" font-family="Helvetica,sans-Serif" font-size="10.00">+ getMaximumHp()</text>
<text text-anchor="middle" x="114" y="-107" font-family="Helvetica,sans-Serif" font-size="10.00">}</text>
</a>
</g>
</g>
<!-- Node2&#45;&gt;Node1 -->
<g id="edge1" class="edge">
<title>Node2&#45;&gt;Node1</title>
<path fill="none" stroke="#63b8ff" d="M114,-88.05C114,-79.38 114,-70.94 114,-63.37"/>
<polygon fill="none" stroke="#63b8ff" points="110.5,-88.02 114,-98.02 117.5,-88.02 110.5,-88.02"/>
</g>
<!-- Node3 -->
<g id="node3" class="node">
<title>Node3</title>
<g id="a_node3"><a xlink:title=" ">
<polygon fill="white" stroke="#666666" points="80.5,-328 17.5,-328 17.5,-298 80.5,-298 80.5,-328"/>
<text text-anchor="middle" x="49" y="-316" font-family="Helvetica,sans-Serif" font-size="10.00">{std::string</text>
<text text-anchor="middle" x="49" y="-305" font-family="Helvetica,sans-Serif" font-size="10.00">||}</text>
</a>
</g>
</g>
<!-- Node3&#45;&gt;Node2 -->
<g id="edge2" class="edge">
<title>Node3&#45;&gt;Node2</title>
<path fill="none" stroke="#404040" d="M53.48,-297.58C57.76,-284.27 64.64,-264.03 72,-247 72.87,-244.99 73.76,-242.96 74.68,-240.92"/>
<polygon fill="none" stroke="#404040" points="74.71,-240.87 73.61,-233.74 79.77,-229.99 80.87,-237.11 74.71,-240.87"/>
<text text-anchor="middle" x="91" y="-261" font-family="Helvetica,sans-Serif" font-size="10.00"> #_name</text>
</g>
<!-- Node4 -->
<g id="node4" class="node">
<title>Node4</title>
<g id="a_node4"><a xlink:title=" ">
<polygon fill="white" stroke="#666666" points="98,-406 0,-406 0,-365 98,-365 98,-406"/>
<text text-anchor="start" x="8" y="-394" font-family="Helvetica,sans-Serif" font-size="10.00">{std::basic_string&lt;</text>
<text text-anchor="middle" x="49" y="-383" font-family="Helvetica,sans-Serif" font-size="10.00"> Char &gt;</text>
<text text-anchor="middle" x="49" y="-372" font-family="Helvetica,sans-Serif" font-size="10.00">||}</text>
</a>
</g>
</g>
<!-- Node4&#45;&gt;Node3 -->
<g id="edge3" class="edge">
<title>Node4&#45;&gt;Node3</title>
<path fill="none" stroke="#63b8ff" d="M49,-353.39C49,-344.68 49,-335.62 49,-328.39"/>
<polygon fill="none" stroke="#63b8ff" points="45.5,-353.35 49,-363.35 52.5,-353.35 45.5,-353.35"/>
</g>
<!-- Node5 -->
<g id="node5" class="node">
<title>Node5</title>
<g id="a_node5"><a xlink:title=" ">
<polygon fill="white" stroke="#666666" points="129,-328 99,-328 99,-298 129,-298 129,-328"/>
<text text-anchor="middle" x="114" y="-316" font-family="Helvetica,sans-Serif" font-size="10.00">{int</text>
<text text-anchor="middle" x="114" y="-305" font-family="Helvetica,sans-Serif" font-size="10.00">||}</text>
</a>
</g>
</g>
<!-- Node5&#45;&gt;Node2 -->
<g id="edge4" class="edge">
<title>Node5&#45;&gt;Node2</title>
<path fill="none" stroke="#404040" d="M114,-297.69C114,-284.39 114,-263.48 114,-242.18"/>
<polygon fill="none" stroke="#404040" points="114,-242.2 110,-236.2 114,-230.2 118,-236.2 114,-242.2"/>
<text text-anchor="middle" x="142" y="-261" font-family="Helvetica,sans-Serif" font-size="10.00"> #_currentHp</text>
</g>
<!-- Node6 -->
<g id="node6" class="node">
<title>Node6</title>
<g id="a_node6"><a xlink:title=" ">
<polygon fill="white" stroke="#666666" points="210.5,-328 175.5,-328 175.5,-298 210.5,-298 210.5,-328"/>
<text text-anchor="middle" x="193" y="-316" font-family="Helvetica,sans-Serif" font-size="10.00">{uint</text>
<text text-anchor="middle" x="193" y="-305" font-family="Helvetica,sans-Serif" font-size="10.00">||}</text>
</a>
</g>
</g>
<!-- Node6&#45;&gt;Node2 -->
<g id="edge5" class="edge">
<title>Node6&#45;&gt;Node2</title>
<path fill="none" stroke="#404040" d="M189.39,-297.59C185.72,-284.09 179.39,-263.58 171,-247 169.94,-244.9 168.82,-242.78 167.67,-240.67"/>
<polygon fill="none" stroke="#404040" points="167.62,-240.58 161.15,-237.39 161.61,-230.19 168.08,-233.38 167.62,-240.58"/>
<text text-anchor="middle" x="218.5" y="-272" font-family="Helvetica,sans-Serif" font-size="10.00"> #_maxDamage</text>
<text text-anchor="middle" x="218.5" y="-261" font-family="Helvetica,sans-Serif" font-size="10.00">#_maxHp</text>
<text text-anchor="middle" x="218.5" y="-250" font-family="Helvetica,sans-Serif" font-size="10.00">#_minDamage</text>
</g>
</g>
</svg>
