<?xml version="1.0" encoding="UTF-8" standalone="no"?>
<!DOCTYPE svg PUBLIC "-//W3C//DTD SVG 1.1//EN"
 "http://www.w3.org/Graphics/SVG/1.1/DTD/svg11.dtd">
<!-- Generated by graphviz version 7.0.4 (20221203.1631)
 -->
<!-- Title: EntradaInvalidaException Pages: 1 -->
<svg width="136pt" height="192pt"
 viewBox="0.00 0.00 136.00 192.00" xmlns="http://www.w3.org/2000/svg" xmlns:xlink="http://www.w3.org/1999/xlink">
<g id="graph0" class="graph" transform="scale(1 1) rotate(0) translate(4 188)">
<title>EntradaInvalidaException</title>
<!-- Node1 -->
<g id="node1" class="node">
<title>Node1</title>
<g id="a_node1"><a xlink:title="Exceção que lida com erros de comando inválido.">
<polygon fill="#999999" stroke="#666666" points="128,-41 0,-41 0,0 128,0 128,-41"/>
<text text-anchor="middle" x="64" y="-29" font-family="Helvetica,sans-Serif" font-size="10.00">{EntradaInvalidaException</text>
<text text-anchor="start" x="8" y="-18" font-family="Helvetica,sans-Serif" font-size="10.00">||+ what()</text>
<text text-anchor="middle" x="64" y="-7" font-family="Helvetica,sans-Serif" font-size="10.00">}</text>
</a>
</g>
</g>
<!-- Node2 -->
<g id="node2" class="node">
<title>Node2</title>
<g id="a_node2"><a xlink:href="class_erro_de_jogo_exception.html" target="_top" xlink:title="Exceção que lida com erros genéricos.">
<polygon fill="white" stroke="#666666" points="120.5,-118 7.5,-118 7.5,-77 120.5,-77 120.5,-118"/>
<text text-anchor="middle" x="64" y="-106" font-family="Helvetica,sans-Serif" font-size="10.00">{ErroDeJogoException</text>
<text text-anchor="start" x="15.5" y="-95" font-family="Helvetica,sans-Serif" font-size="10.00">||+ what()</text>
<text text-anchor="middle" x="64" y="-84" font-family="Helvetica,sans-Serif" font-size="10.00">}</text>
</a>
</g>
</g>
<!-- Node2&#45;&gt;Node1 -->
<g id="edge1" class="edge">
<title>Node2&#45;&gt;Node1</title>
<path fill="none" stroke="#63b8ff" d="M64,-65.36C64,-57.24 64,-48.7 64,-41.33"/>
<polygon fill="none" stroke="#63b8ff" points="60.5,-65.28 64,-75.28 67.5,-65.28 60.5,-65.28"/>
</g>
<!-- Node3 -->
<g id="node3" class="node">
<title>Node3</title>
<g id="a_node3"><a xlink:title=" ">
<polygon fill="white" stroke="#666666" points="104.5,-184 23.5,-184 23.5,-154 104.5,-154 104.5,-184"/>
<text text-anchor="middle" x="64" y="-172" font-family="Helvetica,sans-Serif" font-size="10.00">{std::exception</text>
<text text-anchor="middle" x="64" y="-161" font-family="Helvetica,sans-Serif" font-size="10.00">||}</text>
</a>
</g>
</g>
<!-- Node3&#45;&gt;Node2 -->
<g id="edge2" class="edge">
<title>Node3&#45;&gt;Node2</title>
<path fill="none" stroke="#63b8ff" d="M64,-142.36C64,-134.45 64,-125.87 64,-118.42"/>
<polygon fill="none" stroke="#63b8ff" points="60.5,-142.09 64,-152.09 67.5,-142.09 60.5,-142.09"/>
</g>
</g>
</svg>
