<?xml version="1.0" encoding="UTF-8" standalone="no"?>
<!DOCTYPE svg PUBLIC "-//W3C//DTD SVG 1.1//EN"
 "http://www.w3.org/Graphics/SVG/1.1/DTD/svg11.dtd">
<!-- Generated by graphviz version 7.0.4 (20221203.1631)
 -->
<!-- Title: Monster Pages: 1 -->
<svg width="261pt" height="314pt"
 viewBox="0.00 0.00 261.00 314.00" xmlns="http://www.w3.org/2000/svg" xmlns:xlink="http://www.w3.org/1999/xlink">
<g id="graph0" class="graph" transform="scale(1 1) rotate(0) translate(4 310)">
<title>Monster</title>
<!-- Node1 -->
<g id="node1" class="node">
<title>Node1</title>
<g id="a_node1"><a xlink:title="Armazena e processa ações e atributos dos monstros dentro durante o jogo.">
<polygon fill="#999999" stroke="#666666" points="165.5,-129 62.5,-129 62.5,0 165.5,0 165.5,-129"/>
<text text-anchor="middle" x="114" y="-117" font-family="Helvetica,sans-Serif" font-size="10.00">{Monster</text>
<text text-anchor="start" x="70.5" y="-106" font-family="Helvetica,sans-Serif" font-size="10.00">||+ Monster()</text>
<text text-anchor="start" x="70.5" y="-95" font-family="Helvetica,sans-Serif" font-size="10.00">+ ~Monster()</text>
<text text-anchor="start" x="70.5" y="-84" font-family="Helvetica,sans-Serif" font-size="10.00">+ getName()</text>
<text text-anchor="start" x="70.5" y="-73" font-family="Helvetica,sans-Serif" font-size="10.00">+ getCurrentHp()</text>
<text text-anchor="start" x="70.5" y="-62" font-family="Helvetica,sans-Serif" font-size="10.00">+ isAlive()</text>
<text text-anchor="start" x="70.5" y="-51" font-family="Helvetica,sans-Serif" font-size="10.00">+ currentHealth()</text>
<text text-anchor="start" x="70.5" y="-40" font-family="Helvetica,sans-Serif" font-size="10.00">+ takeDamage()</text>
<text text-anchor="start" x="70.5" y="-29" font-family="Helvetica,sans-Serif" font-size="10.00">+ monsterDamage()</text>
<text text-anchor="start" x="70.5" y="-18" font-family="Helvetica,sans-Serif" font-size="10.00">+ getMaximumHp()</text>
<text text-anchor="middle" x="114" y="-7" font-family="Helvetica,sans-Serif" font-size="10.00">}</text>
</a>
</g>
</g>
<!-- Node2 -->
<g id="node2" class="node">
<title>Node2</title>
<g id="a_node2"><a xlink:title=" ">
<polygon fill="white" stroke="#666666" points="80.5,-228 17.5,-228 17.5,-198 80.5,-198 80.5,-228"/>
<text text-anchor="middle" x="49" y="-216" font-family="Helvetica,sans-Serif" font-size="10.00">{std::string</text>
<text text-anchor="middle" x="49" y="-205" font-family="Helvetica,sans-Serif" font-size="10.00">||}</text>
</a>
</g>
</g>
<!-- Node2&#45;&gt;Node1 -->
<g id="edge1" class="edge">
<title>Node2&#45;&gt;Node1</title>
<path fill="none" stroke="#404040" d="M53.48,-197.58C57.76,-184.27 64.64,-164.03 72,-147 72.87,-144.99 73.76,-142.96 74.68,-140.92"/>
<polygon fill="none" stroke="#404040" points="74.71,-140.87 73.61,-133.74 79.77,-129.99 80.87,-137.11 74.71,-140.87"/>
<text text-anchor="middle" x="91" y="-161" font-family="Helvetica,sans-Serif" font-size="10.00"> #_name</text>
</g>
<!-- Node3 -->
<g id="node3" class="node">
<title>Node3</title>
<g id="a_node3"><a xlink:title=" ">
<polygon fill="white" stroke="#666666" points="98,-306 0,-306 0,-265 98,-265 98,-306"/>
<text text-anchor="start" x="8" y="-294" font-family="Helvetica,sans-Serif" font-size="10.00">{std::basic_string&lt;</text>
<text text-anchor="middle" x="49" y="-283" font-family="Helvetica,sans-Serif" font-size="10.00"> Char &gt;</text>
<text text-anchor="middle" x="49" y="-272" font-family="Helvetica,sans-Serif" font-size="10.00">||}</text>
</a>
</g>
</g>
<!-- Node3&#45;&gt;Node2 -->
<g id="edge2" class="edge">
<title>Node3&#45;&gt;Node2</title>
<path fill="none" stroke="#63b8ff" d="M49,-253.39C49,-244.68 49,-235.62 49,-228.39"/>
<polygon fill="none" stroke="#63b8ff" points="45.5,-253.35 49,-263.35 52.5,-253.35 45.5,-253.35"/>
</g>
<!-- Node4 -->
<g id="node4" class="node">
<title>Node4</title>
<g id="a_node4"><a xlink:title=" ">
<polygon fill="white" stroke="#666666" points="129,-228 99,-228 99,-198 129,-198 129,-228"/>
<text text-anchor="middle" x="114" y="-216" font-family="Helvetica,sans-Serif" font-size="10.00">{int</text>
<text text-anchor="middle" x="114" y="-205" font-family="Helvetica,sans-Serif" font-size="10.00">||}</text>
</a>
</g>
</g>
<!-- Node4&#45;&gt;Node1 -->
<g id="edge3" class="edge">
<title>Node4&#45;&gt;Node1</title>
<path fill="none" stroke="#404040" d="M114,-197.69C114,-184.39 114,-163.48 114,-142.18"/>
<polygon fill="none" stroke="#404040" points="114,-142.2 110,-136.2 114,-130.2 118,-136.2 114,-142.2"/>
<text text-anchor="middle" x="142" y="-161" font-family="Helvetica,sans-Serif" font-size="10.00"> #_currentHp</text>
</g>
<!-- Node5 -->
<g id="node5" class="node">
<title>Node5</title>
<g id="a_node5"><a xlink:title=" ">
<polygon fill="white" stroke="#666666" points="210.5,-228 175.5,-228 175.5,-198 210.5,-198 210.5,-228"/>
<text text-anchor="middle" x="193" y="-216" font-family="Helvetica,sans-Serif" font-size="10.00">{uint</text>
<text text-anchor="middle" x="193" y="-205" font-family="Helvetica,sans-Serif" font-size="10.00">||}</text>
</a>
</g>
</g>
<!-- Node5&#45;&gt;Node1 -->
<g id="edge4" class="edge">
<title>Node5&#45;&gt;Node1</title>
<path fill="none" stroke="#404040" d="M189.39,-197.59C185.72,-184.09 179.39,-163.58 171,-147 169.94,-144.9 168.82,-142.78 167.67,-140.67"/>
<polygon fill="none" stroke="#404040" points="167.62,-140.58 161.15,-137.39 161.61,-130.19 168.08,-133.38 167.62,-140.58"/>
<text text-anchor="middle" x="218.5" y="-172" font-family="Helvetica,sans-Serif" font-size="10.00"> #_maxDamage</text>
<text text-anchor="middle" x="218.5" y="-161" font-family="Helvetica,sans-Serif" font-size="10.00">#_maxHp</text>
<text text-anchor="middle" x="218.5" y="-150" font-family="Helvetica,sans-Serif" font-size="10.00">#_minDamage</text>
</g>
</g>
</svg>
