<?xml version="1.0" encoding="UTF-8" standalone="no"?>
<!DOCTYPE svg PUBLIC "-//W3C//DTD SVG 1.1//EN"
 "http://www.w3.org/Graphics/SVG/1.1/DTD/svg11.dtd">
<!-- Generated by graphviz version 7.0.4 (20221203.1631)
 -->
<!-- Title: ErroDeJogoException Pages: 1 -->
<svg width="274pt" height="192pt"
 viewBox="0.00 0.00 273.50 192.00" xmlns="http://www.w3.org/2000/svg" xmlns:xlink="http://www.w3.org/1999/xlink">
<g id="graph0" class="graph" transform="scale(1 1) rotate(0) translate(4 188)">
<title>ErroDeJogoException</title>
<!-- Node1 -->
<g id="node1" class="node">
<title>Node1</title>
<g id="a_node1"><a xlink:title="Exceção que lida com erros genéricos.">
<polygon fill="#999999" stroke="#666666" points="191.5,-118 78.5,-118 78.5,-77 191.5,-77 191.5,-118"/>
<text text-anchor="middle" x="135" y="-106" font-family="Helvetica,sans-Serif" font-size="10.00">{ErroDeJogoException</text>
<text text-anchor="start" x="86.5" y="-95" font-family="Helvetica,sans-Serif" font-size="10.00">||+ what()</text>
<text text-anchor="middle" x="135" y="-84" font-family="Helvetica,sans-Serif" font-size="10.00">}</text>
</a>
</g>
</g>
<!-- Node3 -->
<g id="node3" class="node">
<title>Node3</title>
<g id="a_node3"><a xlink:href="class_entrada_invalida_exception.html" target="_top" xlink:title="Exceção que lida com erros de comando inválido.">
<polygon fill="white" stroke="#666666" points="128,-41 0,-41 0,0 128,0 128,-41"/>
<text text-anchor="middle" x="64" y="-29" font-family="Helvetica,sans-Serif" font-size="10.00">{EntradaInvalidaException</text>
<text text-anchor="start" x="8" y="-18" font-family="Helvetica,sans-Serif" font-size="10.00">||+ what()</text>
<text text-anchor="middle" x="64" y="-7" font-family="Helvetica,sans-Serif" font-size="10.00">}</text>
</a>
</g>
</g>
<!-- Node1&#45;&gt;Node3 -->
<g id="edge2" class="edge">
<title>Node1&#45;&gt;Node3</title>
<path fill="none" stroke="#63b8ff" d="M108.46,-68.46C99.92,-59.44 90.64,-49.64 82.78,-41.33"/>
<polygon fill="none" stroke="#63b8ff" points="105.89,-70.84 115.31,-75.7 110.97,-66.03 105.89,-70.84"/>
</g>
<!-- Node4 -->
<g id="node4" class="node">
<title>Node4</title>
<g id="a_node4"><a xlink:href="class_subtract_item_exception.html" target="_top" xlink:title="Exceção que lida com erros relacionados a falta de itens no inventário.">
<polygon fill="white" stroke="#666666" points="265.5,-41 146.5,-41 146.5,0 265.5,0 265.5,-41"/>
<text text-anchor="middle" x="206" y="-29" font-family="Helvetica,sans-Serif" font-size="10.00">{SubtractItemException</text>
<text text-anchor="start" x="154.5" y="-18" font-family="Helvetica,sans-Serif" font-size="10.00">||+ what()</text>
<text text-anchor="middle" x="206" y="-7" font-family="Helvetica,sans-Serif" font-size="10.00">}</text>
</a>
</g>
</g>
<!-- Node1&#45;&gt;Node4 -->
<g id="edge3" class="edge">
<title>Node1&#45;&gt;Node4</title>
<path fill="none" stroke="#63b8ff" d="M161.54,-68.46C170.08,-59.44 179.36,-49.64 187.22,-41.33"/>
<polygon fill="none" stroke="#63b8ff" points="159.03,-66.03 154.69,-75.7 164.11,-70.84 159.03,-66.03"/>
</g>
<!-- Node2 -->
<g id="node2" class="node">
<title>Node2</title>
<g id="a_node2"><a xlink:title=" ">
<polygon fill="white" stroke="#666666" points="175.5,-184 94.5,-184 94.5,-154 175.5,-154 175.5,-184"/>
<text text-anchor="middle" x="135" y="-172" font-family="Helvetica,sans-Serif" font-size="10.00">{std::exception</text>
<text text-anchor="middle" x="135" y="-161" font-family="Helvetica,sans-Serif" font-size="10.00">||}</text>
</a>
</g>
</g>
<!-- Node2&#45;&gt;Node1 -->
<g id="edge1" class="edge">
<title>Node2&#45;&gt;Node1</title>
<path fill="none" stroke="#63b8ff" d="M135,-142.36C135,-134.45 135,-125.87 135,-118.42"/>
<polygon fill="none" stroke="#63b8ff" points="131.5,-142.09 135,-152.09 138.5,-142.09 131.5,-142.09"/>
</g>
</g>
</svg>
