<?xml version="1.0" encoding="UTF-8" standalone="no"?>
<!DOCTYPE svg PUBLIC "-//W3C//DTD SVG 1.1//EN"
 "http://www.w3.org/Graphics/SVG/1.1/DTD/svg11.dtd">
<!-- Generated by graphviz version 7.0.4 (20221203.1631)
 -->
<!-- Title: Weapon Pages: 1 -->
<svg width="145pt" height="381pt"
 viewBox="0.00 0.00 145.00 381.00" xmlns="http://www.w3.org/2000/svg" xmlns:xlink="http://www.w3.org/1999/xlink">
<g id="graph0" class="graph" transform="scale(1 1) rotate(0) translate(4 377)">
<title>Weapon</title>
<!-- Node1 -->
<g id="node1" class="node">
<title>Node1</title>
<g id="a_node1"><a xlink:title="Contém todos os atributos armazenados e funções dos objetos do tipo arma do jogo.">
<polygon fill="#999999" stroke="#666666" points="129,-85 35,-85 35,0 129,0 129,-85"/>
<text text-anchor="middle" x="82" y="-73" font-family="Helvetica,sans-Serif" font-size="10.00">{Weapon</text>
<text text-anchor="start" x="43" y="-62" font-family="Helvetica,sans-Serif" font-size="10.00">||+ Weapon()</text>
<text text-anchor="start" x="43" y="-51" font-family="Helvetica,sans-Serif" font-size="10.00">+ getFromName()</text>
<text text-anchor="start" x="43" y="-40" font-family="Helvetica,sans-Serif" font-size="10.00">+ getName()</text>
<text text-anchor="start" x="43" y="-29" font-family="Helvetica,sans-Serif" font-size="10.00">+ damageRange()</text>
<text text-anchor="start" x="43" y="-18" font-family="Helvetica,sans-Serif" font-size="10.00">+ getDamage()</text>
<text text-anchor="middle" x="82" y="-7" font-family="Helvetica,sans-Serif" font-size="10.00">}</text>
</a>
</g>
</g>
<!-- Node2 -->
<g id="node2" class="node">
<title>Node2</title>
<g id="a_node2"><a xlink:href="class_item.html" target="_top" xlink:title="Processa todos os atributos armazenados e funções dos itens do jogo.">
<polygon fill="white" stroke="#666666" points="123.5,-207 40.5,-207 40.5,-122 123.5,-122 123.5,-207"/>
<text text-anchor="middle" x="82" y="-195" font-family="Helvetica,sans-Serif" font-size="10.00">{Item</text>
<text text-anchor="start" x="48.5" y="-184" font-family="Helvetica,sans-Serif" font-size="10.00">||+ Item()</text>
<text text-anchor="start" x="48.5" y="-173" font-family="Helvetica,sans-Serif" font-size="10.00">+ getByName()</text>
<text text-anchor="start" x="48.5" y="-162" font-family="Helvetica,sans-Serif" font-size="10.00">+ getName()</text>
<text text-anchor="start" x="48.5" y="-151" font-family="Helvetica,sans-Serif" font-size="10.00">+ getPrice()</text>
<text text-anchor="start" x="48.5" y="-140" font-family="Helvetica,sans-Serif" font-size="10.00">+ operator&lt;()</text>
<text text-anchor="middle" x="82" y="-129" font-family="Helvetica,sans-Serif" font-size="10.00">}</text>
</a>
</g>
</g>
<!-- Node2&#45;&gt;Node1 -->
<g id="edge1" class="edge">
<title>Node2&#45;&gt;Node1</title>
<path fill="none" stroke="#63b8ff" d="M82,-110.27C82,-101.88 82,-93.32 82,-85.24"/>
<polygon fill="none" stroke="#63b8ff" points="78.5,-110.02 82,-120.02 85.5,-110.02 78.5,-110.02"/>
</g>
<!-- Node3 -->
<g id="node3" class="node">
<title>Node3</title>
<g id="a_node3"><a xlink:title=" ">
<polygon fill="white" stroke="#666666" points="80.5,-295 17.5,-295 17.5,-265 80.5,-265 80.5,-295"/>
<text text-anchor="middle" x="49" y="-283" font-family="Helvetica,sans-Serif" font-size="10.00">{std::string</text>
<text text-anchor="middle" x="49" y="-272" font-family="Helvetica,sans-Serif" font-size="10.00">||}</text>
</a>
</g>
</g>
<!-- Node3&#45;&gt;Node2 -->
<g id="edge2" class="edge">
<title>Node3&#45;&gt;Node2</title>
<path fill="none" stroke="#404040" d="M49.37,-264.56C49.95,-253.55 51.4,-238.1 55,-225 55.5,-223.19 56.04,-221.36 56.63,-219.53"/>
<polygon fill="none" stroke="#404040" points="56.61,-219.6 54.89,-212.6 60.69,-208.32 62.41,-215.32 56.61,-219.6"/>
<text text-anchor="middle" x="74.5" y="-233.5" font-family="Helvetica,sans-Serif" font-size="10.00"> +_name</text>
</g>
<!-- Node4 -->
<g id="node4" class="node">
<title>Node4</title>
<g id="a_node4"><a xlink:title=" ">
<polygon fill="white" stroke="#666666" points="98,-373 0,-373 0,-332 98,-332 98,-373"/>
<text text-anchor="start" x="8" y="-361" font-family="Helvetica,sans-Serif" font-size="10.00">{std::basic_string&lt;</text>
<text text-anchor="middle" x="49" y="-350" font-family="Helvetica,sans-Serif" font-size="10.00"> Char &gt;</text>
<text text-anchor="middle" x="49" y="-339" font-family="Helvetica,sans-Serif" font-size="10.00">||}</text>
</a>
</g>
</g>
<!-- Node4&#45;&gt;Node3 -->
<g id="edge3" class="edge">
<title>Node4&#45;&gt;Node3</title>
<path fill="none" stroke="#63b8ff" d="M49,-320.39C49,-311.68 49,-302.62 49,-295.39"/>
<polygon fill="none" stroke="#63b8ff" points="45.5,-320.35 49,-330.35 52.5,-320.35 45.5,-320.35"/>
</g>
<!-- Node5 -->
<g id="node5" class="node">
<title>Node5</title>
<g id="a_node5"><a xlink:title=" ">
<polygon fill="white" stroke="#666666" points="129,-295 99,-295 99,-265 129,-265 129,-295"/>
<text text-anchor="middle" x="114" y="-283" font-family="Helvetica,sans-Serif" font-size="10.00">{int</text>
<text text-anchor="middle" x="114" y="-272" font-family="Helvetica,sans-Serif" font-size="10.00">||}</text>
</a>
</g>
</g>
<!-- Node5&#45;&gt;Node2 -->
<g id="edge4" class="edge">
<title>Node5&#45;&gt;Node2</title>
<path fill="none" stroke="#404040" d="M109.95,-264.63C106.7,-253.12 101.94,-236.22 97.26,-219.62"/>
<polygon fill="none" stroke="#404040" points="97.22,-219.5 91.75,-214.81 93.97,-207.95 99.45,-212.64 97.22,-219.5"/>
<text text-anchor="middle" x="120.5" y="-239" font-family="Helvetica,sans-Serif" font-size="10.00"> +_id</text>
<text text-anchor="middle" x="120.5" y="-228" font-family="Helvetica,sans-Serif" font-size="10.00">+_price</text>
</g>
</g>
</svg>
