<?xml version="1.0" encoding="UTF-8" standalone="no"?>
<!DOCTYPE svg PUBLIC "-//W3C//DTD SVG 1.1//EN"
 "http://www.w3.org/Graphics/SVG/1.1/DTD/svg11.dtd">
<!-- Generated by graphviz version 7.0.4 (20221203.1631)
 -->
<!-- Title: src/enemy.cpp Pages: 1 -->
<svg width="177pt" height="247pt"
 viewBox="0.00 0.00 176.50 247.00" xmlns="http://www.w3.org/2000/svg" xmlns:xlink="http://www.w3.org/1999/xlink">
<g id="graph0" class="graph" transform="scale(1 1) rotate(0) translate(4 243)">
<title>src/enemy.cpp</title>
<!-- Node1 -->
<g id="node1" class="node">
<title>Node1</title>
<g id="a_node1"><a xlink:title=" ">
<polygon fill="#999999" stroke="#666666" points="103,-239 22,-239 22,-220 103,-220 103,-239"/>
<text text-anchor="middle" x="62.5" y="-227" font-family="Helvetica,sans-Serif" font-size="10.00">src/enemy.cpp</text>
</a>
</g>
</g>
<!-- Node2 -->
<g id="node2" class="node">
<title>Node2</title>
<g id="a_node2"><a xlink:href="enemy_8hpp.html" target="_top" xlink:title="Classe principal com a lógica de enemy.">
<polygon fill="white" stroke="#666666" points="65,-184 0,-184 0,-165 65,-165 65,-184"/>
<text text-anchor="middle" x="32.5" y="-172" font-family="Helvetica,sans-Serif" font-size="10.00">enemy.hpp</text>
</a>
</g>
</g>
<!-- Node1&#45;&gt;Node2 -->
<g id="edge1" class="edge">
<title>Node1&#45;&gt;Node2</title>
<path fill="none" stroke="#63b8ff" d="M57.55,-219.75C53.66,-212.88 48.11,-203.08 43.22,-194.45"/>
<polygon fill="#63b8ff" stroke="#63b8ff" points="46.28,-192.74 38.31,-185.76 40.19,-196.19 46.28,-192.74"/>
</g>
<!-- Node3 -->
<g id="node3" class="node">
<title>Node3</title>
<g id="a_node3"><a xlink:href="monster_8hpp.html" target="_top" xlink:title="Classe principal com a lógica de monster.">
<polygon fill="white" stroke="#666666" points="98,-129 27,-129 27,-110 98,-110 98,-129"/>
<text text-anchor="middle" x="62.5" y="-117" font-family="Helvetica,sans-Serif" font-size="10.00">monster.hpp</text>
</a>
</g>
</g>
<!-- Node1&#45;&gt;Node3 -->
<g id="edge8" class="edge">
<title>Node1&#45;&gt;Node3</title>
<path fill="none" stroke="#63b8ff" d="M65.33,-219.75C68.05,-210.86 71.96,-196.64 73.5,-184 75.31,-169.17 72.24,-152.54 68.89,-140.02"/>
<polygon fill="#63b8ff" stroke="#63b8ff" points="72.27,-139.11 66.05,-130.54 65.56,-141.12 72.27,-139.11"/>
</g>
<!-- Node2&#45;&gt;Node3 -->
<g id="edge2" class="edge">
<title>Node2&#45;&gt;Node3</title>
<path fill="none" stroke="#63b8ff" d="M37.45,-164.75C41.34,-157.88 46.89,-148.08 51.78,-139.45"/>
<polygon fill="#63b8ff" stroke="#63b8ff" points="54.81,-141.19 56.69,-130.76 48.72,-137.74 54.81,-141.19"/>
</g>
<!-- Node4 -->
<g id="node4" class="node">
<title>Node4</title>
<g id="a_node4"><a xlink:title=" ">
<polygon fill="#e0e0e0" stroke="#999999" points="62,-19 21,-19 21,0 62,0 62,-19"/>
<text text-anchor="middle" x="41.5" y="-7" font-family="Helvetica,sans-Serif" font-size="10.00">string</text>
</a>
</g>
</g>
<!-- Node3&#45;&gt;Node4 -->
<g id="edge3" class="edge">
<title>Node3&#45;&gt;Node4</title>
<path fill="none" stroke="#63b8ff" d="M53.73,-109.52C46.18,-101.13 35.84,-87.83 31.5,-74 26.99,-59.64 30.01,-42.78 33.88,-30.05"/>
<polygon fill="#63b8ff" stroke="#63b8ff" points="37.13,-31.34 37.12,-20.74 30.52,-29.03 37.13,-31.34"/>
</g>
<!-- Node5 -->
<g id="node5" class="node">
<title>Node5</title>
<g id="a_node5"><a xlink:title=" ">
<polygon fill="#e0e0e0" stroke="#999999" points="84.5,-74 40.5,-74 40.5,-55 84.5,-55 84.5,-74"/>
<text text-anchor="middle" x="62.5" y="-62" font-family="Helvetica,sans-Serif" font-size="10.00">cmath</text>
</a>
</g>
</g>
<!-- Node3&#45;&gt;Node5 -->
<g id="edge4" class="edge">
<title>Node3&#45;&gt;Node5</title>
<path fill="none" stroke="#63b8ff" d="M62.5,-109.75C62.5,-103.27 62.5,-94.16 62.5,-85.9"/>
<polygon fill="#63b8ff" stroke="#63b8ff" points="66,-85.96 62.5,-75.96 59,-85.96 66,-85.96"/>
</g>
<!-- Node6 -->
<g id="node6" class="node">
<title>Node6</title>
<g id="a_node6"><a xlink:href="utilities_8hpp.html" target="_top" xlink:title="Classe principal com a lógica de utilities.">
<polygon fill="white" stroke="#666666" points="168.5,-74 102.5,-74 102.5,-55 168.5,-55 168.5,-74"/>
<text text-anchor="middle" x="135.5" y="-62" font-family="Helvetica,sans-Serif" font-size="10.00">utilities.hpp</text>
</a>
</g>
</g>
<!-- Node3&#45;&gt;Node6 -->
<g id="edge5" class="edge">
<title>Node3&#45;&gt;Node6</title>
<path fill="none" stroke="#63b8ff" d="M74.88,-109.51C85.65,-101.7 101.47,-90.21 114.25,-80.93"/>
<polygon fill="#63b8ff" stroke="#63b8ff" points="116.04,-83.95 122.07,-75.25 111.93,-78.29 116.04,-83.95"/>
</g>
<!-- Node6&#45;&gt;Node4 -->
<g id="edge6" class="edge">
<title>Node6&#45;&gt;Node4</title>
<path fill="none" stroke="#63b8ff" d="M119.55,-54.51C105.15,-46.39 83.71,-34.3 66.94,-24.85"/>
<polygon fill="#63b8ff" stroke="#63b8ff" points="68.96,-21.96 58.53,-20.1 65.52,-28.06 68.96,-21.96"/>
</g>
<!-- Node7 -->
<g id="node7" class="node">
<title>Node7</title>
<g id="a_node7"><a xlink:title=" ">
<polygon fill="#e0e0e0" stroke="#999999" points="162.5,-19 108.5,-19 108.5,0 162.5,0 162.5,-19"/>
<text text-anchor="middle" x="135.5" y="-7" font-family="Helvetica,sans-Serif" font-size="10.00">iostream</text>
</a>
</g>
</g>
<!-- Node6&#45;&gt;Node7 -->
<g id="edge7" class="edge">
<title>Node6&#45;&gt;Node7</title>
<path fill="none" stroke="#63b8ff" d="M135.5,-54.75C135.5,-48.27 135.5,-39.16 135.5,-30.9"/>
<polygon fill="#63b8ff" stroke="#63b8ff" points="139,-30.96 135.5,-20.96 132,-30.96 139,-30.96"/>
</g>
</g>
</svg>
