<?xml version="1.0" encoding="UTF-8" standalone="no"?>
<!DOCTYPE svg PUBLIC "-//W3C//DTD SVG 1.1//EN"
 "http://www.w3.org/Graphics/SVG/1.1/DTD/svg11.dtd">
<!-- Generated by graphviz version 7.0.4 (20221203.1631)
 -->
<!-- Title: include/enemy.hpp Pages: 1 -->
<svg width="163pt" height="192pt"
 viewBox="0.00 0.00 163.00 192.00" xmlns="http://www.w3.org/2000/svg" xmlns:xlink="http://www.w3.org/1999/xlink">
<g id="graph0" class="graph" transform="scale(1 1) rotate(0) translate(4 188)">
<title>include/enemy.hpp</title>
<!-- Node1 -->
<g id="node1" class="node">
<title>Node1</title>
<g id="a_node1"><a xlink:title="Classe principal com a lógica de enemy.">
<polygon fill="#999999" stroke="#666666" points="98,-184 0,-184 0,-165 98,-165 98,-184"/>
<text text-anchor="middle" x="49" y="-172" font-family="Helvetica,sans-Serif" font-size="10.00">include/enemy.hpp</text>
</a>
</g>
</g>
<!-- Node2 -->
<g id="node2" class="node">
<title>Node2</title>
<g id="a_node2"><a xlink:href="monster_8hpp.html" target="_top" xlink:title="Classe principal com a lógica de monster.">
<polygon fill="white" stroke="#666666" points="84.5,-129 13.5,-129 13.5,-110 84.5,-110 84.5,-129"/>
<text text-anchor="middle" x="49" y="-117" font-family="Helvetica,sans-Serif" font-size="10.00">monster.hpp</text>
</a>
</g>
</g>
<!-- Node1&#45;&gt;Node2 -->
<g id="edge1" class="edge">
<title>Node1&#45;&gt;Node2</title>
<path fill="none" stroke="#63b8ff" d="M49,-164.75C49,-158.27 49,-149.16 49,-140.9"/>
<polygon fill="#63b8ff" stroke="#63b8ff" points="52.5,-140.96 49,-130.96 45.5,-140.96 52.5,-140.96"/>
</g>
<!-- Node3 -->
<g id="node3" class="node">
<title>Node3</title>
<g id="a_node3"><a xlink:title=" ">
<polygon fill="#e0e0e0" stroke="#999999" points="48.5,-19 7.5,-19 7.5,0 48.5,0 48.5,-19"/>
<text text-anchor="middle" x="28" y="-7" font-family="Helvetica,sans-Serif" font-size="10.00">string</text>
</a>
</g>
</g>
<!-- Node2&#45;&gt;Node3 -->
<g id="edge2" class="edge">
<title>Node2&#45;&gt;Node3</title>
<path fill="none" stroke="#63b8ff" d="M40.23,-109.52C32.68,-101.13 22.34,-87.83 18,-74 13.49,-59.64 16.51,-42.78 20.38,-30.05"/>
<polygon fill="#63b8ff" stroke="#63b8ff" points="23.63,-31.34 23.62,-20.74 17.02,-29.03 23.63,-31.34"/>
</g>
<!-- Node4 -->
<g id="node4" class="node">
<title>Node4</title>
<g id="a_node4"><a xlink:title=" ">
<polygon fill="#e0e0e0" stroke="#999999" points="71,-74 27,-74 27,-55 71,-55 71,-74"/>
<text text-anchor="middle" x="49" y="-62" font-family="Helvetica,sans-Serif" font-size="10.00">cmath</text>
</a>
</g>
</g>
<!-- Node2&#45;&gt;Node4 -->
<g id="edge3" class="edge">
<title>Node2&#45;&gt;Node4</title>
<path fill="none" stroke="#63b8ff" d="M49,-109.75C49,-103.27 49,-94.16 49,-85.9"/>
<polygon fill="#63b8ff" stroke="#63b8ff" points="52.5,-85.96 49,-75.96 45.5,-85.96 52.5,-85.96"/>
</g>
<!-- Node5 -->
<g id="node5" class="node">
<title>Node5</title>
<g id="a_node5"><a xlink:href="utilities_8hpp.html" target="_top" xlink:title="Classe principal com a lógica de utilities.">
<polygon fill="white" stroke="#666666" points="155,-74 89,-74 89,-55 155,-55 155,-74"/>
<text text-anchor="middle" x="122" y="-62" font-family="Helvetica,sans-Serif" font-size="10.00">utilities.hpp</text>
</a>
</g>
</g>
<!-- Node2&#45;&gt;Node5 -->
<g id="edge4" class="edge">
<title>Node2&#45;&gt;Node5</title>
<path fill="none" stroke="#63b8ff" d="M61.38,-109.51C72.15,-101.7 87.97,-90.21 100.75,-80.93"/>
<polygon fill="#63b8ff" stroke="#63b8ff" points="102.54,-83.95 108.57,-75.25 98.43,-78.29 102.54,-83.95"/>
</g>
<!-- Node5&#45;&gt;Node3 -->
<g id="edge5" class="edge">
<title>Node5&#45;&gt;Node3</title>
<path fill="none" stroke="#63b8ff" d="M106.05,-54.51C91.65,-46.39 70.21,-34.3 53.44,-24.85"/>
<polygon fill="#63b8ff" stroke="#63b8ff" points="55.46,-21.96 45.03,-20.1 52.02,-28.06 55.46,-21.96"/>
</g>
<!-- Node6 -->
<g id="node6" class="node">
<title>Node6</title>
<g id="a_node6"><a xlink:title=" ">
<polygon fill="#e0e0e0" stroke="#999999" points="149,-19 95,-19 95,0 149,0 149,-19"/>
<text text-anchor="middle" x="122" y="-7" font-family="Helvetica,sans-Serif" font-size="10.00">iostream</text>
</a>
</g>
</g>
<!-- Node5&#45;&gt;Node6 -->
<g id="edge6" class="edge">
<title>Node5&#45;&gt;Node6</title>
<path fill="none" stroke="#63b8ff" d="M122,-54.75C122,-48.27 122,-39.16 122,-30.9"/>
<polygon fill="#63b8ff" stroke="#63b8ff" points="125.5,-30.96 122,-20.96 118.5,-30.96 125.5,-30.96"/>
</g>
</g>
</svg>
