<?xml version="1.0" encoding="UTF-8" standalone="no"?>
<!DOCTYPE svg PUBLIC "-//W3C//DTD SVG 1.1//EN"
 "http://www.w3.org/Graphics/SVG/1.1/DTD/svg11.dtd">
<!-- Generated by graphviz version 7.0.4 (20221203.1631)
 -->
<!-- Title: include/gameEvents.hpp Pages: 1 -->
<svg width="1034pt" height="357pt"
 viewBox="0.00 0.00 1033.92 357.00" xmlns="http://www.w3.org/2000/svg" xmlns:xlink="http://www.w3.org/1999/xlink">
<g id="graph0" class="graph" transform="scale(1 1) rotate(0) translate(4 353)">
<title>include/gameEvents.hpp</title>
<!-- Node1 -->
<g id="node1" class="node">
<title>Node1</title>
<g id="a_node1"><a xlink:title="Classe principal com a lógica de gameEvents.">
<polygon fill="#999999" stroke="#666666" points="511.92,-349 389.92,-349 389.92,-330 511.92,-330 511.92,-349"/>
<text text-anchor="middle" x="450.92" y="-337" font-family="Helvetica,sans-Serif" font-size="10.00">include/gameEvents.hpp</text>
</a>
</g>
</g>
<!-- Node2 -->
<g id="node2" class="node">
<title>Node2</title>
<g id="a_node2"><a xlink:title=" ">
<polygon fill="#e0e0e0" stroke="#999999" points="598.92,-19 544.92,-19 544.92,0 598.92,0 598.92,-19"/>
<text text-anchor="middle" x="571.92" y="-7" font-family="Helvetica,sans-Serif" font-size="10.00">iostream</text>
</a>
</g>
</g>
<!-- Node1&#45;&gt;Node2 -->
<g id="edge1" class="edge">
<title>Node1&#45;&gt;Node2</title>
<path fill="none" stroke="#63b8ff" d="M512.17,-339.46C599.87,-339.28 765.46,-333.07 899.92,-294 960.14,-276.5 1025.92,-293.21 1025.92,-230.5 1025.92,-230.5 1025.92,-230.5 1025.92,-118.5 1025.92,-33.39 720.15,-15.24 610.48,-11.46"/>
<polygon fill="#63b8ff" stroke="#63b8ff" points="610.92,-7.98 600.81,-11.15 610.7,-14.97 610.92,-7.98"/>
</g>
<!-- Node3 -->
<g id="node3" class="node">
<title>Node3</title>
<g id="a_node3"><a xlink:title=" ">
<polygon fill="#e0e0e0" stroke="#999999" points="78.92,-294 28.92,-294 28.92,-275 78.92,-275 78.92,-294"/>
<text text-anchor="middle" x="53.92" y="-282" font-family="Helvetica,sans-Serif" font-size="10.00">iomanip</text>
</a>
</g>
</g>
<!-- Node1&#45;&gt;Node3 -->
<g id="edge2" class="edge">
<title>Node1&#45;&gt;Node3</title>
<path fill="none" stroke="#63b8ff" d="M389.55,-332.59C318.05,-325.3 196.49,-311.68 92.92,-294 91.94,-293.83 90.94,-293.66 89.93,-293.47"/>
<polygon fill="#63b8ff" stroke="#63b8ff" points="91.01,-290.12 80.52,-291.62 89.65,-296.98 91.01,-290.12"/>
</g>
<!-- Node4 -->
<g id="node4" class="node">
<title>Node4</title>
<g id="a_node4"><a xlink:title=" ">
<polygon fill="#e0e0e0" stroke="#999999" points="256.42,-19 215.42,-19 215.42,0 256.42,0 256.42,-19"/>
<text text-anchor="middle" x="235.92" y="-7" font-family="Helvetica,sans-Serif" font-size="10.00">string</text>
</a>
</g>
</g>
<!-- Node1&#45;&gt;Node4 -->
<g id="edge3" class="edge">
<title>Node1&#45;&gt;Node4</title>
<path fill="none" stroke="#63b8ff" d="M389.67,-335.91C277.46,-330.61 47.81,-317.08 19.92,-294 -2.77,-275.22 0.92,-259.96 0.92,-230.5 0.92,-230.5 0.92,-230.5 0.92,-118.5 0.92,-30.34 139.16,-13.88 203.59,-11"/>
<polygon fill="#63b8ff" stroke="#63b8ff" points="203.68,-14.5 213.56,-10.65 203.44,-7.5 203.68,-14.5"/>
</g>
<!-- Node5 -->
<g id="node5" class="node">
<title>Node5</title>
<g id="a_node5"><a xlink:title=" ">
<polygon fill="#e0e0e0" stroke="#999999" points="837.42,-74 802.42,-74 802.42,-55 837.42,-55 837.42,-74"/>
<text text-anchor="middle" x="819.92" y="-62" font-family="Helvetica,sans-Serif" font-size="10.00">map</text>
</a>
</g>
</g>
<!-- Node1&#45;&gt;Node5 -->
<g id="edge4" class="edge">
<title>Node1&#45;&gt;Node5</title>
<path fill="none" stroke="#63b8ff" d="M512.07,-335.08C609.72,-329.06 796.23,-315.2 858.92,-294 903.69,-278.86 926.71,-280.16 949.92,-239 985.67,-175.62 893.3,-109.03 845.92,-80.21"/>
<polygon fill="#63b8ff" stroke="#63b8ff" points="847.97,-77.36 837.59,-75.27 844.4,-83.38 847.97,-77.36"/>
</g>
<!-- Node6 -->
<g id="node6" class="node">
<title>Node6</title>
<g id="a_node6"><a xlink:title=" ">
<polygon fill="#e0e0e0" stroke="#999999" points="267.42,-294 218.42,-294 218.42,-275 267.42,-275 267.42,-294"/>
<text text-anchor="middle" x="242.92" y="-282" font-family="Helvetica,sans-Serif" font-size="10.00">random</text>
</a>
</g>
</g>
<!-- Node1&#45;&gt;Node6 -->
<g id="edge5" class="edge">
<title>Node1&#45;&gt;Node6</title>
<path fill="none" stroke="#63b8ff" d="M415.64,-329.51C377.61,-319.82 317.41,-304.48 279.06,-294.71"/>
<polygon fill="#63b8ff" stroke="#63b8ff" points="279.93,-291.32 269.37,-292.24 278.2,-298.1 279.93,-291.32"/>
</g>
<!-- Node7 -->
<g id="node7" class="node">
<title>Node7</title>
<g id="a_node7"><a xlink:title=" ">
<polygon fill="#e0e0e0" stroke="#999999" points="130.92,-184 86.92,-184 86.92,-165 130.92,-165 130.92,-184"/>
<text text-anchor="middle" x="108.92" y="-172" font-family="Helvetica,sans-Serif" font-size="10.00">cmath</text>
</a>
</g>
</g>
<!-- Node1&#45;&gt;Node7 -->
<g id="edge6" class="edge">
<title>Node1&#45;&gt;Node7</title>
<path fill="none" stroke="#63b8ff" d="M389.51,-338.58C305.76,-337.33 161.98,-329.83 125.92,-294 100.08,-268.32 101.66,-222.24 105.22,-195.74"/>
<polygon fill="#63b8ff" stroke="#63b8ff" points="108.66,-196.4 106.78,-185.98 101.75,-195.3 108.66,-196.4"/>
</g>
<!-- Node8 -->
<g id="node8" class="node">
<title>Node8</title>
<g id="a_node8"><a xlink:title=" ">
<polygon fill="#e0e0e0" stroke="#999999" points="367.92,-294 323.92,-294 323.92,-275 367.92,-275 367.92,-294"/>
<text text-anchor="middle" x="345.92" y="-282" font-family="Helvetica,sans-Serif" font-size="10.00">time.h</text>
</a>
</g>
</g>
<!-- Node1&#45;&gt;Node8 -->
<g id="edge7" class="edge">
<title>Node1&#45;&gt;Node8</title>
<path fill="none" stroke="#63b8ff" d="M433.11,-329.51C416.8,-321.27 392.39,-308.96 373.55,-299.45"/>
<polygon fill="#63b8ff" stroke="#63b8ff" points="375.33,-296.42 364.82,-295.04 372.17,-302.67 375.33,-296.42"/>
</g>
<!-- Node9 -->
<g id="node9" class="node">
<title>Node9</title>
<g id="a_node9"><a xlink:href="playable_character_8hpp.html" target="_top" xlink:title="Classe principal com a lógica de playableCharacter.">
<polygon fill="white" stroke="#666666" points="453.42,-239 340.42,-239 340.42,-220 453.42,-220 453.42,-239"/>
<text text-anchor="middle" x="396.92" y="-227" font-family="Helvetica,sans-Serif" font-size="10.00">playableCharacter.hpp</text>
</a>
</g>
</g>
<!-- Node1&#45;&gt;Node9 -->
<g id="edge8" class="edge">
<title>Node1&#45;&gt;Node9</title>
<path fill="none" stroke="#63b8ff" d="M465.14,-329.62C482.73,-317.49 508.84,-294.97 495.92,-275 486.23,-260.01 470.15,-250.02 453.74,-243.38"/>
<polygon fill="#63b8ff" stroke="#63b8ff" points="454.99,-240.11 444.39,-240 452.6,-246.69 454.99,-240.11"/>
</g>
<!-- Node11 -->
<g id="node11" class="node">
<title>Node11</title>
<g id="a_node11"><a xlink:href="weapon_8hpp.html" target="_top" xlink:title="Classe principal responsavel pela lógica de weapon.">
<polygon fill="white" stroke="#666666" points="607.92,-184 539.92,-184 539.92,-165 607.92,-165 607.92,-184"/>
<text text-anchor="middle" x="573.92" y="-172" font-family="Helvetica,sans-Serif" font-size="10.00">weapon.hpp</text>
</a>
</g>
</g>
<!-- Node1&#45;&gt;Node11 -->
<g id="edge37" class="edge">
<title>Node1&#45;&gt;Node11</title>
<path fill="none" stroke="#63b8ff" d="M467.03,-329.59C480.35,-321.61 499.09,-308.9 511.92,-294 538.24,-263.47 557.37,-219.85 566.97,-194.94"/>
<polygon fill="#63b8ff" stroke="#63b8ff" points="570.17,-196.36 570.37,-185.77 563.61,-193.93 570.17,-196.36"/>
</g>
<!-- Node13 -->
<g id="node13" class="node">
<title>Node13</title>
<g id="a_node13"><a xlink:href="utilities_8hpp.html" target="_top" xlink:title="Classe principal com a lógica de utilities.">
<polygon fill="white" stroke="#666666" points="397.92,-74 331.92,-74 331.92,-55 397.92,-55 397.92,-74"/>
<text text-anchor="middle" x="364.92" y="-62" font-family="Helvetica,sans-Serif" font-size="10.00">utilities.hpp</text>
</a>
</g>
</g>
<!-- Node1&#45;&gt;Node13 -->
<g id="edge39" class="edge">
<title>Node1&#45;&gt;Node13</title>
<path fill="none" stroke="#63b8ff" d="M456.46,-329.72C464.02,-316.48 475.32,-291.23 462.92,-275 426.01,-226.67 367.83,-287.33 330.92,-239 295.11,-192.12 332.24,-117.83 352.97,-83.72"/>
<polygon fill="#63b8ff" stroke="#63b8ff" points="355.83,-85.75 358.2,-75.42 349.91,-82.01 355.83,-85.75"/>
</g>
<!-- Node14 -->
<g id="node14" class="node">
<title>Node14</title>
<g id="a_node14"><a xlink:href="item_8hpp.html" target="_top" xlink:title="Classe principal com a lógica dos itens.">
<polygon fill="white" stroke="#666666" points="697.92,-129 643.92,-129 643.92,-110 697.92,-110 697.92,-129"/>
<text text-anchor="middle" x="670.92" y="-117" font-family="Helvetica,sans-Serif" font-size="10.00">item.hpp</text>
</a>
</g>
</g>
<!-- Node1&#45;&gt;Node14 -->
<g id="edge38" class="edge">
<title>Node1&#45;&gt;Node14</title>
<path fill="none" stroke="#63b8ff" d="M512.37,-335.31C630.07,-327.76 880.16,-304.23 930.92,-239 992.32,-160.11 795.94,-131.99 709.58,-123.6"/>
<polygon fill="#63b8ff" stroke="#63b8ff" points="709.95,-120.12 699.67,-122.68 709.3,-127.09 709.95,-120.12"/>
</g>
<!-- Node16 -->
<g id="node16" class="node">
<title>Node16</title>
<g id="a_node16"><a xlink:href="monster_8hpp.html" target="_top" xlink:title="Classe principal com a lógica de monster.">
<polygon fill="white" stroke="#666666" points="207.42,-239 136.42,-239 136.42,-220 207.42,-220 207.42,-239"/>
<text text-anchor="middle" x="171.92" y="-227" font-family="Helvetica,sans-Serif" font-size="10.00">monster.hpp</text>
</a>
</g>
</g>
<!-- Node1&#45;&gt;Node16 -->
<g id="edge28" class="edge">
<title>Node1&#45;&gt;Node16</title>
<path fill="none" stroke="#63b8ff" d="M419.43,-329.53C391.58,-321.29 350.04,-308.22 314.92,-294 297.05,-286.76 293.46,-283.02 275.92,-275 252,-264.06 224.65,-252.39 204,-243.74"/>
<polygon fill="#63b8ff" stroke="#63b8ff" points="205.54,-240.6 194.97,-239.98 202.85,-247.06 205.54,-240.6"/>
</g>
<!-- Node17 -->
<g id="node17" class="node">
<title>Node17</title>
<g id="a_node17"><a xlink:href="enemy_8hpp.html" target="_top" xlink:title="Classe principal com a lógica de enemy.">
<polygon fill="white" stroke="#666666" points="200.42,-294 135.42,-294 135.42,-275 200.42,-275 200.42,-294"/>
<text text-anchor="middle" x="167.92" y="-282" font-family="Helvetica,sans-Serif" font-size="10.00">enemy.hpp</text>
</a>
</g>
</g>
<!-- Node1&#45;&gt;Node17 -->
<g id="edge32" class="edge">
<title>Node1&#45;&gt;Node17</title>
<path fill="none" stroke="#63b8ff" d="M400.34,-329.54C353.73,-321.21 282.35,-308.26 211.49,-294.47"/>
<polygon fill="#63b8ff" stroke="#63b8ff" points="212.55,-291.11 202.07,-292.63 211.21,-297.98 212.55,-291.11"/>
</g>
<!-- Node18 -->
<g id="node18" class="node">
<title>Node18</title>
<g id="a_node18"><a xlink:href="vampire_8hpp.html" target="_top" xlink:title=" ">
<polygon fill="white" stroke="#666666" points="453.92,-294 385.92,-294 385.92,-275 453.92,-275 453.92,-294"/>
<text text-anchor="middle" x="419.92" y="-282" font-family="Helvetica,sans-Serif" font-size="10.00">vampire.hpp</text>
</a>
</g>
</g>
<!-- Node1&#45;&gt;Node18 -->
<g id="edge34" class="edge">
<title>Node1&#45;&gt;Node18</title>
<path fill="none" stroke="#63b8ff" d="M445.8,-329.75C441.74,-322.81 435.93,-312.86 430.84,-304.16"/>
<polygon fill="#63b8ff" stroke="#63b8ff" points="433.99,-302.61 425.92,-295.75 427.95,-306.15 433.99,-302.61"/>
</g>
<!-- Node19 -->
<g id="node19" class="node">
<title>Node19</title>
<g id="a_node19"><a xlink:href="inventory_8hpp.html" target="_top" xlink:title="Classe principal com a lógica do inventário.">
<polygon fill="white" stroke="#666666" points="659.92,-294 585.92,-294 585.92,-275 659.92,-275 659.92,-294"/>
<text text-anchor="middle" x="622.92" y="-282" font-family="Helvetica,sans-Serif" font-size="10.00">inventory.hpp</text>
</a>
</g>
</g>
<!-- Node1&#45;&gt;Node19 -->
<g id="edge40" class="edge">
<title>Node1&#45;&gt;Node19</title>
<path fill="none" stroke="#63b8ff" d="M480.1,-329.51C508.48,-320.76 551.8,-307.42 583.29,-297.71"/>
<polygon fill="#63b8ff" stroke="#63b8ff" points="583.92,-301.18 592.44,-294.89 581.86,-294.49 583.92,-301.18"/>
</g>
<!-- Node22 -->
<g id="node22" class="node">
<title>Node22</title>
<g id="a_node22"><a xlink:title=" ">
<polygon fill="#e0e0e0" stroke="#999999" points="921.92,-239 827.92,-239 827.92,-220 921.92,-220 921.92,-239"/>
<text text-anchor="middle" x="874.92" y="-227" font-family="Helvetica,sans-Serif" font-size="10.00">tabulate/table.hpp</text>
</a>
</g>
</g>
<!-- Node1&#45;&gt;Node22 -->
<g id="edge52" class="edge">
<title>Node1&#45;&gt;Node22</title>
<path fill="none" stroke="#63b8ff" d="M501.9,-329.55C546.28,-321.41 612.22,-308.49 668.92,-294 728.75,-278.71 797.02,-256.75 838.01,-243.07"/>
<polygon fill="#63b8ff" stroke="#63b8ff" points="839.01,-246.43 847.38,-239.93 836.79,-239.79 839.01,-246.43"/>
</g>
<!-- Node9&#45;&gt;Node2 -->
<g id="edge9" class="edge">
<title>Node9&#45;&gt;Node2</title>
<path fill="none" stroke="#63b8ff" d="M403.33,-219.79C412.44,-207.47 429.69,-184.32 444.92,-165 484.71,-114.54 533.35,-56.29 557.24,-27.88"/>
<polygon fill="#63b8ff" stroke="#63b8ff" points="559.61,-30.51 563.37,-20.61 554.25,-26 559.61,-30.51"/>
</g>
<!-- Node9&#45;&gt;Node4 -->
<g id="edge10" class="edge">
<title>Node9&#45;&gt;Node4</title>
<path fill="none" stroke="#63b8ff" d="M390.41,-219.68C366.29,-187.02 281.71,-72.5 248.99,-28.19"/>
<polygon fill="#63b8ff" stroke="#63b8ff" points="251.99,-26.37 243.24,-20.4 246.36,-30.53 251.99,-26.37"/>
</g>
<!-- Node10 -->
<g id="node10" class="node">
<title>Node10</title>
<g id="a_node10"><a xlink:title=" ">
<polygon fill="#e0e0e0" stroke="#999999" points="483.42,-184 454.42,-184 454.42,-165 483.42,-165 483.42,-184"/>
<text text-anchor="middle" x="468.92" y="-172" font-family="Helvetica,sans-Serif" font-size="10.00">list</text>
</a>
</g>
</g>
<!-- Node9&#45;&gt;Node10 -->
<g id="edge11" class="edge">
<title>Node9&#45;&gt;Node10</title>
<path fill="none" stroke="#63b8ff" d="M409.14,-219.51C419.75,-211.7 435.36,-200.21 447.97,-190.93"/>
<polygon fill="#63b8ff" stroke="#63b8ff" points="449.69,-194 455.67,-185.26 445.54,-188.36 449.69,-194"/>
</g>
<!-- Node9&#45;&gt;Node11 -->
<g id="edge12" class="edge">
<title>Node9&#45;&gt;Node11</title>
<path fill="none" stroke="#63b8ff" d="M426.95,-219.51C456.15,-210.76 500.73,-197.42 533.14,-187.71"/>
<polygon fill="#63b8ff" stroke="#63b8ff" points="534.02,-191.1 542.6,-184.88 532.01,-184.4 534.02,-191.1"/>
</g>
<!-- Node9&#45;&gt;Node13 -->
<g id="edge27" class="edge">
<title>Node9&#45;&gt;Node13</title>
<path fill="none" stroke="#63b8ff" d="M395.2,-219.74C390.23,-194.42 375.76,-120.72 368.78,-85.16"/>
<polygon fill="#63b8ff" stroke="#63b8ff" points="372.3,-84.93 366.94,-75.79 365.44,-86.28 372.3,-84.93"/>
</g>
<!-- Node11&#45;&gt;Node2 -->
<g id="edge15" class="edge">
<title>Node11&#45;&gt;Node2</title>
<path fill="none" stroke="#63b8ff" d="M573.82,-164.74C573.51,-139.53 572.61,-66.36 572.17,-30.62"/>
<polygon fill="#63b8ff" stroke="#63b8ff" points="575.67,-30.78 572.05,-20.82 568.67,-30.86 575.67,-30.78"/>
</g>
<!-- Node11&#45;&gt;Node4 -->
<g id="edge13" class="edge">
<title>Node11&#45;&gt;Node4</title>
<path fill="none" stroke="#63b8ff" d="M566.03,-164.51C554.26,-151.44 531.01,-126.92 507.92,-110 466.69,-79.79 454.45,-73.8 406.92,-55 359.89,-36.4 302.52,-23.3 267.63,-16.33"/>
<polygon fill="#63b8ff" stroke="#63b8ff" points="268.67,-12.97 258.19,-14.49 267.34,-19.84 268.67,-12.97"/>
</g>
<!-- Node11&#45;&gt;Node5 -->
<g id="edge14" class="edge">
<title>Node11&#45;&gt;Node5</title>
<path fill="none" stroke="#63b8ff" d="M606.28,-164.55C633.61,-156.54 673.54,-143.81 706.92,-129 739.07,-114.74 774.07,-94.23 796.47,-80.42"/>
<polygon fill="#63b8ff" stroke="#63b8ff" points="798.18,-83.47 804.81,-75.21 794.48,-77.53 798.18,-83.47"/>
</g>
<!-- Node12 -->
<g id="node12" class="node">
<title>Node12</title>
<g id="a_node12"><a xlink:title=" ">
<polygon fill="#e0e0e0" stroke="#999999" points="647.42,-74 600.42,-74 600.42,-55 647.42,-55 647.42,-74"/>
<text text-anchor="middle" x="623.92" y="-62" font-family="Helvetica,sans-Serif" font-size="10.00">iterator</text>
</a>
</g>
</g>
<!-- Node11&#45;&gt;Node12 -->
<g id="edge16" class="edge">
<title>Node11&#45;&gt;Node12</title>
<path fill="none" stroke="#63b8ff" d="M578.01,-164.66C586.07,-147.26 604.16,-108.19 615.07,-84.62"/>
<polygon fill="#63b8ff" stroke="#63b8ff" points="618.11,-86.38 619.14,-75.83 611.76,-83.44 618.11,-86.38"/>
</g>
<!-- Node11&#45;&gt;Node13 -->
<g id="edge17" class="edge">
<title>Node11&#45;&gt;Node13</title>
<path fill="none" stroke="#63b8ff" d="M562.29,-164.64C544.71,-151.53 510.01,-126.69 477.92,-110 453.76,-97.43 425.21,-86.21 402.86,-78.19"/>
<polygon fill="#63b8ff" stroke="#63b8ff" points="404.13,-74.92 393.53,-74.9 401.8,-81.53 404.13,-74.92"/>
</g>
<!-- Node11&#45;&gt;Node14 -->
<g id="edge20" class="edge">
<title>Node11&#45;&gt;Node14</title>
<path fill="none" stroke="#63b8ff" d="M590.38,-164.51C605.24,-156.39 627.36,-144.3 644.67,-134.85"/>
<polygon fill="#63b8ff" stroke="#63b8ff" points="646.29,-137.95 653.38,-130.08 642.93,-131.81 646.29,-137.95"/>
</g>
<!-- Node13&#45;&gt;Node2 -->
<g id="edge19" class="edge">
<title>Node13&#45;&gt;Node2</title>
<path fill="none" stroke="#63b8ff" d="M398.18,-54.98C435.21,-45.5 494.95,-30.21 533.83,-20.25"/>
<polygon fill="#63b8ff" stroke="#63b8ff" points="534.41,-23.72 543.23,-17.85 532.67,-16.94 534.41,-23.72"/>
</g>
<!-- Node13&#45;&gt;Node4 -->
<g id="edge18" class="edge">
<title>Node13&#45;&gt;Node4</title>
<path fill="none" stroke="#63b8ff" d="M343.04,-54.51C322.19,-45.94 290.58,-32.96 267.1,-23.31"/>
<polygon fill="#63b8ff" stroke="#63b8ff" points="268.61,-20.15 258.03,-19.58 265.95,-26.62 268.61,-20.15"/>
</g>
<!-- Node14&#45;&gt;Node2 -->
<g id="edge22" class="edge">
<title>Node14&#45;&gt;Node2</title>
<path fill="none" stroke="#63b8ff" d="M698.4,-110.46C729.76,-99.89 774.35,-79.72 754.92,-55 737.33,-32.62 658.99,-20.09 610.69,-14.37"/>
<polygon fill="#63b8ff" stroke="#63b8ff" points="611.24,-10.91 600.91,-13.27 610.46,-17.87 611.24,-10.91"/>
</g>
<!-- Node14&#45;&gt;Node4 -->
<g id="edge23" class="edge">
<title>Node14&#45;&gt;Node4</title>
<path fill="none" stroke="#63b8ff" d="M671.9,-109.54C672.87,-95.59 672.41,-68.85 656.92,-55 628.05,-29.19 361.36,-15.72 268.01,-11.76"/>
<polygon fill="#63b8ff" stroke="#63b8ff" points="268.42,-8.27 258.28,-11.36 268.13,-15.27 268.42,-8.27"/>
</g>
<!-- Node14&#45;&gt;Node5 -->
<g id="edge24" class="edge">
<title>Node14&#45;&gt;Node5</title>
<path fill="none" stroke="#63b8ff" d="M696.2,-109.51C722.62,-100.11 763.98,-85.4 791.51,-75.61"/>
<polygon fill="#63b8ff" stroke="#63b8ff" points="792.35,-79.02 800.6,-72.37 790.01,-72.43 792.35,-79.02"/>
</g>
<!-- Node14&#45;&gt;Node12 -->
<g id="edge25" class="edge">
<title>Node14&#45;&gt;Node12</title>
<path fill="none" stroke="#63b8ff" d="M663.16,-109.75C656.74,-102.5 647.41,-91.98 639.46,-83.02"/>
<polygon fill="#63b8ff" stroke="#63b8ff" points="642.11,-80.73 632.86,-75.57 636.87,-85.38 642.11,-80.73"/>
</g>
<!-- Node14&#45;&gt;Node13 -->
<g id="edge26" class="edge">
<title>Node14&#45;&gt;Node13</title>
<path fill="none" stroke="#63b8ff" d="M643.5,-113.75C590.5,-104.57 473.57,-84.32 409.34,-73.19"/>
<polygon fill="#63b8ff" stroke="#63b8ff" points="410.31,-69.81 399.86,-71.55 409.11,-76.71 410.31,-69.81"/>
</g>
<!-- Node15 -->
<g id="node15" class="node">
<title>Node15</title>
<g id="a_node15"><a xlink:title=" ">
<polygon fill="#e0e0e0" stroke="#999999" points="745.92,-74 703.92,-74 703.92,-55 745.92,-55 745.92,-74"/>
<text text-anchor="middle" x="724.92" y="-62" font-family="Helvetica,sans-Serif" font-size="10.00">vector</text>
</a>
</g>
</g>
<!-- Node14&#45;&gt;Node15 -->
<g id="edge21" class="edge">
<title>Node14&#45;&gt;Node15</title>
<path fill="none" stroke="#63b8ff" d="M679.84,-109.75C687.38,-102.35 698.39,-91.54 707.65,-82.45"/>
<polygon fill="#63b8ff" stroke="#63b8ff" points="710.05,-85 714.73,-75.5 705.14,-80.01 710.05,-85"/>
</g>
<!-- Node16&#45;&gt;Node4 -->
<g id="edge29" class="edge">
<title>Node16&#45;&gt;Node4</title>
<path fill="none" stroke="#63b8ff" d="M170.25,-219.58C165.71,-192.87 155.3,-111.91 183.92,-55 189.91,-43.09 200.63,-33.08 210.79,-25.58"/>
<polygon fill="#63b8ff" stroke="#63b8ff" points="212.64,-28.56 218.93,-20.04 208.7,-22.77 212.64,-28.56"/>
</g>
<!-- Node16&#45;&gt;Node7 -->
<g id="edge30" class="edge">
<title>Node16&#45;&gt;Node7</title>
<path fill="none" stroke="#63b8ff" d="M161.24,-219.51C152.22,-211.93 139.09,-200.88 128.24,-191.75"/>
<polygon fill="#63b8ff" stroke="#63b8ff" points="130.52,-189.09 120.61,-185.33 126.01,-194.45 130.52,-189.09"/>
</g>
<!-- Node16&#45;&gt;Node13 -->
<g id="edge31" class="edge">
<title>Node16&#45;&gt;Node13</title>
<path fill="none" stroke="#63b8ff" d="M182.57,-219.5C213.89,-193.06 305.95,-115.31 345.97,-81.5"/>
<polygon fill="#63b8ff" stroke="#63b8ff" points="348,-84.37 353.38,-75.25 343.49,-79.02 348,-84.37"/>
</g>
<!-- Node17&#45;&gt;Node16 -->
<g id="edge33" class="edge">
<title>Node17&#45;&gt;Node16</title>
<path fill="none" stroke="#63b8ff" d="M168.58,-274.75C169.07,-268.27 169.76,-259.16 170.38,-250.9"/>
<polygon fill="#63b8ff" stroke="#63b8ff" points="173.87,-251.19 171.13,-240.95 166.89,-250.66 173.87,-251.19"/>
</g>
<!-- Node18&#45;&gt;Node2 -->
<g id="edge36" class="edge">
<title>Node18&#45;&gt;Node2</title>
<path fill="none" stroke="#63b8ff" d="M390.96,-274.54C364.08,-265.61 326.91,-251.46 317.92,-239 294.04,-205.91 318.22,-60.13 322.92,-55 350.67,-24.75 470.69,-14.95 533.41,-11.86"/>
<polygon fill="#63b8ff" stroke="#63b8ff" points="533.44,-15.37 543.27,-11.42 533.12,-8.37 533.44,-15.37"/>
</g>
<!-- Node18&#45;&gt;Node16 -->
<g id="edge35" class="edge">
<title>Node18&#45;&gt;Node16</title>
<path fill="none" stroke="#63b8ff" d="M385.44,-276.13C342.07,-266.86 267.41,-250.91 218.86,-240.53"/>
<polygon fill="#63b8ff" stroke="#63b8ff" points="219.71,-237.13 209.2,-238.47 218.25,-243.98 219.71,-237.13"/>
</g>
<!-- Node19&#45;&gt;Node2 -->
<g id="edge41" class="edge">
<title>Node19&#45;&gt;Node2</title>
<path fill="none" stroke="#63b8ff" d="M660.23,-274.83C704.02,-264.36 771.84,-247.17 780.92,-239 845.52,-180.91 903.24,-121.16 846.92,-55 816.99,-19.84 678.71,-12.37 610.37,-10.85"/>
<polygon fill="#63b8ff" stroke="#63b8ff" points="610.82,-7.36 600.76,-10.67 610.69,-14.36 610.82,-7.36"/>
</g>
<!-- Node19&#45;&gt;Node4 -->
<g id="edge42" class="edge">
<title>Node19&#45;&gt;Node4</title>
<path fill="none" stroke="#63b8ff" d="M585.65,-282.28C516.07,-279.3 369.89,-269.5 330.92,-239 263.18,-185.98 243.29,-76.11 237.84,-30.76"/>
<polygon fill="#63b8ff" stroke="#63b8ff" points="241.32,-30.4 236.78,-20.83 234.36,-31.15 241.32,-30.4"/>
</g>
<!-- Node19&#45;&gt;Node5 -->
<g id="edge47" class="edge">
<title>Node19&#45;&gt;Node5</title>
<path fill="none" stroke="#63b8ff" d="M628.76,-274.67C634.65,-265.72 644,-251.45 651.92,-239 672.72,-206.33 672.35,-194.08 697.92,-165 706.38,-155.38 767.89,-106.48 800.21,-81"/>
<polygon fill="#63b8ff" stroke="#63b8ff" points="801.96,-84.07 807.65,-75.13 797.63,-78.57 801.96,-84.07"/>
</g>
<!-- Node19&#45;&gt;Node9 -->
<g id="edge50" class="edge">
<title>Node19&#45;&gt;Node9</title>
<path fill="none" stroke="#63b8ff" d="M585.6,-274.75C547.48,-265.81 488.07,-251.88 446.12,-242.04"/>
<polygon fill="#63b8ff" stroke="#63b8ff" points="447.06,-238.66 436.53,-239.79 445.46,-245.48 447.06,-238.66"/>
</g>
<!-- Node19&#45;&gt;Node10 -->
<g id="edge43" class="edge">
<title>Node19&#45;&gt;Node10</title>
<path fill="none" stroke="#63b8ff" d="M585.57,-276.15C560.77,-269.73 528.71,-258.33 505.92,-239 491.93,-227.14 481.99,-208.58 475.96,-194.58"/>
<polygon fill="#63b8ff" stroke="#63b8ff" points="479.31,-193.55 472.37,-185.55 472.81,-196.13 479.31,-193.55"/>
</g>
<!-- Node19&#45;&gt;Node11 -->
<g id="edge44" class="edge">
<title>Node19&#45;&gt;Node11</title>
<path fill="none" stroke="#63b8ff" d="M618.91,-274.66C611.02,-257.26 593.29,-218.19 582.6,-194.62"/>
<polygon fill="#63b8ff" stroke="#63b8ff" points="585.93,-193.5 578.61,-185.84 579.56,-196.39 585.93,-193.5"/>
</g>
<!-- Node19&#45;&gt;Node13 -->
<g id="edge45" class="edge">
<title>Node19&#45;&gt;Node13</title>
<path fill="none" stroke="#63b8ff" d="M613.59,-274.64C592.4,-254.61 538.84,-204.51 491.92,-165 455.42,-134.26 411.25,-100.36 385.79,-81.13"/>
<polygon fill="#63b8ff" stroke="#63b8ff" points="388,-78.41 377.91,-75.2 383.79,-84.01 388,-78.41"/>
</g>
<!-- Node19&#45;&gt;Node14 -->
<g id="edge46" class="edge">
<title>Node19&#45;&gt;Node14</title>
<path fill="none" stroke="#63b8ff" d="M625.5,-274.74C632.96,-249.42 654.66,-175.72 665.13,-140.16"/>
<polygon fill="#63b8ff" stroke="#63b8ff" points="668.43,-141.34 667.9,-130.76 661.72,-139.36 668.43,-141.34"/>
</g>
<!-- Node20 -->
<g id="node20" class="node">
<title>Node20</title>
<g id="a_node20"><a xlink:href="excecao_8hpp.html" target="_top" xlink:title=" ">
<polygon fill="white" stroke="#666666" points="771.92,-239 699.92,-239 699.92,-220 771.92,-220 771.92,-239"/>
<text text-anchor="middle" x="735.92" y="-227" font-family="Helvetica,sans-Serif" font-size="10.00">excecao.hpp</text>
</a>
</g>
</g>
<!-- Node19&#45;&gt;Node20 -->
<g id="edge48" class="edge">
<title>Node19&#45;&gt;Node20</title>
<path fill="none" stroke="#63b8ff" d="M642.09,-274.51C659.81,-266.2 686.4,-253.73 706.75,-244.18"/>
<polygon fill="#63b8ff" stroke="#63b8ff" points="708.1,-247.42 715.67,-240 705.13,-241.08 708.1,-247.42"/>
</g>
<!-- Node19&#45;&gt;Node22 -->
<g id="edge51" class="edge">
<title>Node19&#45;&gt;Node22</title>
<path fill="none" stroke="#63b8ff" d="M660.38,-275.62C702.9,-266.68 772.63,-252.01 821,-241.84"/>
<polygon fill="#63b8ff" stroke="#63b8ff" points="821.65,-245.28 830.72,-239.8 820.21,-238.43 821.65,-245.28"/>
</g>
<!-- Node21 -->
<g id="node21" class="node">
<title>Node21</title>
<g id="a_node21"><a xlink:title=" ">
<polygon fill="#e0e0e0" stroke="#999999" points="765.42,-184 706.42,-184 706.42,-165 765.42,-165 765.42,-184"/>
<text text-anchor="middle" x="735.92" y="-172" font-family="Helvetica,sans-Serif" font-size="10.00">exception</text>
</a>
</g>
</g>
<!-- Node20&#45;&gt;Node21 -->
<g id="edge49" class="edge">
<title>Node20&#45;&gt;Node21</title>
<path fill="none" stroke="#63b8ff" d="M735.92,-219.75C735.92,-213.27 735.92,-204.16 735.92,-195.9"/>
<polygon fill="#63b8ff" stroke="#63b8ff" points="739.42,-195.96 735.92,-185.96 732.42,-195.96 739.42,-195.96"/>
</g>
</g>
</svg>
