<?xml version="1.0" encoding="UTF-8" standalone="no"?>
<!DOCTYPE svg PUBLIC "-//W3C//DTD SVG 1.1//EN"
 "http://www.w3.org/Graphics/SVG/1.1/DTD/svg11.dtd">
<!-- Generated by graphviz version 7.0.4 (20221203.1631)
 -->
<!-- Title: src/inventory.cpp Pages: 1 -->
<svg width="762pt" height="357pt"
 viewBox="0.00 0.00 762.00 357.00" xmlns="http://www.w3.org/2000/svg" xmlns:xlink="http://www.w3.org/1999/xlink">
<g id="graph0" class="graph" transform="scale(1 1) rotate(0) translate(4 353)">
<title>src/inventory.cpp</title>
<!-- Node1 -->
<g id="node1" class="node">
<title>Node1</title>
<g id="a_node1"><a xlink:title=" ">
<polygon fill="#999999" stroke="#666666" points="437,-349 347,-349 347,-330 437,-330 437,-349"/>
<text text-anchor="middle" x="392" y="-337" font-family="Helvetica,sans-Serif" font-size="10.00">src/inventory.cpp</text>
</a>
</g>
</g>
<!-- Node2 -->
<g id="node2" class="node">
<title>Node2</title>
<g id="a_node2"><a xlink:href="inventory_8hpp.html" target="_top" xlink:title="Classe principal com a lógica do inventário.">
<polygon fill="white" stroke="#666666" points="429,-294 355,-294 355,-275 429,-275 429,-294"/>
<text text-anchor="middle" x="392" y="-282" font-family="Helvetica,sans-Serif" font-size="10.00">inventory.hpp</text>
</a>
</g>
</g>
<!-- Node1&#45;&gt;Node2 -->
<g id="edge1" class="edge">
<title>Node1&#45;&gt;Node2</title>
<path fill="none" stroke="#63b8ff" d="M392,-329.75C392,-323.27 392,-314.16 392,-305.9"/>
<polygon fill="#63b8ff" stroke="#63b8ff" points="395.5,-305.96 392,-295.96 388.5,-305.96 395.5,-305.96"/>
</g>
<!-- Node3 -->
<g id="node3" class="node">
<title>Node3</title>
<g id="a_node3"><a xlink:title=" ">
<polygon fill="#e0e0e0" stroke="#999999" points="132,-19 78,-19 78,0 132,0 132,-19"/>
<text text-anchor="middle" x="105" y="-7" font-family="Helvetica,sans-Serif" font-size="10.00">iostream</text>
</a>
</g>
</g>
<!-- Node2&#45;&gt;Node3 -->
<g id="edge2" class="edge">
<title>Node2&#45;&gt;Node3</title>
<path fill="none" stroke="#63b8ff" d="M354.77,-281.2C256.92,-274.14 0,-248.65 0,-175.5 0,-175.5 0,-175.5 0,-118.5 0,-74.8 44.74,-42.13 75.81,-24.71"/>
<polygon fill="#63b8ff" stroke="#63b8ff" points="77.24,-27.92 84.41,-20.11 73.94,-21.75 77.24,-27.92"/>
</g>
<!-- Node4 -->
<g id="node4" class="node">
<title>Node4</title>
<g id="a_node4"><a xlink:title=" ">
<polygon fill="#e0e0e0" stroke="#999999" points="502.5,-19 461.5,-19 461.5,0 502.5,0 502.5,-19"/>
<text text-anchor="middle" x="482" y="-7" font-family="Helvetica,sans-Serif" font-size="10.00">string</text>
</a>
</g>
</g>
<!-- Node2&#45;&gt;Node4 -->
<g id="edge3" class="edge">
<title>Node2&#45;&gt;Node4</title>
<path fill="none" stroke="#63b8ff" d="M429.16,-279.43C481.55,-273.06 573.69,-259.31 600,-239 625.02,-219.69 632,-207.1 632,-175.5 632,-175.5 632,-175.5 632,-118.5 632,-60.76 557.91,-30.84 513.87,-18.15"/>
<polygon fill="#63b8ff" stroke="#63b8ff" points="514.89,-14.8 504.32,-15.55 513.05,-21.55 514.89,-14.8"/>
</g>
<!-- Node5 -->
<g id="node5" class="node">
<title>Node5</title>
<g id="a_node5"><a xlink:title=" ">
<polygon fill="#e0e0e0" stroke="#999999" points="95.5,-184 66.5,-184 66.5,-165 95.5,-165 95.5,-184"/>
<text text-anchor="middle" x="81" y="-172" font-family="Helvetica,sans-Serif" font-size="10.00">list</text>
</a>
</g>
</g>
<!-- Node2&#45;&gt;Node5 -->
<g id="edge4" class="edge">
<title>Node2&#45;&gt;Node5</title>
<path fill="none" stroke="#63b8ff" d="M366.28,-274.57C307.74,-254.24 165.07,-204.7 106.62,-184.4"/>
<polygon fill="#63b8ff" stroke="#63b8ff" points="107.82,-181.11 97.22,-181.13 105.52,-187.72 107.82,-181.11"/>
</g>
<!-- Node6 -->
<g id="node6" class="node">
<title>Node6</title>
<g id="a_node6"><a xlink:href="weapon_8hpp.html" target="_top" xlink:title="Classe principal responsavel pela lógica de weapon.">
<polygon fill="white" stroke="#666666" points="318,-184 250,-184 250,-165 318,-165 318,-184"/>
<text text-anchor="middle" x="284" y="-172" font-family="Helvetica,sans-Serif" font-size="10.00">weapon.hpp</text>
</a>
</g>
</g>
<!-- Node2&#45;&gt;Node6 -->
<g id="edge5" class="edge">
<title>Node2&#45;&gt;Node6</title>
<path fill="none" stroke="#63b8ff" d="M354.69,-278.5C330.46,-273.11 300.59,-261.97 285,-239 276.37,-226.29 276.84,-208.6 279.06,-195.12"/>
<polygon fill="#63b8ff" stroke="#63b8ff" points="282.41,-196.18 281.06,-185.67 275.57,-194.72 282.41,-196.18"/>
</g>
<!-- Node7 -->
<g id="node7" class="node">
<title>Node7</title>
<g id="a_node7"><a xlink:title=" ">
<polygon fill="#e0e0e0" stroke="#999999" points="168.5,-74 133.5,-74 133.5,-55 168.5,-55 168.5,-74"/>
<text text-anchor="middle" x="151" y="-62" font-family="Helvetica,sans-Serif" font-size="10.00">map</text>
</a>
</g>
</g>
<!-- Node2&#45;&gt;Node7 -->
<g id="edge22" class="edge">
<title>Node2&#45;&gt;Node7</title>
<path fill="none" stroke="#63b8ff" d="M354.77,-278.22C274.98,-266.05 91.92,-233.24 57,-184 29.51,-145.23 87.87,-102.05 124.43,-80.08"/>
<polygon fill="#63b8ff" stroke="#63b8ff" points="125.89,-83.28 132.77,-75.22 122.37,-77.23 125.89,-83.28"/>
</g>
<!-- Node9 -->
<g id="node9" class="node">
<title>Node9</title>
<g id="a_node9"><a xlink:href="utilities_8hpp.html" target="_top" xlink:title="Classe principal com a lógica de utilities.">
<polygon fill="white" stroke="#666666" points="454,-74 388,-74 388,-55 454,-55 454,-74"/>
<text text-anchor="middle" x="421" y="-62" font-family="Helvetica,sans-Serif" font-size="10.00">utilities.hpp</text>
</a>
</g>
</g>
<!-- Node2&#45;&gt;Node9 -->
<g id="edge20" class="edge">
<title>Node2&#45;&gt;Node9</title>
<path fill="none" stroke="#63b8ff" d="M403.36,-274.67C412.78,-266.56 425.5,-253.61 431,-239 450.88,-186.16 436.36,-117.89 427.1,-84.96"/>
<polygon fill="#63b8ff" stroke="#63b8ff" points="430.53,-84.21 424.33,-75.63 423.82,-86.21 430.53,-84.21"/>
</g>
<!-- Node10 -->
<g id="node10" class="node">
<title>Node10</title>
<g id="a_node10"><a xlink:href="item_8hpp.html" target="_top" xlink:title="Classe principal com a lógica dos itens.">
<polygon fill="white" stroke="#666666" points="316,-129 262,-129 262,-110 316,-110 316,-129"/>
<text text-anchor="middle" x="289" y="-117" font-family="Helvetica,sans-Serif" font-size="10.00">item.hpp</text>
</a>
</g>
</g>
<!-- Node2&#45;&gt;Node10 -->
<g id="edge21" class="edge">
<title>Node2&#45;&gt;Node10</title>
<path fill="none" stroke="#63b8ff" d="M399.88,-274.66C409.99,-262.19 425.18,-238.86 416,-220 396.15,-179.23 350.61,-150.23 319.81,-134.42"/>
<polygon fill="#63b8ff" stroke="#63b8ff" points="321.47,-131.34 310.96,-130.05 318.38,-137.61 321.47,-131.34"/>
</g>
<!-- Node12 -->
<g id="node12" class="node">
<title>Node12</title>
<g id="a_node12"><a xlink:href="excecao_8hpp.html" target="_top" xlink:title=" ">
<polygon fill="white" stroke="#666666" points="591,-239 519,-239 519,-220 591,-220 591,-239"/>
<text text-anchor="middle" x="555" y="-227" font-family="Helvetica,sans-Serif" font-size="10.00">excecao.hpp</text>
</a>
</g>
</g>
<!-- Node2&#45;&gt;Node12 -->
<g id="edge23" class="edge">
<title>Node2&#45;&gt;Node12</title>
<path fill="none" stroke="#63b8ff" d="M419.65,-274.51C446.31,-265.84 486.88,-252.65 516.66,-242.97"/>
<polygon fill="#63b8ff" stroke="#63b8ff" points="517.62,-246.33 526.05,-239.91 515.45,-239.68 517.62,-246.33"/>
</g>
<!-- Node14 -->
<g id="node14" class="node">
<title>Node14</title>
<g id="a_node14"><a xlink:href="playable_character_8hpp.html" target="_top" xlink:title="Classe principal com a lógica de playableCharacter.">
<polygon fill="white" stroke="#666666" points="406.5,-239 293.5,-239 293.5,-220 406.5,-220 406.5,-239"/>
<text text-anchor="middle" x="350" y="-227" font-family="Helvetica,sans-Serif" font-size="10.00">playableCharacter.hpp</text>
</a>
</g>
</g>
<!-- Node2&#45;&gt;Node14 -->
<g id="edge25" class="edge">
<title>Node2&#45;&gt;Node14</title>
<path fill="none" stroke="#63b8ff" d="M385.06,-274.75C379.38,-267.58 371.16,-257.2 364.11,-248.3"/>
<polygon fill="#63b8ff" stroke="#63b8ff" points="366.98,-246.29 358.03,-240.63 361.49,-250.64 366.98,-246.29"/>
</g>
<!-- Node15 -->
<g id="node15" class="node">
<title>Node15</title>
<g id="a_node15"><a xlink:title=" ">
<polygon fill="#e0e0e0" stroke="#999999" points="754,-239 660,-239 660,-220 754,-220 754,-239"/>
<text text-anchor="middle" x="707" y="-227" font-family="Helvetica,sans-Serif" font-size="10.00">tabulate/table.hpp</text>
</a>
</g>
</g>
<!-- Node2&#45;&gt;Node15 -->
<g id="edge31" class="edge">
<title>Node2&#45;&gt;Node15</title>
<path fill="none" stroke="#63b8ff" d="M429.37,-277.21C483.56,-268.09 584.47,-251.12 648.56,-240.33"/>
<polygon fill="#63b8ff" stroke="#63b8ff" points="648.91,-243.82 658.19,-238.71 647.75,-236.92 648.91,-243.82"/>
</g>
<!-- Node6&#45;&gt;Node3 -->
<g id="edge8" class="edge">
<title>Node6&#45;&gt;Node3</title>
<path fill="none" stroke="#63b8ff" d="M258.41,-164.59C222.77,-150.83 158.65,-120.99 124,-74 114.58,-61.23 109.8,-43.78 107.39,-30.41"/>
<polygon fill="#63b8ff" stroke="#63b8ff" points="110.86,-30.01 105.95,-20.62 103.94,-31.02 110.86,-30.01"/>
</g>
<!-- Node6&#45;&gt;Node4 -->
<g id="edge6" class="edge">
<title>Node6&#45;&gt;Node4</title>
<path fill="none" stroke="#63b8ff" d="M314.77,-164.53C354.81,-151.29 424.22,-122.66 463,-74 472.89,-61.59 477.64,-44.12 479.92,-30.64"/>
<polygon fill="#63b8ff" stroke="#63b8ff" points="483.38,-31.12 481.23,-20.74 476.44,-30.2 483.38,-31.12"/>
</g>
<!-- Node6&#45;&gt;Node7 -->
<g id="edge7" class="edge">
<title>Node6&#45;&gt;Node7</title>
<path fill="none" stroke="#63b8ff" d="M273.12,-164.66C250.71,-146.47 199.15,-104.6 170.71,-81.51"/>
<polygon fill="#63b8ff" stroke="#63b8ff" points="173.18,-79 163.21,-75.41 168.77,-84.44 173.18,-79"/>
</g>
<!-- Node8 -->
<g id="node8" class="node">
<title>Node8</title>
<g id="a_node8"><a xlink:title=" ">
<polygon fill="#e0e0e0" stroke="#999999" points="233.5,-74 186.5,-74 186.5,-55 233.5,-55 233.5,-74"/>
<text text-anchor="middle" x="210" y="-62" font-family="Helvetica,sans-Serif" font-size="10.00">iterator</text>
</a>
</g>
</g>
<!-- Node6&#45;&gt;Node8 -->
<g id="edge9" class="edge">
<title>Node6&#45;&gt;Node8</title>
<path fill="none" stroke="#63b8ff" d="M277.79,-164.66C271.51,-155.7 261.53,-141.42 253,-129 242.52,-113.74 230.73,-96.32 222.16,-83.59"/>
<polygon fill="#63b8ff" stroke="#63b8ff" points="225.14,-81.75 216.65,-75.41 219.33,-85.66 225.14,-81.75"/>
</g>
<!-- Node6&#45;&gt;Node9 -->
<g id="edge10" class="edge">
<title>Node6&#45;&gt;Node9</title>
<path fill="none" stroke="#63b8ff" d="M295.21,-164.66C318.29,-146.47 371.4,-104.6 400.69,-81.51"/>
<polygon fill="#63b8ff" stroke="#63b8ff" points="402.76,-84.34 408.45,-75.4 398.43,-78.84 402.76,-84.34"/>
</g>
<!-- Node6&#45;&gt;Node10 -->
<g id="edge13" class="edge">
<title>Node6&#45;&gt;Node10</title>
<path fill="none" stroke="#63b8ff" d="M284.83,-164.75C285.44,-158.27 286.3,-149.16 287.08,-140.9"/>
<polygon fill="#63b8ff" stroke="#63b8ff" points="290.56,-141.23 288.01,-130.95 283.59,-140.58 290.56,-141.23"/>
</g>
<!-- Node9&#45;&gt;Node3 -->
<g id="edge12" class="edge">
<title>Node9&#45;&gt;Node3</title>
<path fill="none" stroke="#63b8ff" d="M387.78,-57.93C328.83,-48.04 206.25,-27.48 143.63,-16.98"/>
<polygon fill="#63b8ff" stroke="#63b8ff" points="144.24,-13.53 133.8,-15.33 143.08,-20.44 144.24,-13.53"/>
</g>
<!-- Node9&#45;&gt;Node4 -->
<g id="edge11" class="edge">
<title>Node9&#45;&gt;Node4</title>
<path fill="none" stroke="#63b8ff" d="M431.35,-54.51C440.08,-46.93 452.79,-35.88 463.3,-26.75"/>
<polygon fill="#63b8ff" stroke="#63b8ff" points="465.41,-29.55 470.66,-20.35 460.82,-24.27 465.41,-29.55"/>
</g>
<!-- Node10&#45;&gt;Node3 -->
<g id="edge15" class="edge">
<title>Node10&#45;&gt;Node3</title>
<path fill="none" stroke="#63b8ff" d="M284.8,-109.75C277.8,-96.1 262.48,-69.74 242,-55 212.61,-33.85 172.65,-22.39 143.47,-16.42"/>
<polygon fill="#63b8ff" stroke="#63b8ff" points="144.43,-13.04 133.95,-14.61 143.12,-19.92 144.43,-13.04"/>
</g>
<!-- Node10&#45;&gt;Node4 -->
<g id="edge16" class="edge">
<title>Node10&#45;&gt;Node4</title>
<path fill="none" stroke="#63b8ff" d="M299.87,-109.7C316.32,-96.66 348.81,-71.93 379,-55 402.19,-42 429.92,-30.21 450.77,-22.04"/>
<polygon fill="#63b8ff" stroke="#63b8ff" points="451.79,-25.4 459.86,-18.54 449.27,-18.87 451.79,-25.4"/>
</g>
<!-- Node10&#45;&gt;Node7 -->
<g id="edge17" class="edge">
<title>Node10&#45;&gt;Node7</title>
<path fill="none" stroke="#63b8ff" d="M265.59,-109.51C241.74,-100.35 204.75,-86.14 179.28,-76.36"/>
<polygon fill="#63b8ff" stroke="#63b8ff" points="180.81,-73.2 170.22,-72.88 178.3,-79.73 180.81,-73.2"/>
</g>
<!-- Node10&#45;&gt;Node8 -->
<g id="edge18" class="edge">
<title>Node10&#45;&gt;Node8</title>
<path fill="none" stroke="#63b8ff" d="M275.6,-109.51C263.84,-101.62 246.49,-89.98 232.59,-80.65"/>
<polygon fill="#63b8ff" stroke="#63b8ff" points="234.71,-77.87 224.46,-75.2 230.81,-83.68 234.71,-77.87"/>
</g>
<!-- Node10&#45;&gt;Node9 -->
<g id="edge19" class="edge">
<title>Node10&#45;&gt;Node9</title>
<path fill="none" stroke="#63b8ff" d="M311.39,-109.51C332.57,-101.01 364.59,-88.15 388.56,-78.53"/>
<polygon fill="#63b8ff" stroke="#63b8ff" points="389.56,-81.9 397.53,-74.92 386.95,-75.4 389.56,-81.9"/>
</g>
<!-- Node11 -->
<g id="node11" class="node">
<title>Node11</title>
<g id="a_node11"><a xlink:title=" ">
<polygon fill="#e0e0e0" stroke="#999999" points="332,-74 290,-74 290,-55 332,-55 332,-74"/>
<text text-anchor="middle" x="311" y="-62" font-family="Helvetica,sans-Serif" font-size="10.00">vector</text>
</a>
</g>
</g>
<!-- Node10&#45;&gt;Node11 -->
<g id="edge14" class="edge">
<title>Node10&#45;&gt;Node11</title>
<path fill="none" stroke="#63b8ff" d="M292.63,-109.75C295.42,-103.04 299.37,-93.52 302.9,-85.02"/>
<polygon fill="#63b8ff" stroke="#63b8ff" points="306.11,-86.42 306.71,-75.84 299.64,-83.73 306.11,-86.42"/>
</g>
<!-- Node13 -->
<g id="node13" class="node">
<title>Node13</title>
<g id="a_node13"><a xlink:title=" ">
<polygon fill="#e0e0e0" stroke="#999999" points="603.5,-184 544.5,-184 544.5,-165 603.5,-165 603.5,-184"/>
<text text-anchor="middle" x="574" y="-172" font-family="Helvetica,sans-Serif" font-size="10.00">exception</text>
</a>
</g>
</g>
<!-- Node12&#45;&gt;Node13 -->
<g id="edge24" class="edge">
<title>Node12&#45;&gt;Node13</title>
<path fill="none" stroke="#63b8ff" d="M558.14,-219.75C560.54,-213.04 563.96,-203.52 567,-195.02"/>
<polygon fill="#63b8ff" stroke="#63b8ff" points="570.2,-196.46 570.28,-185.87 563.61,-194.1 570.2,-196.46"/>
</g>
<!-- Node14&#45;&gt;Node3 -->
<g id="edge26" class="edge">
<title>Node14&#45;&gt;Node3</title>
<path fill="none" stroke="#63b8ff" d="M322.62,-219.53C282.48,-205.33 206.93,-174.55 156,-129 132.46,-107.95 123.01,-103.21 111,-74 105.32,-60.17 103.96,-43.27 103.95,-30.38"/>
<polygon fill="#63b8ff" stroke="#63b8ff" points="107.44,-30.7 104.23,-20.61 100.44,-30.5 107.44,-30.7"/>
</g>
<!-- Node14&#45;&gt;Node4 -->
<g id="edge27" class="edge">
<title>Node14&#45;&gt;Node4</title>
<path fill="none" stroke="#63b8ff" d="M361.85,-219.7C389.41,-198.4 457.33,-140.86 482,-74 487.1,-60.19 486.88,-43.52 485.5,-30.72"/>
<polygon fill="#63b8ff" stroke="#63b8ff" points="488.99,-30.37 484.11,-20.96 482.06,-31.36 488.99,-30.37"/>
</g>
<!-- Node14&#45;&gt;Node5 -->
<g id="edge28" class="edge">
<title>Node14&#45;&gt;Node5</title>
<path fill="none" stroke="#63b8ff" d="M293.41,-219.68C244.56,-211.66 172.24,-198.85 110,-184 109,-183.76 107.97,-183.51 106.94,-183.24"/>
<polygon fill="#63b8ff" stroke="#63b8ff" points="108,-179.91 97.43,-180.61 106.13,-186.65 108,-179.91"/>
</g>
<!-- Node14&#45;&gt;Node6 -->
<g id="edge29" class="edge">
<title>Node14&#45;&gt;Node6</title>
<path fill="none" stroke="#63b8ff" d="M338.8,-219.51C329.26,-211.85 315.33,-200.66 303.89,-191.47"/>
<polygon fill="#63b8ff" stroke="#63b8ff" points="306.2,-188.84 296.21,-185.31 301.82,-194.3 306.2,-188.84"/>
</g>
<!-- Node14&#45;&gt;Node9 -->
<g id="edge30" class="edge">
<title>Node14&#45;&gt;Node9</title>
<path fill="none" stroke="#63b8ff" d="M353.82,-219.74C364.89,-194.31 397.23,-120.08 412.64,-84.69"/>
<polygon fill="#63b8ff" stroke="#63b8ff" points="415.77,-86.26 416.56,-75.69 409.36,-83.46 415.77,-86.26"/>
</g>
</g>
</svg>
