<?xml version="1.0" encoding="UTF-8" standalone="no"?>
<!DOCTYPE svg PUBLIC "-//W3C//DTD SVG 1.1//EN"
 "http://www.w3.org/Graphics/SVG/1.1/DTD/svg11.dtd">
<!-- Generated by graphviz version 7.0.4 (20221203.1631)
 -->
<!-- Title: include/item.hpp Pages: 1 -->
<svg width="304pt" height="137pt"
 viewBox="0.00 0.00 304.19 137.00" xmlns="http://www.w3.org/2000/svg" xmlns:xlink="http://www.w3.org/1999/xlink">
<g id="graph0" class="graph" transform="scale(1 1) rotate(0) translate(4 133)">
<title>include/item.hpp</title>
<!-- Node1 -->
<g id="node1" class="node">
<title>Node1</title>
<g id="a_node1"><a xlink:title="Classe principal com a lógica dos itens.">
<polygon fill="#999999" stroke="#666666" points="209,-129 121,-129 121,-110 209,-110 209,-129"/>
<text text-anchor="middle" x="165" y="-117" font-family="Helvetica,sans-Serif" font-size="10.00">include/item.hpp</text>
</a>
</g>
</g>
<!-- Node2 -->
<g id="node2" class="node">
<title>Node2</title>
<g id="a_node2"><a xlink:title=" ">
<polygon fill="#e0e0e0" stroke="#999999" points="42,-74 0,-74 0,-55 42,-55 42,-74"/>
<text text-anchor="middle" x="21" y="-62" font-family="Helvetica,sans-Serif" font-size="10.00">vector</text>
</a>
</g>
</g>
<!-- Node1&#45;&gt;Node2 -->
<g id="edge1" class="edge">
<title>Node1&#45;&gt;Node2</title>
<path fill="none" stroke="#63b8ff" d="M140.57,-109.51C116.42,-100.62 79.34,-86.97 52.88,-77.23"/>
<polygon fill="#63b8ff" stroke="#63b8ff" points="54.27,-74.02 43.68,-73.85 51.85,-80.59 54.27,-74.02"/>
</g>
<!-- Node3 -->
<g id="node3" class="node">
<title>Node3</title>
<g id="a_node3"><a xlink:title=" ">
<polygon fill="#e0e0e0" stroke="#999999" points="127,-19 73,-19 73,0 127,0 127,-19"/>
<text text-anchor="middle" x="100" y="-7" font-family="Helvetica,sans-Serif" font-size="10.00">iostream</text>
</a>
</g>
</g>
<!-- Node1&#45;&gt;Node3 -->
<g id="edge2" class="edge">
<title>Node1&#45;&gt;Node3</title>
<path fill="none" stroke="#63b8ff" d="M135.85,-109.62C118.93,-102.79 99.04,-91.51 89,-74 81.25,-60.49 85.19,-42.89 90.38,-29.65"/>
<polygon fill="#63b8ff" stroke="#63b8ff" points="93.49,-31.28 94.4,-20.73 87.1,-28.41 93.49,-31.28"/>
</g>
<!-- Node4 -->
<g id="node4" class="node">
<title>Node4</title>
<g id="a_node4"><a xlink:title=" ">
<polygon fill="#e0e0e0" stroke="#999999" points="258.5,-19 217.5,-19 217.5,0 258.5,0 258.5,-19"/>
<text text-anchor="middle" x="238" y="-7" font-family="Helvetica,sans-Serif" font-size="10.00">string</text>
</a>
</g>
</g>
<!-- Node1&#45;&gt;Node4 -->
<g id="edge3" class="edge">
<title>Node1&#45;&gt;Node4</title>
<path fill="none" stroke="#63b8ff" d="M209.5,-115.57C238.16,-111.1 273.42,-100.2 292,-74 304.48,-56.41 284.13,-37.78 264.94,-25.28"/>
<polygon fill="#63b8ff" stroke="#63b8ff" points="266.85,-22.35 256.49,-20.13 263.21,-28.32 266.85,-22.35"/>
</g>
<!-- Node5 -->
<g id="node5" class="node">
<title>Node5</title>
<g id="a_node5"><a xlink:title=" ">
<polygon fill="#e0e0e0" stroke="#999999" points="217.5,-74 182.5,-74 182.5,-55 217.5,-55 217.5,-74"/>
<text text-anchor="middle" x="200" y="-62" font-family="Helvetica,sans-Serif" font-size="10.00">map</text>
</a>
</g>
</g>
<!-- Node1&#45;&gt;Node5 -->
<g id="edge4" class="edge">
<title>Node1&#45;&gt;Node5</title>
<path fill="none" stroke="#63b8ff" d="M170.78,-109.75C175.41,-102.73 182.07,-92.64 187.87,-83.87"/>
<polygon fill="#63b8ff" stroke="#63b8ff" points="190.67,-85.98 193.26,-75.71 184.83,-82.12 190.67,-85.98"/>
</g>
<!-- Node6 -->
<g id="node6" class="node">
<title>Node6</title>
<g id="a_node6"><a xlink:title=" ">
<polygon fill="#e0e0e0" stroke="#999999" points="282.5,-74 235.5,-74 235.5,-55 282.5,-55 282.5,-74"/>
<text text-anchor="middle" x="259" y="-62" font-family="Helvetica,sans-Serif" font-size="10.00">iterator</text>
</a>
</g>
</g>
<!-- Node1&#45;&gt;Node6 -->
<g id="edge5" class="edge">
<title>Node1&#45;&gt;Node6</title>
<path fill="none" stroke="#63b8ff" d="M180.95,-109.51C195.35,-101.39 216.79,-89.3 233.56,-79.85"/>
<polygon fill="#63b8ff" stroke="#63b8ff" points="234.98,-83.06 241.97,-75.1 231.54,-76.96 234.98,-83.06"/>
</g>
<!-- Node7 -->
<g id="node7" class="node">
<title>Node7</title>
<g id="a_node7"><a xlink:href="utilities_8hpp.html" target="_top" xlink:title="Classe principal com a lógica de utilities.">
<polygon fill="white" stroke="#666666" points="164,-74 98,-74 98,-55 164,-55 164,-74"/>
<text text-anchor="middle" x="131" y="-62" font-family="Helvetica,sans-Serif" font-size="10.00">utilities.hpp</text>
</a>
</g>
</g>
<!-- Node1&#45;&gt;Node7 -->
<g id="edge6" class="edge">
<title>Node1&#45;&gt;Node7</title>
<path fill="none" stroke="#63b8ff" d="M159.39,-109.75C154.88,-102.73 148.41,-92.64 142.79,-83.87"/>
<polygon fill="#63b8ff" stroke="#63b8ff" points="145.9,-82.24 137.55,-75.72 140.01,-86.02 145.9,-82.24"/>
</g>
<!-- Node7&#45;&gt;Node3 -->
<g id="edge8" class="edge">
<title>Node7&#45;&gt;Node3</title>
<path fill="none" stroke="#63b8ff" d="M125.88,-54.75C121.82,-47.81 116.01,-37.86 110.91,-29.16"/>
<polygon fill="#63b8ff" stroke="#63b8ff" points="114.06,-27.61 105.99,-20.75 108.02,-31.15 114.06,-27.61"/>
</g>
<!-- Node7&#45;&gt;Node4 -->
<g id="edge7" class="edge">
<title>Node7&#45;&gt;Node4</title>
<path fill="none" stroke="#63b8ff" d="M149.15,-54.51C165.78,-46.27 190.64,-33.96 209.85,-24.45"/>
<polygon fill="#63b8ff" stroke="#63b8ff" points="211.35,-27.6 218.76,-20.03 208.25,-21.33 211.35,-27.6"/>
</g>
</g>
</svg>
