<?xml version="1.0" encoding="UTF-8" standalone="no"?>
<!DOCTYPE svg PUBLIC "-//W3C//DTD SVG 1.1//EN"
 "http://www.w3.org/Graphics/SVG/1.1/DTD/svg11.dtd">
<!-- Generated by graphviz version 7.0.4 (20221203.1631)
 -->
<!-- Title: src/item.cpp Pages: 1 -->
<svg width="400pt" height="192pt"
 viewBox="0.00 0.00 400.00 192.00" xmlns="http://www.w3.org/2000/svg" xmlns:xlink="http://www.w3.org/1999/xlink">
<g id="graph0" class="graph" transform="scale(1 1) rotate(0) translate(4 188)">
<title>src/item.cpp</title>
<!-- Node1 -->
<g id="node1" class="node">
<title>Node1</title>
<g id="a_node1"><a xlink:title=" ">
<polygon fill="#999999" stroke="#666666" points="327.5,-184 256.5,-184 256.5,-165 327.5,-165 327.5,-184"/>
<text text-anchor="middle" x="292" y="-172" font-family="Helvetica,sans-Serif" font-size="10.00">src/item.cpp</text>
</a>
</g>
</g>
<!-- Node2 -->
<g id="node2" class="node">
<title>Node2</title>
<g id="a_node2"><a xlink:href="item_8hpp.html" target="_top" xlink:title="Classe principal com a lógica dos itens.">
<polygon fill="white" stroke="#666666" points="213,-129 159,-129 159,-110 213,-110 213,-129"/>
<text text-anchor="middle" x="186" y="-117" font-family="Helvetica,sans-Serif" font-size="10.00">item.hpp</text>
</a>
</g>
</g>
<!-- Node1&#45;&gt;Node2 -->
<g id="edge1" class="edge">
<title>Node1&#45;&gt;Node2</title>
<path fill="none" stroke="#63b8ff" d="M274.02,-164.51C257.55,-156.27 232.91,-143.96 213.89,-134.45"/>
<polygon fill="#63b8ff" stroke="#63b8ff" points="215.58,-131.38 205.07,-130.03 212.45,-137.64 215.58,-131.38"/>
</g>
<!-- Node9 -->
<g id="node9" class="node">
<title>Node9</title>
<g id="a_node9"><a xlink:href="excecao_8hpp.html" target="_top" xlink:title=" ">
<polygon fill="white" stroke="#666666" points="392,-129 320,-129 320,-110 392,-110 392,-129"/>
<text text-anchor="middle" x="356" y="-117" font-family="Helvetica,sans-Serif" font-size="10.00">excecao.hpp</text>
</a>
</g>
</g>
<!-- Node1&#45;&gt;Node9 -->
<g id="edge10" class="edge">
<title>Node1&#45;&gt;Node9</title>
<path fill="none" stroke="#63b8ff" d="M302.86,-164.51C312.11,-156.85 325.62,-145.66 336.71,-136.47"/>
<polygon fill="#63b8ff" stroke="#63b8ff" points="338.67,-139.4 344.14,-130.32 334.2,-134.01 338.67,-139.4"/>
</g>
<!-- Node10 -->
<g id="node10" class="node">
<title>Node10</title>
<g id="a_node10"><a xlink:title=" ">
<polygon fill="#e0e0e0" stroke="#999999" points="385.5,-74 326.5,-74 326.5,-55 385.5,-55 385.5,-74"/>
<text text-anchor="middle" x="356" y="-62" font-family="Helvetica,sans-Serif" font-size="10.00">exception</text>
</a>
</g>
</g>
<!-- Node1&#45;&gt;Node10 -->
<g id="edge12" class="edge">
<title>Node1&#45;&gt;Node10</title>
<path fill="none" stroke="#63b8ff" d="M293.21,-164.73C295.27,-151.94 300.34,-127.76 311,-110 317.38,-99.37 326.88,-89.47 335.5,-81.72"/>
<polygon fill="#63b8ff" stroke="#63b8ff" points="337.51,-84.61 342.86,-75.46 332.98,-79.27 337.51,-84.61"/>
</g>
<!-- Node3 -->
<g id="node3" class="node">
<title>Node3</title>
<g id="a_node3"><a xlink:title=" ">
<polygon fill="#e0e0e0" stroke="#999999" points="308,-74 266,-74 266,-55 308,-55 308,-74"/>
<text text-anchor="middle" x="287" y="-62" font-family="Helvetica,sans-Serif" font-size="10.00">vector</text>
</a>
</g>
</g>
<!-- Node2&#45;&gt;Node3 -->
<g id="edge2" class="edge">
<title>Node2&#45;&gt;Node3</title>
<path fill="none" stroke="#63b8ff" d="M203.13,-109.51C218.75,-101.31 242.08,-89.07 260.17,-79.58"/>
<polygon fill="#63b8ff" stroke="#63b8ff" points="261.55,-82.81 268.78,-75.06 258.3,-76.61 261.55,-82.81"/>
</g>
<!-- Node4 -->
<g id="node4" class="node">
<title>Node4</title>
<g id="a_node4"><a xlink:title=" ">
<polygon fill="#e0e0e0" stroke="#999999" points="54,-19 0,-19 0,0 54,0 54,-19"/>
<text text-anchor="middle" x="27" y="-7" font-family="Helvetica,sans-Serif" font-size="10.00">iostream</text>
</a>
</g>
</g>
<!-- Node2&#45;&gt;Node4 -->
<g id="edge3" class="edge">
<title>Node2&#45;&gt;Node4</title>
<path fill="none" stroke="#63b8ff" d="M158.71,-115.38C115.22,-109.77 33.34,-96.46 16,-74 6.28,-61.41 10.75,-43.21 16.65,-29.53"/>
<polygon fill="#63b8ff" stroke="#63b8ff" points="19.73,-31.19 20.99,-20.67 13.44,-28.11 19.73,-31.19"/>
</g>
<!-- Node5 -->
<g id="node5" class="node">
<title>Node5</title>
<g id="a_node5"><a xlink:title=" ">
<polygon fill="#e0e0e0" stroke="#999999" points="185.5,-19 144.5,-19 144.5,0 185.5,0 185.5,-19"/>
<text text-anchor="middle" x="165" y="-7" font-family="Helvetica,sans-Serif" font-size="10.00">string</text>
</a>
</g>
</g>
<!-- Node2&#45;&gt;Node5 -->
<g id="edge4" class="edge">
<title>Node2&#45;&gt;Node5</title>
<path fill="none" stroke="#63b8ff" d="M196.11,-109.54C208.61,-97.32 227.18,-74.69 218,-55 212.42,-43.03 201.87,-33.14 191.64,-25.75"/>
<polygon fill="#63b8ff" stroke="#63b8ff" points="193.63,-22.87 183.36,-20.27 189.77,-28.71 193.63,-22.87"/>
</g>
<!-- Node6 -->
<g id="node6" class="node">
<title>Node6</title>
<g id="a_node6"><a xlink:title=" ">
<polygon fill="#e0e0e0" stroke="#999999" points="144.5,-74 109.5,-74 109.5,-55 144.5,-55 144.5,-74"/>
<text text-anchor="middle" x="127" y="-62" font-family="Helvetica,sans-Serif" font-size="10.00">map</text>
</a>
</g>
</g>
<!-- Node2&#45;&gt;Node6 -->
<g id="edge5" class="edge">
<title>Node2&#45;&gt;Node6</title>
<path fill="none" stroke="#63b8ff" d="M175.99,-109.51C167.63,-102 155.5,-91.1 145.4,-82.03"/>
<polygon fill="#63b8ff" stroke="#63b8ff" points="147.76,-79.45 137.99,-75.37 143.09,-84.66 147.76,-79.45"/>
</g>
<!-- Node7 -->
<g id="node7" class="node">
<title>Node7</title>
<g id="a_node7"><a xlink:title=" ">
<polygon fill="#e0e0e0" stroke="#999999" points="209.5,-74 162.5,-74 162.5,-55 209.5,-55 209.5,-74"/>
<text text-anchor="middle" x="186" y="-62" font-family="Helvetica,sans-Serif" font-size="10.00">iterator</text>
</a>
</g>
</g>
<!-- Node2&#45;&gt;Node7 -->
<g id="edge6" class="edge">
<title>Node2&#45;&gt;Node7</title>
<path fill="none" stroke="#63b8ff" d="M186,-109.75C186,-103.27 186,-94.16 186,-85.9"/>
<polygon fill="#63b8ff" stroke="#63b8ff" points="189.5,-85.96 186,-75.96 182.5,-85.96 189.5,-85.96"/>
</g>
<!-- Node8 -->
<g id="node8" class="node">
<title>Node8</title>
<g id="a_node8"><a xlink:href="utilities_8hpp.html" target="_top" xlink:title="Classe principal com a lógica de utilities.">
<polygon fill="white" stroke="#666666" points="91,-74 25,-74 25,-55 91,-55 91,-74"/>
<text text-anchor="middle" x="58" y="-62" font-family="Helvetica,sans-Serif" font-size="10.00">utilities.hpp</text>
</a>
</g>
</g>
<!-- Node2&#45;&gt;Node8 -->
<g id="edge7" class="edge">
<title>Node2&#45;&gt;Node8</title>
<path fill="none" stroke="#63b8ff" d="M164.29,-109.51C143.84,-101.04 112.98,-88.27 89.77,-78.66"/>
<polygon fill="#63b8ff" stroke="#63b8ff" points="91.37,-75.53 80.79,-74.94 88.69,-82 91.37,-75.53"/>
</g>
<!-- Node8&#45;&gt;Node4 -->
<g id="edge9" class="edge">
<title>Node8&#45;&gt;Node4</title>
<path fill="none" stroke="#63b8ff" d="M52.88,-54.75C48.82,-47.81 43.01,-37.86 37.91,-29.16"/>
<polygon fill="#63b8ff" stroke="#63b8ff" points="41.06,-27.61 32.99,-20.75 35.02,-31.15 41.06,-27.61"/>
</g>
<!-- Node8&#45;&gt;Node5 -->
<g id="edge8" class="edge">
<title>Node8&#45;&gt;Node5</title>
<path fill="none" stroke="#63b8ff" d="M76.15,-54.51C92.78,-46.27 117.64,-33.96 136.85,-24.45"/>
<polygon fill="#63b8ff" stroke="#63b8ff" points="138.35,-27.6 145.76,-20.03 135.25,-21.33 138.35,-27.6"/>
</g>
<!-- Node9&#45;&gt;Node10 -->
<g id="edge11" class="edge">
<title>Node9&#45;&gt;Node10</title>
<path fill="none" stroke="#63b8ff" d="M356,-109.75C356,-103.27 356,-94.16 356,-85.9"/>
<polygon fill="#63b8ff" stroke="#63b8ff" points="359.5,-85.96 356,-75.96 352.5,-85.96 359.5,-85.96"/>
</g>
</g>
</svg>
