<?xml version="1.0" encoding="UTF-8" standalone="no"?>
<!DOCTYPE svg PUBLIC "-//W3C//DTD SVG 1.1//EN"
 "http://www.w3.org/Graphics/SVG/1.1/DTD/svg11.dtd">
<!-- Generated by graphviz version 7.0.4 (20221203.1631)
 -->
<!-- Title: src/main.cpp Pages: 1 -->
<svg width="1506pt" height="412pt"
 viewBox="0.00 0.00 1506.00 412.00" xmlns="http://www.w3.org/2000/svg" xmlns:xlink="http://www.w3.org/1999/xlink">
<g id="graph0" class="graph" transform="scale(1 1) rotate(0) translate(4 408)">
<title>src/main.cpp</title>
<!-- Node1 -->
<g id="node1" class="node">
<title>Node1</title>
<g id="a_node1"><a xlink:title=" ">
<polygon fill="#999999" stroke="#666666" points="878.5,-404 805.5,-404 805.5,-385 878.5,-385 878.5,-404"/>
<text text-anchor="middle" x="842" y="-392" font-family="Helvetica,sans-Serif" font-size="10.00">src/main.cpp</text>
</a>
</g>
</g>
<!-- Node2 -->
<g id="node2" class="node">
<title>Node2</title>
<g id="a_node2"><a xlink:title=" ">
<polygon fill="#e0e0e0" stroke="#999999" points="780,-19 726,-19 726,0 780,0 780,-19"/>
<text text-anchor="middle" x="753" y="-7" font-family="Helvetica,sans-Serif" font-size="10.00">iostream</text>
</a>
</g>
</g>
<!-- Node1&#45;&gt;Node2 -->
<g id="edge1" class="edge">
<title>Node1&#45;&gt;Node2</title>
<path fill="none" stroke="#63b8ff" d="M878.65,-392.96C996.78,-390.9 1362.3,-381.89 1403,-349 1425.91,-330.49 1422,-314.96 1422,-285.5 1422,-285.5 1422,-285.5 1422,-118.5 1422,-39.92 1333.55,-72.74 1257,-55 1086.97,-15.6 877.27,-10.55 791.9,-10.27"/>
<polygon fill="#63b8ff" stroke="#63b8ff" points="791.98,-6.77 781.98,-10.26 791.97,-13.77 791.98,-6.77"/>
</g>
<!-- Node3 -->
<g id="node3" class="node">
<title>Node3</title>
<g id="a_node3"><a xlink:title=" ">
<polygon fill="#e0e0e0" stroke="#999999" points="371.5,-19 330.5,-19 330.5,0 371.5,0 371.5,-19"/>
<text text-anchor="middle" x="351" y="-7" font-family="Helvetica,sans-Serif" font-size="10.00">string</text>
</a>
</g>
</g>
<!-- Node1&#45;&gt;Node3 -->
<g id="edge2" class="edge">
<title>Node1&#45;&gt;Node3</title>
<path fill="none" stroke="#63b8ff" d="M805.31,-393.06C678.75,-391.23 261.21,-382.75 132,-349 69.01,-332.55 0,-350.6 0,-285.5 0,-285.5 0,-285.5 0,-118.5 0,-73.11 38.49,-73.38 80,-55 160.89,-19.18 266.89,-11.91 319.1,-10.62"/>
<polygon fill="#63b8ff" stroke="#63b8ff" points="318.84,-14.12 328.77,-10.44 318.71,-7.12 318.84,-14.12"/>
</g>
<!-- Node4 -->
<g id="node4" class="node">
<title>Node4</title>
<g id="a_node4"><a xlink:title=" ">
<polygon fill="#e0e0e0" stroke="#999999" points="962.5,-184 903.5,-184 903.5,-165 962.5,-165 962.5,-184"/>
<text text-anchor="middle" x="933" y="-172" font-family="Helvetica,sans-Serif" font-size="10.00">exception</text>
</a>
</g>
</g>
<!-- Node1&#45;&gt;Node4 -->
<g id="edge3" class="edge">
<title>Node1&#45;&gt;Node4</title>
<path fill="none" stroke="#63b8ff" d="M840.01,-384.55C834.44,-357.08 821.39,-272.65 858,-220 867.53,-206.3 882.76,-196.14 897.01,-189.02"/>
<polygon fill="#63b8ff" stroke="#63b8ff" points="898.13,-192.36 905.75,-185 895.2,-186 898.13,-192.36"/>
</g>
<!-- Node5 -->
<g id="node5" class="node">
<title>Node5</title>
<g id="a_node5"><a xlink:href="playable_character_8hpp.html" target="_top" xlink:title="Classe principal com a lógica de playableCharacter.">
<polygon fill="white" stroke="#666666" points="577.5,-239 464.5,-239 464.5,-220 577.5,-220 577.5,-239"/>
<text text-anchor="middle" x="521" y="-227" font-family="Helvetica,sans-Serif" font-size="10.00">playableCharacter.hpp</text>
</a>
</g>
</g>
<!-- Node1&#45;&gt;Node5 -->
<g id="edge4" class="edge">
<title>Node1&#45;&gt;Node5</title>
<path fill="none" stroke="#63b8ff" d="M805.31,-391.78C716.53,-387.24 495.77,-373.56 474,-349 447.46,-319.06 481.85,-272.3 504.34,-247.42"/>
<polygon fill="#63b8ff" stroke="#63b8ff" points="506.63,-250.1 510.92,-240.41 501.52,-245.31 506.63,-250.1"/>
</g>
<!-- Node7 -->
<g id="node7" class="node">
<title>Node7</title>
<g id="a_node7"><a xlink:href="weapon_8hpp.html" target="_top" xlink:title="Classe principal responsavel pela lógica de weapon.">
<polygon fill="white" stroke="#666666" points="787,-184 719,-184 719,-165 787,-165 787,-184"/>
<text text-anchor="middle" x="753" y="-172" font-family="Helvetica,sans-Serif" font-size="10.00">weapon.hpp</text>
</a>
</g>
</g>
<!-- Node1&#45;&gt;Node7 -->
<g id="edge24" class="edge">
<title>Node1&#45;&gt;Node7</title>
<path fill="none" stroke="#63b8ff" d="M820.58,-384.56C805.83,-377.23 787.14,-365.4 777,-349 746.93,-300.39 748.08,-229.61 750.81,-195.44"/>
<polygon fill="#63b8ff" stroke="#63b8ff" points="754.27,-196.05 751.73,-185.76 747.3,-195.39 754.27,-196.05"/>
</g>
<!-- Node11 -->
<g id="node11" class="node">
<title>Node11</title>
<g id="a_node11"><a xlink:href="item_8hpp.html" target="_top" xlink:title="Classe principal com a lógica dos itens.">
<polygon fill="white" stroke="#666666" points="933,-129 879,-129 879,-110 933,-110 933,-129"/>
<text text-anchor="middle" x="906" y="-117" font-family="Helvetica,sans-Serif" font-size="10.00">item.hpp</text>
</a>
</g>
</g>
<!-- Node1&#45;&gt;Node11 -->
<g id="edge70" class="edge">
<title>Node1&#45;&gt;Node11</title>
<path fill="none" stroke="#63b8ff" d="M878.97,-392.13C980.77,-387.41 1260.57,-367.81 1304,-294 1384.95,-156.43 1059.66,-127.74 944.81,-121.93"/>
<polygon fill="#63b8ff" stroke="#63b8ff" points="945.1,-118.44 934.94,-121.46 944.77,-125.43 945.1,-118.44"/>
</g>
<!-- Node13 -->
<g id="node13" class="node">
<title>Node13</title>
<g id="a_node13"><a xlink:href="monster_8hpp.html" target="_top" xlink:title="Classe principal com a lógica de monster.">
<polygon fill="white" stroke="#666666" points="255.5,-239 184.5,-239 184.5,-220 255.5,-220 255.5,-239"/>
<text text-anchor="middle" x="220" y="-227" font-family="Helvetica,sans-Serif" font-size="10.00">monster.hpp</text>
</a>
</g>
</g>
<!-- Node1&#45;&gt;Node13 -->
<g id="edge25" class="edge">
<title>Node1&#45;&gt;Node13</title>
<path fill="none" stroke="#63b8ff" d="M805.1,-392.09C692.23,-387.56 352.81,-372.31 245,-349 175.6,-333.99 135.66,-352.21 95,-294 72.37,-261.6 128.73,-244.75 172.98,-236.77"/>
<polygon fill="#63b8ff" stroke="#63b8ff" points="173.43,-240.24 182.71,-235.13 172.27,-233.34 173.43,-240.24"/>
</g>
<!-- Node15 -->
<g id="node15" class="node">
<title>Node15</title>
<g id="a_node15"><a xlink:href="game_events_8hpp.html" target="_top" xlink:title="Classe principal com a lógica de gameEvents.">
<polygon fill="white" stroke="#666666" points="571.5,-349 482.5,-349 482.5,-330 571.5,-330 571.5,-349"/>
<text text-anchor="middle" x="527" y="-337" font-family="Helvetica,sans-Serif" font-size="10.00">gameEvents.hpp</text>
</a>
</g>
</g>
<!-- Node1&#45;&gt;Node15 -->
<g id="edge29" class="edge">
<title>Node1&#45;&gt;Node15</title>
<path fill="none" stroke="#63b8ff" d="M805.25,-387.32C750.52,-378.11 647.16,-360.72 582.99,-349.92"/>
<polygon fill="#63b8ff" stroke="#63b8ff" points="583.8,-346.51 573.36,-348.3 582.64,-353.41 583.8,-346.51"/>
</g>
<!-- Node20 -->
<g id="node20" class="node">
<title>Node20</title>
<g id="a_node20"><a xlink:href="vampire_8hpp.html" target="_top" xlink:title=" ">
<polygon fill="white" stroke="#666666" points="256,-294 188,-294 188,-275 256,-275 256,-294"/>
<text text-anchor="middle" x="222" y="-282" font-family="Helvetica,sans-Serif" font-size="10.00">vampire.hpp</text>
</a>
</g>
</g>
<!-- Node1&#45;&gt;Node20 -->
<g id="edge72" class="edge">
<title>Node1&#45;&gt;Node20</title>
<path fill="none" stroke="#63b8ff" d="M805.06,-392.38C685.91,-388.52 316.81,-374.61 270,-349 252.03,-339.17 238.78,-319.44 230.8,-304.56"/>
<polygon fill="#63b8ff" stroke="#63b8ff" points="234,-303.13 226.42,-295.74 227.73,-306.25 234,-303.13"/>
</g>
<!-- Node21 -->
<g id="node21" class="node">
<title>Node21</title>
<g id="a_node21"><a xlink:href="inventory_8hpp.html" target="_top" xlink:title="Classe principal com a lógica do inventário.">
<polygon fill="white" stroke="#666666" points="931,-294 857,-294 857,-275 931,-275 931,-294"/>
<text text-anchor="middle" x="894" y="-282" font-family="Helvetica,sans-Serif" font-size="10.00">inventory.hpp</text>
</a>
</g>
</g>
<!-- Node1&#45;&gt;Node21 -->
<g id="edge71" class="edge">
<title>Node1&#45;&gt;Node21</title>
<path fill="none" stroke="#63b8ff" d="M846.26,-384.66C854.64,-367.26 873.44,-328.19 884.79,-304.62"/>
<polygon fill="#63b8ff" stroke="#63b8ff" points="887.84,-306.35 889.03,-295.82 881.54,-303.32 887.84,-306.35"/>
</g>
<!-- Node22 -->
<g id="node22" class="node">
<title>Node22</title>
<g id="a_node22"><a xlink:href="excecao_8hpp.html" target="_top" xlink:title=" ">
<polygon fill="white" stroke="#666666" points="1010,-239 938,-239 938,-220 1010,-220 1010,-239"/>
<text text-anchor="middle" x="974" y="-227" font-family="Helvetica,sans-Serif" font-size="10.00">excecao.hpp</text>
</a>
</g>
</g>
<!-- Node1&#45;&gt;Node22 -->
<g id="edge74" class="edge">
<title>Node1&#45;&gt;Node22</title>
<path fill="none" stroke="#63b8ff" d="M852.43,-384.73C871.5,-368.32 912.54,-331.29 940,-294 950.32,-279.98 959.47,-262.43 965.67,-249.33"/>
<polygon fill="#63b8ff" stroke="#63b8ff" points="968.71,-251.1 969.69,-240.55 962.35,-248.19 968.71,-251.1"/>
</g>
<!-- Node24 -->
<g id="node24" class="node">
<title>Node24</title>
<g id="a_node24"><a xlink:title=" ">
<polygon fill="#e0e0e0" stroke="#999999" points="1393.5,-349 1342.5,-349 1342.5,-330 1393.5,-330 1393.5,-349"/>
<text text-anchor="middle" x="1368" y="-337" font-family="Helvetica,sans-Serif" font-size="10.00">unistd.h</text>
</a>
</g>
</g>
<!-- Node1&#45;&gt;Node24 -->
<g id="edge60" class="edge">
<title>Node1&#45;&gt;Node24</title>
<path fill="none" stroke="#63b8ff" d="M878.76,-391.62C960.09,-387.14 1161.29,-374.25 1328,-349 1329.01,-348.85 1330.04,-348.68 1331.07,-348.51"/>
<polygon fill="#63b8ff" stroke="#63b8ff" points="1331.58,-351.98 1340.77,-346.71 1330.3,-345.1 1331.58,-351.98"/>
</g>
<!-- Node25 -->
<g id="node25" class="node">
<title>Node25</title>
<g id="a_node25"><a xlink:href="shop_8hpp.html" target="_top" xlink:title="Classe principal com a lógica do shop.">
<polygon fill="white" stroke="#666666" points="1196,-349 1140,-349 1140,-330 1196,-330 1196,-349"/>
<text text-anchor="middle" x="1168" y="-337" font-family="Helvetica,sans-Serif" font-size="10.00">shop.hpp</text>
</a>
</g>
</g>
<!-- Node1&#45;&gt;Node25 -->
<g id="edge61" class="edge">
<title>Node1&#45;&gt;Node25</title>
<path fill="none" stroke="#63b8ff" d="M878.76,-387.52C940.68,-377.46 1065.23,-357.21 1128.77,-346.88"/>
<polygon fill="#63b8ff" stroke="#63b8ff" points="1129.09,-350.37 1138.4,-345.31 1127.97,-343.46 1129.09,-350.37"/>
</g>
<!-- Node27 -->
<g id="node27" class="node">
<title>Node27</title>
<g id="a_node27"><a xlink:title=" ">
<polygon fill="#e0e0e0" stroke="#999999" points="1498,-349 1450,-349 1450,-330 1498,-330 1498,-349"/>
<text text-anchor="middle" x="1474" y="-337" font-family="Helvetica,sans-Serif" font-size="10.00">stdlib.h</text>
</a>
</g>
</g>
<!-- Node1&#45;&gt;Node27 -->
<g id="edge73" class="edge">
<title>Node1&#45;&gt;Node27</title>
<path fill="none" stroke="#63b8ff" d="M878.71,-392.6C972.17,-389.92 1226.56,-380.1 1436,-349 1436.83,-348.88 1437.66,-348.75 1438.51,-348.61"/>
<polygon fill="#63b8ff" stroke="#63b8ff" points="1438.91,-352.09 1448.08,-346.8 1437.6,-345.22 1438.91,-352.09"/>
</g>
<!-- Node5&#45;&gt;Node2 -->
<g id="edge5" class="edge">
<title>Node5&#45;&gt;Node2</title>
<path fill="none" stroke="#63b8ff" d="M530.38,-219.68C565.51,-186.68 689.59,-70.08 735.64,-26.82"/>
<polygon fill="#63b8ff" stroke="#63b8ff" points="737.76,-29.62 742.65,-20.22 732.97,-24.52 737.76,-29.62"/>
</g>
<!-- Node5&#45;&gt;Node3 -->
<g id="edge6" class="edge">
<title>Node5&#45;&gt;Node3</title>
<path fill="none" stroke="#63b8ff" d="M514.13,-219.68C488.65,-187.02 399.35,-72.5 364.8,-28.19"/>
<polygon fill="#63b8ff" stroke="#63b8ff" points="367.61,-26.11 358.7,-20.38 362.09,-30.42 367.61,-26.11"/>
</g>
<!-- Node6 -->
<g id="node6" class="node">
<title>Node6</title>
<g id="a_node6"><a xlink:title=" ">
<polygon fill="#e0e0e0" stroke="#999999" points="658.5,-184 629.5,-184 629.5,-165 658.5,-165 658.5,-184"/>
<text text-anchor="middle" x="644" y="-172" font-family="Helvetica,sans-Serif" font-size="10.00">list</text>
</a>
</g>
</g>
<!-- Node5&#45;&gt;Node6 -->
<g id="edge7" class="edge">
<title>Node5&#45;&gt;Node6</title>
<path fill="none" stroke="#63b8ff" d="M541.87,-219.51C563.09,-210.36 596,-196.18 618.7,-186.4"/>
<polygon fill="#63b8ff" stroke="#63b8ff" points="620.04,-189.64 627.84,-182.46 617.27,-183.21 620.04,-189.64"/>
</g>
<!-- Node5&#45;&gt;Node7 -->
<g id="edge8" class="edge">
<title>Node5&#45;&gt;Node7</title>
<path fill="none" stroke="#63b8ff" d="M560.36,-219.51C601.18,-210.18 664.93,-195.62 707.79,-185.83"/>
<polygon fill="#63b8ff" stroke="#63b8ff" points="708.31,-189.3 717.28,-183.66 706.75,-182.48 708.31,-189.3"/>
</g>
<!-- Node10 -->
<g id="node10" class="node">
<title>Node10</title>
<g id="a_node10"><a xlink:href="utilities_8hpp.html" target="_top" xlink:title="Classe principal com a lógica de utilities.">
<polygon fill="white" stroke="#666666" points="603,-74 537,-74 537,-55 603,-55 603,-74"/>
<text text-anchor="middle" x="570" y="-62" font-family="Helvetica,sans-Serif" font-size="10.00">utilities.hpp</text>
</a>
</g>
</g>
<!-- Node5&#45;&gt;Node10 -->
<g id="edge23" class="edge">
<title>Node5&#45;&gt;Node10</title>
<path fill="none" stroke="#63b8ff" d="M523.63,-219.74C531.25,-194.42 553.4,-120.72 564.09,-85.16"/>
<polygon fill="#63b8ff" stroke="#63b8ff" points="567.39,-86.34 566.92,-75.76 560.69,-84.33 567.39,-86.34"/>
</g>
<!-- Node7&#45;&gt;Node2 -->
<g id="edge11" class="edge">
<title>Node7&#45;&gt;Node2</title>
<path fill="none" stroke="#63b8ff" d="M753,-164.74C753,-139.53 753,-66.36 753,-30.62"/>
<polygon fill="#63b8ff" stroke="#63b8ff" points="756.5,-30.82 753,-20.82 749.5,-30.82 756.5,-30.82"/>
</g>
<!-- Node7&#45;&gt;Node3 -->
<g id="edge9" class="edge">
<title>Node7&#45;&gt;Node3</title>
<path fill="none" stroke="#63b8ff" d="M745.86,-164.76C726.82,-142.16 672.22,-81.7 612,-55 534.78,-20.75 433.93,-12.74 383.17,-10.95"/>
<polygon fill="#63b8ff" stroke="#63b8ff" points="383.57,-7.46 373.48,-10.67 383.37,-14.46 383.57,-7.46"/>
</g>
<!-- Node8 -->
<g id="node8" class="node">
<title>Node8</title>
<g id="a_node8"><a xlink:title=" ">
<polygon fill="#e0e0e0" stroke="#999999" points="1131.5,-74 1096.5,-74 1096.5,-55 1131.5,-55 1131.5,-74"/>
<text text-anchor="middle" x="1114" y="-62" font-family="Helvetica,sans-Serif" font-size="10.00">map</text>
</a>
</g>
</g>
<!-- Node7&#45;&gt;Node8 -->
<g id="edge10" class="edge">
<title>Node7&#45;&gt;Node8</title>
<path fill="none" stroke="#63b8ff" d="M787.48,-166.71C825.62,-158.89 888.74,-145.04 942,-129 993.48,-113.5 1051.9,-90.81 1085.7,-77.17"/>
<polygon fill="#63b8ff" stroke="#63b8ff" points="1086.82,-80.49 1094.77,-73.48 1084.18,-74 1086.82,-80.49"/>
</g>
<!-- Node9 -->
<g id="node9" class="node">
<title>Node9</title>
<g id="a_node9"><a xlink:title=" ">
<polygon fill="#e0e0e0" stroke="#999999" points="828.5,-74 781.5,-74 781.5,-55 828.5,-55 828.5,-74"/>
<text text-anchor="middle" x="805" y="-62" font-family="Helvetica,sans-Serif" font-size="10.00">iterator</text>
</a>
</g>
</g>
<!-- Node7&#45;&gt;Node9 -->
<g id="edge12" class="edge">
<title>Node7&#45;&gt;Node9</title>
<path fill="none" stroke="#63b8ff" d="M757.26,-164.66C765.64,-147.26 784.44,-108.19 795.79,-84.62"/>
<polygon fill="#63b8ff" stroke="#63b8ff" points="798.84,-86.35 800.03,-75.82 792.54,-83.32 798.84,-86.35"/>
</g>
<!-- Node7&#45;&gt;Node10 -->
<g id="edge13" class="edge">
<title>Node7&#45;&gt;Node10</title>
<path fill="none" stroke="#63b8ff" d="M739.61,-164.55C720.6,-151.96 684.6,-128.47 653,-110 634.7,-99.31 613.66,-88.03 597.34,-79.51"/>
<polygon fill="#63b8ff" stroke="#63b8ff" points="599.2,-76.54 588.72,-75.04 595.98,-82.75 599.2,-76.54"/>
</g>
<!-- Node7&#45;&gt;Node11 -->
<g id="edge16" class="edge">
<title>Node7&#45;&gt;Node11</title>
<path fill="none" stroke="#63b8ff" d="M778.95,-164.51C803.87,-155.88 841.73,-142.76 869.64,-133.1"/>
<polygon fill="#63b8ff" stroke="#63b8ff" points="870.44,-136.52 878.74,-129.94 868.15,-129.91 870.44,-136.52"/>
</g>
<!-- Node10&#45;&gt;Node2 -->
<g id="edge15" class="edge">
<title>Node10&#45;&gt;Node2</title>
<path fill="none" stroke="#63b8ff" d="M601.04,-54.51C632.47,-45.41 681.11,-31.32 714.87,-21.54"/>
<polygon fill="#63b8ff" stroke="#63b8ff" points="715.61,-24.97 724.24,-18.83 713.66,-18.25 715.61,-24.97"/>
</g>
<!-- Node10&#45;&gt;Node3 -->
<g id="edge14" class="edge">
<title>Node10&#45;&gt;Node3</title>
<path fill="none" stroke="#63b8ff" d="M536.74,-55.45C494.94,-45.33 423.71,-28.1 382.67,-18.16"/>
<polygon fill="#63b8ff" stroke="#63b8ff" points="383.72,-14.82 373.17,-15.87 382.07,-21.62 383.72,-14.82"/>
</g>
<!-- Node11&#45;&gt;Node2 -->
<g id="edge18" class="edge">
<title>Node11&#45;&gt;Node2</title>
<path fill="none" stroke="#63b8ff" d="M915.95,-109.6C929.22,-96.64 949.56,-72.26 936,-55 918.41,-32.62 840.07,-20.09 791.77,-14.37"/>
<polygon fill="#63b8ff" stroke="#63b8ff" points="792.32,-10.91 781.99,-13.27 791.53,-17.87 792.32,-10.91"/>
</g>
<!-- Node11&#45;&gt;Node3 -->
<g id="edge19" class="edge">
<title>Node11&#45;&gt;Node3</title>
<path fill="none" stroke="#63b8ff" d="M899.68,-109.61C888.89,-95.24 865.42,-67.28 838,-55 756.26,-18.38 478.42,-11.9 383.27,-10.75"/>
<polygon fill="#63b8ff" stroke="#63b8ff" points="383.4,-7.25 373.36,-10.64 383.32,-14.25 383.4,-7.25"/>
</g>
<!-- Node11&#45;&gt;Node8 -->
<g id="edge20" class="edge">
<title>Node11&#45;&gt;Node8</title>
<path fill="none" stroke="#63b8ff" d="M933.19,-111.57C972.5,-101.56 1044.87,-83.12 1085.1,-72.86"/>
<polygon fill="#63b8ff" stroke="#63b8ff" points="1085.96,-76.26 1094.79,-70.4 1084.23,-69.47 1085.96,-76.26"/>
</g>
<!-- Node11&#45;&gt;Node9 -->
<g id="edge21" class="edge">
<title>Node11&#45;&gt;Node9</title>
<path fill="none" stroke="#63b8ff" d="M888.87,-109.51C873.25,-101.31 849.92,-89.07 831.83,-79.58"/>
<polygon fill="#63b8ff" stroke="#63b8ff" points="833.7,-76.61 823.22,-75.06 830.45,-82.81 833.7,-76.61"/>
</g>
<!-- Node11&#45;&gt;Node10 -->
<g id="edge22" class="edge">
<title>Node11&#45;&gt;Node10</title>
<path fill="none" stroke="#63b8ff" d="M878.5,-114.16C820.45,-105.01 684.95,-83.63 614.43,-72.51"/>
<polygon fill="#63b8ff" stroke="#63b8ff" points="615.2,-69.09 604.77,-70.99 614.11,-76 615.2,-69.09"/>
</g>
<!-- Node12 -->
<g id="node12" class="node">
<title>Node12</title>
<g id="a_node12"><a xlink:title=" ">
<polygon fill="#e0e0e0" stroke="#999999" points="927,-74 885,-74 885,-55 927,-55 927,-74"/>
<text text-anchor="middle" x="906" y="-62" font-family="Helvetica,sans-Serif" font-size="10.00">vector</text>
</a>
</g>
</g>
<!-- Node11&#45;&gt;Node12 -->
<g id="edge17" class="edge">
<title>Node11&#45;&gt;Node12</title>
<path fill="none" stroke="#63b8ff" d="M906,-109.75C906,-103.27 906,-94.16 906,-85.9"/>
<polygon fill="#63b8ff" stroke="#63b8ff" points="909.5,-85.96 906,-75.96 902.5,-85.96 909.5,-85.96"/>
</g>
<!-- Node13&#45;&gt;Node3 -->
<g id="edge26" class="edge">
<title>Node13&#45;&gt;Node3</title>
<path fill="none" stroke="#63b8ff" d="M219.17,-219.53C218.33,-206.92 218.02,-183.4 225,-165 247.37,-106.01 301.76,-52.7 331.23,-26.88"/>
<polygon fill="#63b8ff" stroke="#63b8ff" points="333.39,-29.65 338.71,-20.48 328.84,-24.33 333.39,-29.65"/>
</g>
<!-- Node13&#45;&gt;Node10 -->
<g id="edge28" class="edge">
<title>Node13&#45;&gt;Node10</title>
<path fill="none" stroke="#63b8ff" d="M220.42,-219.8C221.54,-206.19 225.7,-179.91 241,-165 319.57,-88.42 454.99,-70.52 525.07,-66.51"/>
<polygon fill="#63b8ff" stroke="#63b8ff" points="525.22,-70 535.04,-66.02 524.88,-63.01 525.22,-70"/>
</g>
<!-- Node14 -->
<g id="node14" class="node">
<title>Node14</title>
<g id="a_node14"><a xlink:title=" ">
<polygon fill="#e0e0e0" stroke="#999999" points="294,-184 250,-184 250,-165 294,-165 294,-184"/>
<text text-anchor="middle" x="272" y="-172" font-family="Helvetica,sans-Serif" font-size="10.00">cmath</text>
</a>
</g>
</g>
<!-- Node13&#45;&gt;Node14 -->
<g id="edge27" class="edge">
<title>Node13&#45;&gt;Node14</title>
<path fill="none" stroke="#63b8ff" d="M228.59,-219.75C235.84,-212.35 246.45,-201.54 255.37,-192.45"/>
<polygon fill="#63b8ff" stroke="#63b8ff" points="257.66,-195.11 262.17,-185.52 252.66,-190.21 257.66,-195.11"/>
</g>
<!-- Node15&#45;&gt;Node2 -->
<g id="edge30" class="edge">
<title>Node15&#45;&gt;Node2</title>
<path fill="none" stroke="#63b8ff" d="M517.05,-329.59C500.03,-313.54 466.18,-277.79 456,-239 436.55,-164.9 443.13,-123.26 528,-55 556.17,-32.34 657.58,-19.44 714.16,-13.85"/>
<polygon fill="#63b8ff" stroke="#63b8ff" points="714.38,-17.35 724,-12.91 713.71,-10.38 714.38,-17.35"/>
</g>
<!-- Node15&#45;&gt;Node3 -->
<g id="edge32" class="edge">
<title>Node15&#45;&gt;Node3</title>
<path fill="none" stroke="#63b8ff" d="M482.23,-337.93C385.81,-336.05 161.85,-328.04 95,-294 61.2,-276.79 38,-268.42 38,-230.5 38,-230.5 38,-230.5 38,-118.5 38,-59.45 239.6,-25.62 319.21,-14.56"/>
<polygon fill="#63b8ff" stroke="#63b8ff" points="319.52,-18.05 328.96,-13.24 318.58,-11.12 319.52,-18.05"/>
</g>
<!-- Node15&#45;&gt;Node5 -->
<g id="edge37" class="edge">
<title>Node15&#45;&gt;Node5</title>
<path fill="none" stroke="#63b8ff" d="M517.39,-329.69C509.13,-321.41 497.8,-308.18 493,-294 487.64,-278.15 496.33,-260.81 505.41,-248.26"/>
<polygon fill="#63b8ff" stroke="#63b8ff" points="508.08,-250.53 511.57,-240.53 502.6,-246.17 508.08,-250.53"/>
</g>
<!-- Node15&#45;&gt;Node7 -->
<g id="edge44" class="edge">
<title>Node15&#45;&gt;Node7</title>
<path fill="none" stroke="#63b8ff" d="M571.63,-332.52C615.05,-325.68 676.53,-312.92 691,-294 711.92,-266.64 650.17,-249.46 668,-220 676.97,-205.18 692.68,-195.06 708.17,-188.26"/>
<polygon fill="#63b8ff" stroke="#63b8ff" points="709.36,-191.56 717.37,-184.63 706.79,-185.05 709.36,-191.56"/>
</g>
<!-- Node15&#45;&gt;Node8 -->
<g id="edge33" class="edge">
<title>Node15&#45;&gt;Node8</title>
<path fill="none" stroke="#63b8ff" d="M571.94,-336.96C683.12,-332.78 968.63,-319.81 1060,-294 1112.22,-279.25 1140.56,-285.21 1169,-239 1200.67,-187.54 1154.34,-116.16 1128.87,-83.32"/>
<polygon fill="#63b8ff" stroke="#63b8ff" points="1131.67,-81.23 1122.69,-75.62 1126.21,-85.61 1131.67,-81.23"/>
</g>
<!-- Node15&#45;&gt;Node10 -->
<g id="edge46" class="edge">
<title>Node15&#45;&gt;Node10</title>
<path fill="none" stroke="#63b8ff" d="M482.04,-331.31C460.01,-325.28 435.39,-314.22 422,-294 417.34,-286.96 419.69,-283.12 422,-275 445.57,-192.03 518.2,-114.68 552.16,-81.95"/>
<polygon fill="#63b8ff" stroke="#63b8ff" points="554.31,-84.72 559.17,-75.31 549.5,-79.64 554.31,-84.72"/>
</g>
<!-- Node15&#45;&gt;Node11 -->
<g id="edge45" class="edge">
<title>Node15&#45;&gt;Node11</title>
<path fill="none" stroke="#63b8ff" d="M571.74,-336.48C664.23,-331.85 873.38,-318.91 940,-294 980.07,-279.02 999.19,-276.92 1019,-239 1042.44,-194.13 978.58,-154.34 937.54,-134.28"/>
<polygon fill="#63b8ff" stroke="#63b8ff" points="939.07,-131.13 928.53,-130.03 936.09,-137.46 939.07,-131.13"/>
</g>
<!-- Node15&#45;&gt;Node13 -->
<g id="edge38" class="edge">
<title>Node15&#45;&gt;Node13</title>
<path fill="none" stroke="#63b8ff" d="M482.27,-330.43C445.12,-323.04 391.23,-310.71 346,-294 309.41,-280.48 269.58,-259.21 244.71,-245.06"/>
<polygon fill="#63b8ff" stroke="#63b8ff" points="246.74,-242.19 236.33,-240.23 243.24,-248.26 246.74,-242.19"/>
</g>
<!-- Node15&#45;&gt;Node14 -->
<g id="edge35" class="edge">
<title>Node15&#45;&gt;Node14</title>
<path fill="none" stroke="#63b8ff" d="M482.42,-329.52C433.06,-317.32 354.37,-290.81 308,-239 296.23,-225.85 286.62,-208.23 280.29,-194.88"/>
<polygon fill="#63b8ff" stroke="#63b8ff" points="283.53,-193.54 276.23,-185.85 277.14,-196.41 283.53,-193.54"/>
</g>
<!-- Node16 -->
<g id="node16" class="node">
<title>Node16</title>
<g id="a_node16"><a xlink:title=" ">
<polygon fill="#e0e0e0" stroke="#999999" points="552,-294 502,-294 502,-275 552,-275 552,-294"/>
<text text-anchor="middle" x="527" y="-282" font-family="Helvetica,sans-Serif" font-size="10.00">iomanip</text>
</a>
</g>
</g>
<!-- Node15&#45;&gt;Node16 -->
<g id="edge31" class="edge">
<title>Node15&#45;&gt;Node16</title>
<path fill="none" stroke="#63b8ff" d="M527,-329.75C527,-323.27 527,-314.16 527,-305.9"/>
<polygon fill="#63b8ff" stroke="#63b8ff" points="530.5,-305.96 527,-295.96 523.5,-305.96 530.5,-305.96"/>
</g>
<!-- Node17 -->
<g id="node17" class="node">
<title>Node17</title>
<g id="a_node17"><a xlink:title=" ">
<polygon fill="#e0e0e0" stroke="#999999" points="619.5,-294 570.5,-294 570.5,-275 619.5,-275 619.5,-294"/>
<text text-anchor="middle" x="595" y="-282" font-family="Helvetica,sans-Serif" font-size="10.00">random</text>
</a>
</g>
</g>
<!-- Node15&#45;&gt;Node17 -->
<g id="edge34" class="edge">
<title>Node15&#45;&gt;Node17</title>
<path fill="none" stroke="#63b8ff" d="M538.54,-329.51C548.46,-321.77 563.01,-310.43 574.86,-301.2"/>
<polygon fill="#63b8ff" stroke="#63b8ff" points="576.71,-304.2 582.44,-295.29 572.4,-298.68 576.71,-304.2"/>
</g>
<!-- Node18 -->
<g id="node18" class="node">
<title>Node18</title>
<g id="a_node18"><a xlink:title=" ">
<polygon fill="#e0e0e0" stroke="#999999" points="682,-294 638,-294 638,-275 682,-275 682,-294"/>
<text text-anchor="middle" x="660" y="-282" font-family="Helvetica,sans-Serif" font-size="10.00">time.h</text>
</a>
</g>
</g>
<!-- Node15&#45;&gt;Node18 -->
<g id="edge36" class="edge">
<title>Node15&#45;&gt;Node18</title>
<path fill="none" stroke="#63b8ff" d="M549.56,-329.51C570.9,-321.01 603.16,-308.15 627.31,-298.53"/>
<polygon fill="#63b8ff" stroke="#63b8ff" points="628.37,-301.87 636.37,-294.92 625.78,-295.37 628.37,-301.87"/>
</g>
<!-- Node19 -->
<g id="node19" class="node">
<title>Node19</title>
<g id="a_node19"><a xlink:href="enemy_8hpp.html" target="_top" xlink:title="Classe principal com a lógica de enemy.">
<polygon fill="white" stroke="#666666" points="169.5,-294 104.5,-294 104.5,-275 169.5,-275 169.5,-294"/>
<text text-anchor="middle" x="137" y="-282" font-family="Helvetica,sans-Serif" font-size="10.00">enemy.hpp</text>
</a>
</g>
</g>
<!-- Node15&#45;&gt;Node19 -->
<g id="edge39" class="edge">
<title>Node15&#45;&gt;Node19</title>
<path fill="none" stroke="#63b8ff" d="M482.08,-333.81C417.71,-326.86 295.28,-312.78 181,-294.22"/>
<polygon fill="#63b8ff" stroke="#63b8ff" points="181.9,-290.82 171.47,-292.65 180.77,-297.73 181.9,-290.82"/>
</g>
<!-- Node15&#45;&gt;Node20 -->
<g id="edge41" class="edge">
<title>Node15&#45;&gt;Node20</title>
<path fill="none" stroke="#63b8ff" d="M482.32,-330.74C424.77,-320.74 325.28,-303.45 267.39,-293.39"/>
<polygon fill="#63b8ff" stroke="#63b8ff" points="268.33,-290 257.88,-291.73 267.13,-296.9 268.33,-290"/>
</g>
<!-- Node15&#45;&gt;Node21 -->
<g id="edge47" class="edge">
<title>Node15&#45;&gt;Node21</title>
<path fill="none" stroke="#63b8ff" d="M571.63,-332.05C640.85,-322.06 773.54,-302.9 845.21,-292.55"/>
<polygon fill="#63b8ff" stroke="#63b8ff" points="845.69,-296.01 855.09,-291.12 844.69,-289.08 845.69,-296.01"/>
</g>
<!-- Node23 -->
<g id="node23" class="node">
<title>Node23</title>
<g id="a_node23"><a xlink:title=" ">
<polygon fill="#e0e0e0" stroke="#999999" points="1160,-239 1066,-239 1066,-220 1160,-220 1160,-239"/>
<text text-anchor="middle" x="1113" y="-227" font-family="Helvetica,sans-Serif" font-size="10.00">tabulate/table.hpp</text>
</a>
</g>
</g>
<!-- Node15&#45;&gt;Node23 -->
<g id="edge59" class="edge">
<title>Node15&#45;&gt;Node23</title>
<path fill="none" stroke="#63b8ff" d="M571.69,-337.72C678.71,-335.35 946.96,-326.27 1030,-294 1056.29,-283.78 1081.27,-262.55 1096.82,-247.46"/>
<polygon fill="#63b8ff" stroke="#63b8ff" points="1099.19,-250.04 1103.76,-240.48 1094.23,-245.1 1099.19,-250.04"/>
</g>
<!-- Node19&#45;&gt;Node13 -->
<g id="edge40" class="edge">
<title>Node19&#45;&gt;Node13</title>
<path fill="none" stroke="#63b8ff" d="M151.08,-274.51C163.56,-266.54 182.02,-254.75 196.69,-245.38"/>
<polygon fill="#63b8ff" stroke="#63b8ff" points="198.31,-248.5 204.85,-240.17 194.54,-242.6 198.31,-248.5"/>
</g>
<!-- Node20&#45;&gt;Node2 -->
<g id="edge43" class="edge">
<title>Node20&#45;&gt;Node2</title>
<path fill="none" stroke="#63b8ff" d="M230.61,-274.62C269.87,-234.22 431.16,-69.21 460,-55 504.06,-33.28 645.41,-19.21 714.4,-13.45"/>
<polygon fill="#63b8ff" stroke="#63b8ff" points="714.42,-16.96 724.1,-12.66 713.85,-9.99 714.42,-16.96"/>
</g>
<!-- Node20&#45;&gt;Node13 -->
<g id="edge42" class="edge">
<title>Node20&#45;&gt;Node13</title>
<path fill="none" stroke="#63b8ff" d="M221.67,-274.75C221.43,-268.27 221.08,-259.16 220.77,-250.9"/>
<polygon fill="#63b8ff" stroke="#63b8ff" points="224.27,-250.82 220.39,-240.95 217.27,-251.08 224.27,-250.82"/>
</g>
<!-- Node21&#45;&gt;Node2 -->
<g id="edge48" class="edge">
<title>Node21&#45;&gt;Node2</title>
<path fill="none" stroke="#63b8ff" d="M896.98,-274.66C901.84,-261.35 912.62,-236.01 929,-220 953.74,-195.82 968.85,-202.62 998,-184 1070.14,-137.93 1197.97,-118.88 1141,-55 1118,-29.22 885.69,-16.28 791.93,-12.08"/>
<polygon fill="#63b8ff" stroke="#63b8ff" points="792.08,-8.58 781.94,-11.64 791.78,-15.58 792.08,-8.58"/>
</g>
<!-- Node21&#45;&gt;Node3 -->
<g id="edge49" class="edge">
<title>Node21&#45;&gt;Node3</title>
<path fill="none" stroke="#63b8ff" d="M856.76,-281.35C765.22,-275.8 531.19,-259.96 456,-239 392.52,-221.3 322,-241.4 322,-175.5 322,-175.5 322,-175.5 322,-118.5 322,-86.54 333.99,-51.03 342.55,-29.75"/>
<polygon fill="#63b8ff" stroke="#63b8ff" points="345.73,-31.22 346.38,-20.64 339.28,-28.5 345.73,-31.22"/>
</g>
<!-- Node21&#45;&gt;Node5 -->
<g id="edge57" class="edge">
<title>Node21&#45;&gt;Node5</title>
<path fill="none" stroke="#63b8ff" d="M856.7,-277.16C852.09,-276.41 847.44,-275.68 843,-275 755.5,-261.67 654.36,-247.97 589.13,-239.36"/>
<polygon fill="#63b8ff" stroke="#63b8ff" points="589.65,-235.89 579.28,-238.06 588.74,-242.83 589.65,-235.89"/>
</g>
<!-- Node21&#45;&gt;Node6 -->
<g id="edge50" class="edge">
<title>Node21&#45;&gt;Node6</title>
<path fill="none" stroke="#63b8ff" d="M856.71,-277.22C809.57,-268.85 731.47,-253.41 706,-239 685.95,-227.66 668.18,-207.91 656.85,-193.44"/>
<polygon fill="#63b8ff" stroke="#63b8ff" points="659.81,-191.54 651.01,-185.64 654.21,-195.74 659.81,-191.54"/>
</g>
<!-- Node21&#45;&gt;Node7 -->
<g id="edge51" class="edge">
<title>Node21&#45;&gt;Node7</title>
<path fill="none" stroke="#63b8ff" d="M876.87,-274.59C861.42,-266.24 838.38,-252.97 820,-239 801.16,-224.68 781.77,-205.75 768.72,-192.3"/>
<polygon fill="#63b8ff" stroke="#63b8ff" points="771.62,-190.26 762.18,-185.45 766.55,-195.1 771.62,-190.26"/>
</g>
<!-- Node21&#45;&gt;Node8 -->
<g id="edge54" class="edge">
<title>Node21&#45;&gt;Node8</title>
<path fill="none" stroke="#63b8ff" d="M891.65,-274.86C888.63,-261.8 885,-236.79 896,-220 916.48,-188.74 940.51,-204.13 972,-184 1020.88,-152.74 1071.5,-106.57 1097.06,-82.12"/>
<polygon fill="#63b8ff" stroke="#63b8ff" points="1099.16,-84.95 1103.92,-75.48 1094.29,-79.92 1099.16,-84.95"/>
</g>
<!-- Node21&#45;&gt;Node10 -->
<g id="edge52" class="edge">
<title>Node21&#45;&gt;Node10</title>
<path fill="none" stroke="#63b8ff" d="M871.26,-274.61C850.66,-266.27 819.69,-253.01 794,-239 709.2,-192.76 622.7,-115.38 587,-81.83"/>
<polygon fill="#63b8ff" stroke="#63b8ff" points="589.81,-79.68 580.15,-75.34 585,-84.76 589.81,-79.68"/>
</g>
<!-- Node21&#45;&gt;Node11 -->
<g id="edge53" class="edge">
<title>Node21&#45;&gt;Node11</title>
<path fill="none" stroke="#63b8ff" d="M883.84,-274.81C875.1,-266.6 863.1,-253.43 858,-239 855.18,-231.04 856.12,-228.23 858,-220 864.89,-189.85 882.15,-158.21 893.97,-138.91"/>
<polygon fill="#63b8ff" stroke="#63b8ff" points="896.85,-140.92 899.23,-130.6 890.93,-137.18 896.85,-140.92"/>
</g>
<!-- Node21&#45;&gt;Node22 -->
<g id="edge55" class="edge">
<title>Node21&#45;&gt;Node22</title>
<path fill="none" stroke="#63b8ff" d="M907.57,-274.51C919.48,-266.62 937.05,-254.98 951.13,-245.65"/>
<polygon fill="#63b8ff" stroke="#63b8ff" points="952.96,-248.63 959.37,-240.19 949.1,-242.8 952.96,-248.63"/>
</g>
<!-- Node21&#45;&gt;Node23 -->
<g id="edge58" class="edge">
<title>Node21&#45;&gt;Node23</title>
<path fill="none" stroke="#63b8ff" d="M931.15,-274.51C967.99,-265.59 1024.62,-251.89 1064.88,-242.15"/>
<polygon fill="#63b8ff" stroke="#63b8ff" points="1065.67,-245.56 1074.56,-239.8 1064.02,-238.75 1065.67,-245.56"/>
</g>
<!-- Node22&#45;&gt;Node4 -->
<g id="edge56" class="edge">
<title>Node22&#45;&gt;Node4</title>
<path fill="none" stroke="#63b8ff" d="M967.23,-219.75C961.68,-212.58 953.66,-202.2 946.77,-193.3"/>
<polygon fill="#63b8ff" stroke="#63b8ff" points="949.73,-191.41 940.84,-185.64 944.19,-195.69 949.73,-191.41"/>
</g>
<!-- Node25&#45;&gt;Node2 -->
<g id="edge63" class="edge">
<title>Node25&#45;&gt;Node2</title>
<path fill="none" stroke="#63b8ff" d="M1196.36,-330.31C1233.59,-319.39 1295.26,-300.66 1304,-294 1330.91,-273.49 1346,-264.34 1346,-230.5 1346,-230.5 1346,-230.5 1346,-118.5 1346,-31.15 1245.27,-73.97 1160,-55 1026.91,-25.38 864.76,-15.17 791.82,-11.9"/>
<polygon fill="#63b8ff" stroke="#63b8ff" points="792.14,-8.41 782,-11.49 791.84,-15.41 792.14,-8.41"/>
</g>
<!-- Node25&#45;&gt;Node5 -->
<g id="edge67" class="edge">
<title>Node25&#45;&gt;Node5</title>
<path fill="none" stroke="#63b8ff" d="M1139.67,-335.08C1083.76,-328.21 955.34,-311.87 848,-294 751.13,-277.87 638.9,-255.2 574.3,-241.76"/>
<polygon fill="#63b8ff" stroke="#63b8ff" points="575.18,-238.37 564.68,-239.76 573.75,-245.22 575.18,-238.37"/>
</g>
<!-- Node25&#45;&gt;Node7 -->
<g id="edge65" class="edge">
<title>Node25&#45;&gt;Node7</title>
<path fill="none" stroke="#63b8ff" d="M1171.58,-329.68C1179.76,-307.93 1197.05,-251.22 1169,-220 1156.72,-206.33 903.79,-186.46 798.44,-178.74"/>
<polygon fill="#63b8ff" stroke="#63b8ff" points="798.97,-175.27 788.74,-178.03 798.46,-182.25 798.97,-175.27"/>
</g>
<!-- Node25&#45;&gt;Node8 -->
<g id="edge62" class="edge">
<title>Node25&#45;&gt;Node8</title>
<path fill="none" stroke="#63b8ff" d="M1196.3,-336.96C1225.04,-333.72 1268.19,-323.83 1289,-294 1293.83,-287.07 1290.91,-283.23 1289,-275 1270.52,-195.42 1266.17,-167.35 1208,-110 1189.75,-92.01 1162.84,-80.29 1142.49,-73.42"/>
<polygon fill="#63b8ff" stroke="#63b8ff" points="1143.69,-70.13 1133.1,-70.46 1141.59,-76.8 1143.69,-70.13"/>
</g>
<!-- Node25&#45;&gt;Node11 -->
<g id="edge66" class="edge">
<title>Node25&#45;&gt;Node11</title>
<path fill="none" stroke="#63b8ff" d="M1174.59,-329.51C1180.47,-320.9 1188.65,-307.28 1192,-294 1196.59,-275.82 1195.38,-230.13 1188,-220 1131,-141.75 1007.4,-124.7 944.48,-121.22"/>
<polygon fill="#63b8ff" stroke="#63b8ff" points="944.77,-117.72 934.62,-120.77 944.45,-124.72 944.77,-117.72"/>
</g>
<!-- Node25&#45;&gt;Node21 -->
<g id="edge68" class="edge">
<title>Node25&#45;&gt;Node21</title>
<path fill="none" stroke="#63b8ff" d="M1139.71,-333.03C1093.15,-324.02 999.83,-305.97 942.55,-294.89"/>
<polygon fill="#63b8ff" stroke="#63b8ff" points="943.22,-291.46 932.73,-292.99 941.89,-298.33 943.22,-291.46"/>
</g>
<!-- Node25&#45;&gt;Node23 -->
<g id="edge69" class="edge">
<title>Node25&#45;&gt;Node23</title>
<path fill="none" stroke="#63b8ff" d="M1163.5,-329.66C1154.64,-312.26 1134.74,-273.19 1122.74,-249.62"/>
<polygon fill="#63b8ff" stroke="#63b8ff" points="1125.91,-248.13 1118.25,-240.81 1119.67,-251.31 1125.91,-248.13"/>
</g>
<!-- Node26 -->
<g id="node26" class="node">
<title>Node26</title>
<g id="a_node26"><a xlink:title=" ">
<polygon fill="#e0e0e0" stroke="#999999" points="1279.5,-294 1234.5,-294 1234.5,-275 1279.5,-275 1279.5,-294"/>
<text text-anchor="middle" x="1257" y="-282" font-family="Helvetica,sans-Serif" font-size="10.00">cstdlib</text>
</a>
</g>
</g>
<!-- Node25&#45;&gt;Node26 -->
<g id="edge64" class="edge">
<title>Node25&#45;&gt;Node26</title>
<path fill="none" stroke="#63b8ff" d="M1183.1,-329.51C1196.6,-321.47 1216.65,-309.53 1232.46,-300.11"/>
<polygon fill="#63b8ff" stroke="#63b8ff" points="1234.02,-303.26 1240.82,-295.13 1230.44,-297.24 1234.02,-303.26"/>
</g>
</g>
</svg>
