<?xml version="1.0" encoding="UTF-8" standalone="no"?>
<!DOCTYPE svg PUBLIC "-//W3C//DTD SVG 1.1//EN"
 "http://www.w3.org/Graphics/SVG/1.1/DTD/svg11.dtd">
<!-- Generated by graphviz version 7.0.4 (20221203.1631)
 -->
<!-- Title: include/monster.hpp Pages: 1 -->
<svg width="166pt" height="137pt"
 viewBox="0.00 0.00 166.00 137.00" xmlns="http://www.w3.org/2000/svg" xmlns:xlink="http://www.w3.org/1999/xlink">
<g id="graph0" class="graph" transform="scale(1 1) rotate(0) translate(4 133)">
<title>include/monster.hpp</title>
<!-- Node1 -->
<g id="node1" class="node">
<title>Node1</title>
<g id="a_node1"><a xlink:title="Classe principal com a lógica de monster.">
<polygon fill="#999999" stroke="#666666" points="104,-129 0,-129 0,-110 104,-110 104,-129"/>
<text text-anchor="middle" x="52" y="-117" font-family="Helvetica,sans-Serif" font-size="10.00">include/monster.hpp</text>
</a>
</g>
</g>
<!-- Node2 -->
<g id="node2" class="node">
<title>Node2</title>
<g id="a_node2"><a xlink:title=" ">
<polygon fill="#e0e0e0" stroke="#999999" points="51.5,-19 10.5,-19 10.5,0 51.5,0 51.5,-19"/>
<text text-anchor="middle" x="31" y="-7" font-family="Helvetica,sans-Serif" font-size="10.00">string</text>
</a>
</g>
</g>
<!-- Node1&#45;&gt;Node2 -->
<g id="edge1" class="edge">
<title>Node1&#45;&gt;Node2</title>
<path fill="none" stroke="#63b8ff" d="M43.23,-109.52C35.68,-101.13 25.34,-87.83 21,-74 16.49,-59.64 19.51,-42.78 23.38,-30.05"/>
<polygon fill="#63b8ff" stroke="#63b8ff" points="26.63,-31.34 26.62,-20.74 20.02,-29.03 26.63,-31.34"/>
</g>
<!-- Node3 -->
<g id="node3" class="node">
<title>Node3</title>
<g id="a_node3"><a xlink:title=" ">
<polygon fill="#e0e0e0" stroke="#999999" points="74,-74 30,-74 30,-55 74,-55 74,-74"/>
<text text-anchor="middle" x="52" y="-62" font-family="Helvetica,sans-Serif" font-size="10.00">cmath</text>
</a>
</g>
</g>
<!-- Node1&#45;&gt;Node3 -->
<g id="edge2" class="edge">
<title>Node1&#45;&gt;Node3</title>
<path fill="none" stroke="#63b8ff" d="M52,-109.75C52,-103.27 52,-94.16 52,-85.9"/>
<polygon fill="#63b8ff" stroke="#63b8ff" points="55.5,-85.96 52,-75.96 48.5,-85.96 55.5,-85.96"/>
</g>
<!-- Node4 -->
<g id="node4" class="node">
<title>Node4</title>
<g id="a_node4"><a xlink:href="utilities_8hpp.html" target="_top" xlink:title="Classe principal com a lógica de utilities.">
<polygon fill="white" stroke="#666666" points="158,-74 92,-74 92,-55 158,-55 158,-74"/>
<text text-anchor="middle" x="125" y="-62" font-family="Helvetica,sans-Serif" font-size="10.00">utilities.hpp</text>
</a>
</g>
</g>
<!-- Node1&#45;&gt;Node4 -->
<g id="edge3" class="edge">
<title>Node1&#45;&gt;Node4</title>
<path fill="none" stroke="#63b8ff" d="M64.38,-109.51C75.15,-101.7 90.97,-90.21 103.75,-80.93"/>
<polygon fill="#63b8ff" stroke="#63b8ff" points="105.54,-83.95 111.57,-75.25 101.43,-78.29 105.54,-83.95"/>
</g>
<!-- Node4&#45;&gt;Node2 -->
<g id="edge4" class="edge">
<title>Node4&#45;&gt;Node2</title>
<path fill="none" stroke="#63b8ff" d="M109.05,-54.51C94.65,-46.39 73.21,-34.3 56.44,-24.85"/>
<polygon fill="#63b8ff" stroke="#63b8ff" points="58.46,-21.96 48.03,-20.1 55.02,-28.06 58.46,-21.96"/>
</g>
<!-- Node5 -->
<g id="node5" class="node">
<title>Node5</title>
<g id="a_node5"><a xlink:title=" ">
<polygon fill="#e0e0e0" stroke="#999999" points="152,-19 98,-19 98,0 152,0 152,-19"/>
<text text-anchor="middle" x="125" y="-7" font-family="Helvetica,sans-Serif" font-size="10.00">iostream</text>
</a>
</g>
</g>
<!-- Node4&#45;&gt;Node5 -->
<g id="edge5" class="edge">
<title>Node4&#45;&gt;Node5</title>
<path fill="none" stroke="#63b8ff" d="M125,-54.75C125,-48.27 125,-39.16 125,-30.9"/>
<polygon fill="#63b8ff" stroke="#63b8ff" points="128.5,-30.96 125,-20.96 121.5,-30.96 128.5,-30.96"/>
</g>
</g>
</svg>
