<?xml version="1.0" encoding="UTF-8" standalone="no"?>
<!DOCTYPE svg PUBLIC "-//W3C//DTD SVG 1.1//EN"
 "http://www.w3.org/Graphics/SVG/1.1/DTD/svg11.dtd">
<!-- Generated by graphviz version 7.0.4 (20221203.1631)
 -->
<!-- Title: src/monster.cpp Pages: 1 -->
<svg width="158pt" height="192pt"
 viewBox="0.00 0.00 157.50 192.00" xmlns="http://www.w3.org/2000/svg" xmlns:xlink="http://www.w3.org/1999/xlink">
<g id="graph0" class="graph" transform="scale(1 1) rotate(0) translate(4 188)">
<title>src/monster.cpp</title>
<!-- Node1 -->
<g id="node1" class="node">
<title>Node1</title>
<g id="a_node1"><a xlink:title=" ">
<polygon fill="#999999" stroke="#666666" points="87,-184 0,-184 0,-165 87,-165 87,-184"/>
<text text-anchor="middle" x="43.5" y="-172" font-family="Helvetica,sans-Serif" font-size="10.00">src/monster.cpp</text>
</a>
</g>
</g>
<!-- Node2 -->
<g id="node2" class="node">
<title>Node2</title>
<g id="a_node2"><a xlink:href="monster_8hpp.html" target="_top" xlink:title="Classe principal com a lógica de monster.">
<polygon fill="white" stroke="#666666" points="79,-129 8,-129 8,-110 79,-110 79,-129"/>
<text text-anchor="middle" x="43.5" y="-117" font-family="Helvetica,sans-Serif" font-size="10.00">monster.hpp</text>
</a>
</g>
</g>
<!-- Node1&#45;&gt;Node2 -->
<g id="edge1" class="edge">
<title>Node1&#45;&gt;Node2</title>
<path fill="none" stroke="#63b8ff" d="M43.5,-164.75C43.5,-158.27 43.5,-149.16 43.5,-140.9"/>
<polygon fill="#63b8ff" stroke="#63b8ff" points="47,-140.96 43.5,-130.96 40,-140.96 47,-140.96"/>
</g>
<!-- Node3 -->
<g id="node3" class="node">
<title>Node3</title>
<g id="a_node3"><a xlink:title=" ">
<polygon fill="#e0e0e0" stroke="#999999" points="43,-19 2,-19 2,0 43,0 43,-19"/>
<text text-anchor="middle" x="22.5" y="-7" font-family="Helvetica,sans-Serif" font-size="10.00">string</text>
</a>
</g>
</g>
<!-- Node2&#45;&gt;Node3 -->
<g id="edge2" class="edge">
<title>Node2&#45;&gt;Node3</title>
<path fill="none" stroke="#63b8ff" d="M34.73,-109.52C27.18,-101.13 16.84,-87.83 12.5,-74 7.99,-59.64 11.01,-42.78 14.88,-30.05"/>
<polygon fill="#63b8ff" stroke="#63b8ff" points="18.13,-31.34 18.12,-20.74 11.52,-29.03 18.13,-31.34"/>
</g>
<!-- Node4 -->
<g id="node4" class="node">
<title>Node4</title>
<g id="a_node4"><a xlink:title=" ">
<polygon fill="#e0e0e0" stroke="#999999" points="65.5,-74 21.5,-74 21.5,-55 65.5,-55 65.5,-74"/>
<text text-anchor="middle" x="43.5" y="-62" font-family="Helvetica,sans-Serif" font-size="10.00">cmath</text>
</a>
</g>
</g>
<!-- Node2&#45;&gt;Node4 -->
<g id="edge3" class="edge">
<title>Node2&#45;&gt;Node4</title>
<path fill="none" stroke="#63b8ff" d="M43.5,-109.75C43.5,-103.27 43.5,-94.16 43.5,-85.9"/>
<polygon fill="#63b8ff" stroke="#63b8ff" points="47,-85.96 43.5,-75.96 40,-85.96 47,-85.96"/>
</g>
<!-- Node5 -->
<g id="node5" class="node">
<title>Node5</title>
<g id="a_node5"><a xlink:href="utilities_8hpp.html" target="_top" xlink:title="Classe principal com a lógica de utilities.">
<polygon fill="white" stroke="#666666" points="149.5,-74 83.5,-74 83.5,-55 149.5,-55 149.5,-74"/>
<text text-anchor="middle" x="116.5" y="-62" font-family="Helvetica,sans-Serif" font-size="10.00">utilities.hpp</text>
</a>
</g>
</g>
<!-- Node2&#45;&gt;Node5 -->
<g id="edge4" class="edge">
<title>Node2&#45;&gt;Node5</title>
<path fill="none" stroke="#63b8ff" d="M55.88,-109.51C66.65,-101.7 82.47,-90.21 95.25,-80.93"/>
<polygon fill="#63b8ff" stroke="#63b8ff" points="97.04,-83.95 103.07,-75.25 92.93,-78.29 97.04,-83.95"/>
</g>
<!-- Node5&#45;&gt;Node3 -->
<g id="edge5" class="edge">
<title>Node5&#45;&gt;Node3</title>
<path fill="none" stroke="#63b8ff" d="M100.55,-54.51C86.15,-46.39 64.71,-34.3 47.94,-24.85"/>
<polygon fill="#63b8ff" stroke="#63b8ff" points="49.96,-21.96 39.53,-20.1 46.52,-28.06 49.96,-21.96"/>
</g>
<!-- Node6 -->
<g id="node6" class="node">
<title>Node6</title>
<g id="a_node6"><a xlink:title=" ">
<polygon fill="#e0e0e0" stroke="#999999" points="143.5,-19 89.5,-19 89.5,0 143.5,0 143.5,-19"/>
<text text-anchor="middle" x="116.5" y="-7" font-family="Helvetica,sans-Serif" font-size="10.00">iostream</text>
</a>
</g>
</g>
<!-- Node5&#45;&gt;Node6 -->
<g id="edge6" class="edge">
<title>Node5&#45;&gt;Node6</title>
<path fill="none" stroke="#63b8ff" d="M116.5,-54.75C116.5,-48.27 116.5,-39.16 116.5,-30.9"/>
<polygon fill="#63b8ff" stroke="#63b8ff" points="120,-30.96 116.5,-20.96 113,-30.96 120,-30.96"/>
</g>
</g>
</svg>
