<?xml version="1.0" encoding="UTF-8" standalone="no"?>
<!DOCTYPE svg PUBLIC "-//W3C//DTD SVG 1.1//EN"
 "http://www.w3.org/Graphics/SVG/1.1/DTD/svg11.dtd">
<!-- Generated by graphviz version 7.0.4 (20221203.1631)
 -->
<!-- Title: include/playableCharacter.hpp Pages: 1 -->
<svg width="477pt" height="247pt"
 viewBox="0.00 0.00 476.50 247.00" xmlns="http://www.w3.org/2000/svg" xmlns:xlink="http://www.w3.org/1999/xlink">
<g id="graph0" class="graph" transform="scale(1 1) rotate(0) translate(4 243)">
<title>include/playableCharacter.hpp</title>
<!-- Node1 -->
<g id="node1" class="node">
<title>Node1</title>
<g id="a_node1"><a xlink:title="Classe principal com a l贸gica de playableCharacter.">
<polygon fill="#999999" stroke="#666666" points="313.5,-239 166.5,-239 166.5,-220 313.5,-220 313.5,-239"/>
<text text-anchor="middle" x="240" y="-227" font-family="Helvetica,sans-Serif" font-size="10.00">include/playableCharacter.hpp</text>
</a>
</g>
</g>
<!-- Node2 -->
<g id="node2" class="node">
<title>Node2</title>
<g id="a_node2"><a xlink:title=" ">
<polygon fill="#e0e0e0" stroke="#999999" points="54,-19 0,-19 0,0 54,0 54,-19"/>
<text text-anchor="middle" x="27" y="-7" font-family="Helvetica,sans-Serif" font-size="10.00">iostream</text>
</a>
</g>
</g>
<!-- Node1&#45;&gt;Node2 -->
<g id="edge1" class="edge">
<title>Node1&#45;&gt;Node2</title>
<path fill="none" stroke="#63b8ff" d="M213.47,-219.55C173.74,-205.2 97.92,-173.99 46,-129 23.35,-109.38 16.1,-102.55 7,-74 2.17,-58.84 8.32,-41.62 15.04,-28.94"/>
<polygon fill="#63b8ff" stroke="#63b8ff" points="17.99,-30.83 20.05,-20.44 11.96,-27.27 17.99,-30.83"/>
</g>
<!-- Node3 -->
<g id="node3" class="node">
<title>Node3</title>
<g id="a_node3"><a xlink:title=" ">
<polygon fill="#e0e0e0" stroke="#999999" points="314.5,-19 273.5,-19 273.5,0 314.5,0 314.5,-19"/>
<text text-anchor="middle" x="294" y="-7" font-family="Helvetica,sans-Serif" font-size="10.00">string</text>
</a>
</g>
</g>
<!-- Node1&#45;&gt;Node3 -->
<g id="edge2" class="edge">
<title>Node1&#45;&gt;Node3</title>
<path fill="none" stroke="#63b8ff" d="M252.12,-219.81C280.19,-198.75 348.77,-141.68 368,-74 370.31,-65.88 372.16,-62.35 368,-55 358.83,-38.78 341.11,-27.82 325.32,-20.83"/>
<polygon fill="#63b8ff" stroke="#63b8ff" points="326.8,-17.66 316.22,-17.18 324.2,-24.16 326.8,-17.66"/>
</g>
<!-- Node4 -->
<g id="node4" class="node">
<title>Node4</title>
<g id="a_node4"><a xlink:title=" ">
<polygon fill="#e0e0e0" stroke="#999999" points="468.5,-184 439.5,-184 439.5,-165 468.5,-165 468.5,-184"/>
<text text-anchor="middle" x="454" y="-172" font-family="Helvetica,sans-Serif" font-size="10.00">list</text>
</a>
</g>
</g>
<!-- Node1&#45;&gt;Node4 -->
<g id="edge3" class="edge">
<title>Node1&#45;&gt;Node4</title>
<path fill="none" stroke="#63b8ff" d="M279.84,-219.51C317.4,-210.9 375.21,-197.28 425,-184 426.17,-183.69 427.36,-183.37 428.56,-183.03"/>
<polygon fill="#63b8ff" stroke="#63b8ff" points="429.18,-186.5 437.83,-180.38 427.25,-179.77 429.18,-186.5"/>
</g>
<!-- Node5 -->
<g id="node5" class="node">
<title>Node5</title>
<g id="a_node5"><a xlink:href="weapon_8hpp.html" target="_top" xlink:title="Classe principal responsavel pela l贸gica de weapon.">
<polygon fill="white" stroke="#666666" points="274,-184 206,-184 206,-165 274,-165 274,-184"/>
<text text-anchor="middle" x="240" y="-172" font-family="Helvetica,sans-Serif" font-size="10.00">weapon.hpp</text>
</a>
</g>
</g>
<!-- Node1&#45;&gt;Node5 -->
<g id="edge4" class="edge">
<title>Node1&#45;&gt;Node5</title>
<path fill="none" stroke="#63b8ff" d="M240,-219.75C240,-213.27 240,-204.16 240,-195.9"/>
<polygon fill="#63b8ff" stroke="#63b8ff" points="243.5,-195.96 240,-185.96 236.5,-195.96 243.5,-195.96"/>
</g>
<!-- Node8 -->
<g id="node8" class="node">
<title>Node8</title>
<g id="a_node8"><a xlink:href="utilities_8hpp.html" target="_top" xlink:title="Classe principal com a l贸gica de utilities.">
<polygon fill="white" stroke="#666666" points="90,-74 24,-74 24,-55 90,-55 90,-74"/>
<text text-anchor="middle" x="57" y="-62" font-family="Helvetica,sans-Serif" font-size="10.00">utilities.hpp</text>
</a>
</g>
</g>
<!-- Node1&#45;&gt;Node8 -->
<g id="edge19" class="edge">
<title>Node1&#45;&gt;Node8</title>
<path fill="none" stroke="#63b8ff" d="M229.9,-219.5C200.21,-193.06 112.92,-115.31 74.97,-81.5"/>
<polygon fill="#63b8ff" stroke="#63b8ff" points="77.77,-79.31 67.98,-75.28 73.11,-84.54 77.77,-79.31"/>
</g>
<!-- Node5&#45;&gt;Node2 -->
<g id="edge7" class="edge">
<title>Node5&#45;&gt;Node2</title>
<path fill="none" stroke="#63b8ff" d="M205.82,-169.91C153.99,-162.4 57.11,-139.85 15,-74 6.5,-60.71 10.96,-42.86 16.71,-29.47"/>
<polygon fill="#63b8ff" stroke="#63b8ff" points="19.68,-31.35 20.92,-20.83 13.39,-28.29 19.68,-31.35"/>
</g>
<!-- Node5&#45;&gt;Node3 -->
<g id="edge5" class="edge">
<title>Node5&#45;&gt;Node3</title>
<path fill="none" stroke="#63b8ff" d="M257.99,-164.66C285.14,-150.13 335.4,-118.33 354,-74 362.41,-53.96 342.62,-36.47 323.55,-24.94"/>
<polygon fill="#63b8ff" stroke="#63b8ff" points="325.27,-21.89 314.84,-20.07 321.85,-28 325.27,-21.89"/>
</g>
<!-- Node6 -->
<g id="node6" class="node">
<title>Node6</title>
<g id="a_node6"><a xlink:title=" ">
<polygon fill="#e0e0e0" stroke="#999999" points="344.5,-74 309.5,-74 309.5,-55 344.5,-55 344.5,-74"/>
<text text-anchor="middle" x="327" y="-62" font-family="Helvetica,sans-Serif" font-size="10.00">map</text>
</a>
</g>
</g>
<!-- Node5&#45;&gt;Node6 -->
<g id="edge6" class="edge">
<title>Node5&#45;&gt;Node6</title>
<path fill="none" stroke="#63b8ff" d="M247.12,-164.66C261.39,-146.94 293.76,-106.77 312.62,-83.35"/>
<polygon fill="#63b8ff" stroke="#63b8ff" points="315.28,-85.62 318.83,-75.64 309.83,-81.23 315.28,-85.62"/>
</g>
<!-- Node7 -->
<g id="node7" class="node">
<title>Node7</title>
<g id="a_node7"><a xlink:title=" ">
<polygon fill="#e0e0e0" stroke="#999999" points="291.5,-74 244.5,-74 244.5,-55 291.5,-55 291.5,-74"/>
<text text-anchor="middle" x="268" y="-62" font-family="Helvetica,sans-Serif" font-size="10.00">iterator</text>
</a>
</g>
</g>
<!-- Node5&#45;&gt;Node7 -->
<g id="edge8" class="edge">
<title>Node5&#45;&gt;Node7</title>
<path fill="none" stroke="#63b8ff" d="M242.29,-164.66C246.74,-147.5 256.66,-109.26 262.79,-85.6"/>
<polygon fill="#63b8ff" stroke="#63b8ff" points="266.18,-86.48 265.3,-75.93 259.4,-84.73 266.18,-86.48"/>
</g>
<!-- Node5&#45;&gt;Node8 -->
<g id="edge9" class="edge">
<title>Node5&#45;&gt;Node8</title>
<path fill="none" stroke="#63b8ff" d="M225.02,-164.66C193.52,-146.07 120.15,-102.77 81.62,-80.03"/>
<polygon fill="#63b8ff" stroke="#63b8ff" points="83.88,-77.3 73.49,-75.23 80.32,-83.33 83.88,-77.3"/>
</g>
<!-- Node9 -->
<g id="node9" class="node">
<title>Node9</title>
<g id="a_node9"><a xlink:href="item_8hpp.html" target="_top" xlink:title="Classe principal com a l贸gica dos itens.">
<polygon fill="white" stroke="#666666" points="240,-129 186,-129 186,-110 240,-110 240,-129"/>
<text text-anchor="middle" x="213" y="-117" font-family="Helvetica,sans-Serif" font-size="10.00">item.hpp</text>
</a>
</g>
</g>
<!-- Node5&#45;&gt;Node9 -->
<g id="edge12" class="edge">
<title>Node5&#45;&gt;Node9</title>
<path fill="none" stroke="#63b8ff" d="M235.54,-164.75C232.05,-157.88 227.05,-148.08 222.65,-139.45"/>
<polygon fill="#63b8ff" stroke="#63b8ff" points="225.9,-138.11 218.24,-130.79 219.66,-141.29 225.9,-138.11"/>
</g>
<!-- Node8&#45;&gt;Node2 -->
<g id="edge11" class="edge">
<title>Node8&#45;&gt;Node2</title>
<path fill="none" stroke="#63b8ff" d="M52.05,-54.75C48.16,-47.88 42.61,-38.08 37.72,-29.45"/>
<polygon fill="#63b8ff" stroke="#63b8ff" points="40.78,-27.74 32.81,-20.76 34.69,-31.19 40.78,-27.74"/>
</g>
<!-- Node8&#45;&gt;Node3 -->
<g id="edge10" class="edge">
<title>Node8&#45;&gt;Node3</title>
<path fill="none" stroke="#63b8ff" d="M90.45,-56.02C136.13,-45.8 217.45,-27.62 262.23,-17.6"/>
<polygon fill="#63b8ff" stroke="#63b8ff" points="262.84,-21.05 271.84,-15.46 261.31,-14.22 262.84,-21.05"/>
</g>
<!-- Node9&#45;&gt;Node2 -->
<g id="edge14" class="edge">
<title>Node9&#45;&gt;Node2</title>
<path fill="none" stroke="#63b8ff" d="M197.78,-109.66C165.83,-91.11 91.5,-47.95 52.27,-25.18"/>
<polygon fill="#63b8ff" stroke="#63b8ff" points="54.15,-22.21 43.74,-20.22 50.63,-28.27 54.15,-22.21"/>
</g>
<!-- Node9&#45;&gt;Node3 -->
<g id="edge15" class="edge">
<title>Node9&#45;&gt;Node3</title>
<path fill="none" stroke="#63b8ff" d="M214.4,-109.52C216.79,-96.48 222.64,-71.98 235,-55 243.64,-43.12 256.35,-32.97 267.76,-25.38"/>
<polygon fill="#63b8ff" stroke="#63b8ff" points="269.43,-28.46 276.04,-20.18 265.71,-22.53 269.43,-28.46"/>
</g>
<!-- Node9&#45;&gt;Node6 -->
<g id="edge16" class="edge">
<title>Node9&#45;&gt;Node6</title>
<path fill="none" stroke="#63b8ff" d="M232.34,-109.51C250.54,-101.05 278.01,-88.28 298.68,-78.67"/>
<polygon fill="#63b8ff" stroke="#63b8ff" points="300.11,-81.86 307.7,-74.47 297.16,-75.52 300.11,-81.86"/>
</g>
<!-- Node9&#45;&gt;Node7 -->
<g id="edge17" class="edge">
<title>Node9&#45;&gt;Node7</title>
<path fill="none" stroke="#63b8ff" d="M222.08,-109.75C229.84,-102.27 241.21,-91.32 250.7,-82.17"/>
<polygon fill="#63b8ff" stroke="#63b8ff" points="252.86,-84.95 257.63,-75.49 248,-79.91 252.86,-84.95"/>
</g>
<!-- Node9&#45;&gt;Node8 -->
<g id="edge18" class="edge">
<title>Node9&#45;&gt;Node8</title>
<path fill="none" stroke="#63b8ff" d="M186.54,-109.51C161.14,-100.88 122.53,-87.76 94.08,-78.1"/>
<polygon fill="#63b8ff" stroke="#63b8ff" points="95.36,-74.84 84.77,-74.93 93.11,-81.46 95.36,-74.84"/>
</g>
<!-- Node10 -->
<g id="node10" class="node">
<title>Node10</title>
<g id="a_node10"><a xlink:title=" ">
<polygon fill="#e0e0e0" stroke="#999999" points="188,-74 146,-74 146,-55 188,-55 188,-74"/>
<text text-anchor="middle" x="167" y="-62" font-family="Helvetica,sans-Serif" font-size="10.00">vector</text>
</a>
</g>
</g>
<!-- Node9&#45;&gt;Node10 -->
<g id="edge13" class="edge">
<title>Node9&#45;&gt;Node10</title>
<path fill="none" stroke="#63b8ff" d="M205.4,-109.75C199.12,-102.5 189.99,-91.98 182.2,-83.02"/>
<polygon fill="#63b8ff" stroke="#63b8ff" points="184.95,-80.84 175.75,-75.59 179.66,-85.43 184.95,-80.84"/>
</g>
</g>
</svg>
