<?xml version="1.0" encoding="UTF-8" standalone="no"?>
<!DOCTYPE svg PUBLIC "-//W3C//DTD SVG 1.1//EN"
 "http://www.w3.org/Graphics/SVG/1.1/DTD/svg11.dtd">
<!-- Generated by graphviz version 7.0.4 (20221203.1631)
 -->
<!-- Title: src/shop.cpp Pages: 1 -->
<svg width="843pt" height="412pt"
 viewBox="0.00 0.00 843.00 412.00" xmlns="http://www.w3.org/2000/svg" xmlns:xlink="http://www.w3.org/1999/xlink">
<g id="graph0" class="graph" transform="scale(1 1) rotate(0) translate(4 408)">
<title>src/shop.cpp</title>
<!-- Node1 -->
<g id="node1" class="node">
<title>Node1</title>
<g id="a_node1"><a xlink:title=" ">
<polygon fill="#999999" stroke="#666666" points="671.5,-404 598.5,-404 598.5,-385 671.5,-385 671.5,-404"/>
<text text-anchor="middle" x="635" y="-392" font-family="Helvetica,sans-Serif" font-size="10.00">src/shop.cpp</text>
</a>
</g>
</g>
<!-- Node2 -->
<g id="node2" class="node">
<title>Node2</title>
<g id="a_node2"><a xlink:href="shop_8hpp.html" target="_top" xlink:title="Classe principal com a lógica do shop.">
<polygon fill="white" stroke="#666666" points="499,-349 443,-349 443,-330 499,-330 499,-349"/>
<text text-anchor="middle" x="471" y="-337" font-family="Helvetica,sans-Serif" font-size="10.00">shop.hpp</text>
</a>
</g>
</g>
<!-- Node1&#45;&gt;Node2 -->
<g id="edge1" class="edge">
<title>Node1&#45;&gt;Node2</title>
<path fill="none" stroke="#63b8ff" d="M607.18,-384.51C580.36,-375.84 539.54,-362.65 509.58,-352.97"/>
<polygon fill="#63b8ff" stroke="#63b8ff" points="510.71,-349.66 500.12,-349.91 508.56,-356.32 510.71,-349.66"/>
</g>
<!-- Node15 -->
<g id="node15" class="node">
<title>Node15</title>
<g id="a_node15"><a xlink:href="excecao_8hpp.html" target="_top" xlink:title=" ">
<polygon fill="white" stroke="#666666" points="835,-239 763,-239 763,-220 835,-220 835,-239"/>
<text text-anchor="middle" x="799" y="-227" font-family="Helvetica,sans-Serif" font-size="10.00">excecao.hpp</text>
</a>
</g>
</g>
<!-- Node1&#45;&gt;Node15 -->
<g id="edge40" class="edge">
<title>Node1&#45;&gt;Node15</title>
<path fill="none" stroke="#63b8ff" d="M660.87,-384.53C696.07,-370.88 758.19,-341.36 789,-294 797.39,-281.1 799.64,-263.67 799.94,-250.33"/>
<polygon fill="#63b8ff" stroke="#63b8ff" points="803.44,-250.54 799.78,-240.6 796.44,-250.65 803.44,-250.54"/>
</g>
<!-- Node3 -->
<g id="node3" class="node">
<title>Node3</title>
<g id="a_node3"><a xlink:title=" ">
<polygon fill="#e0e0e0" stroke="#999999" points="505.5,-74 470.5,-74 470.5,-55 505.5,-55 505.5,-74"/>
<text text-anchor="middle" x="488" y="-62" font-family="Helvetica,sans-Serif" font-size="10.00">map</text>
</a>
</g>
</g>
<!-- Node2&#45;&gt;Node3 -->
<g id="edge2" class="edge">
<title>Node2&#45;&gt;Node3</title>
<path fill="none" stroke="#63b8ff" d="M499.45,-335.67C549.56,-328.99 652.5,-307.22 697,-239 749.61,-158.35 585.34,-95.98 516.68,-74.03"/>
<polygon fill="#63b8ff" stroke="#63b8ff" points="517.82,-70.72 507.23,-71.09 515.74,-77.41 517.82,-70.72"/>
</g>
<!-- Node4 -->
<g id="node4" class="node">
<title>Node4</title>
<g id="a_node4"><a xlink:title=" ">
<polygon fill="#e0e0e0" stroke="#999999" points="122,-19 68,-19 68,0 122,0 122,-19"/>
<text text-anchor="middle" x="95" y="-7" font-family="Helvetica,sans-Serif" font-size="10.00">iostream</text>
</a>
</g>
</g>
<!-- Node2&#45;&gt;Node4 -->
<g id="edge3" class="edge">
<title>Node2&#45;&gt;Node4</title>
<path fill="none" stroke="#63b8ff" d="M442.6,-338.1C340.77,-335.93 0,-321.84 0,-230.5 0,-230.5 0,-230.5 0,-118.5 0,-76.69 40.64,-43.37 68.76,-25.32"/>
<polygon fill="#63b8ff" stroke="#63b8ff" points="70.47,-28.38 77.16,-20.17 66.81,-22.41 70.47,-28.38"/>
</g>
<!-- Node5 -->
<g id="node5" class="node">
<title>Node5</title>
<g id="a_node5"><a xlink:title=" ">
<polygon fill="#e0e0e0" stroke="#999999" points="779.5,-294 734.5,-294 734.5,-275 779.5,-275 779.5,-294"/>
<text text-anchor="middle" x="757" y="-282" font-family="Helvetica,sans-Serif" font-size="10.00">cstdlib</text>
</a>
</g>
</g>
<!-- Node2&#45;&gt;Node5 -->
<g id="edge4" class="edge">
<title>Node2&#45;&gt;Node5</title>
<path fill="none" stroke="#63b8ff" d="M499.47,-333.88C545.81,-326.25 640.4,-310.25 720,-294 721.16,-293.76 722.34,-293.52 723.54,-293.26"/>
<polygon fill="#63b8ff" stroke="#63b8ff" points="723.85,-296.78 732.86,-291.22 722.34,-289.94 723.85,-296.78"/>
</g>
<!-- Node6 -->
<g id="node6" class="node">
<title>Node6</title>
<g id="a_node6"><a xlink:href="weapon_8hpp.html" target="_top" xlink:title="Classe principal responsavel pela lógica de weapon.">
<polygon fill="white" stroke="#666666" points="282,-184 214,-184 214,-165 282,-165 282,-184"/>
<text text-anchor="middle" x="248" y="-172" font-family="Helvetica,sans-Serif" font-size="10.00">weapon.hpp</text>
</a>
</g>
</g>
<!-- Node2&#45;&gt;Node6 -->
<g id="edge5" class="edge">
<title>Node2&#45;&gt;Node6</title>
<path fill="none" stroke="#63b8ff" d="M442.53,-335.49C392.91,-328.53 291.73,-306.39 248,-239 239.64,-226.11 240.38,-208.44 242.79,-195.01"/>
<polygon fill="#63b8ff" stroke="#63b8ff" points="246.13,-196.13 244.93,-185.61 239.3,-194.58 246.13,-196.13"/>
</g>
<!-- Node10 -->
<g id="node10" class="node">
<title>Node10</title>
<g id="a_node10"><a xlink:href="item_8hpp.html" target="_top" xlink:title="Classe principal com a lógica dos itens.">
<polygon fill="white" stroke="#666666" points="186,-129 132,-129 132,-110 186,-110 186,-129"/>
<text text-anchor="middle" x="159" y="-117" font-family="Helvetica,sans-Serif" font-size="10.00">item.hpp</text>
</a>
</g>
</g>
<!-- Node2&#45;&gt;Node10 -->
<g id="edge20" class="edge">
<title>Node2&#45;&gt;Node10</title>
<path fill="none" stroke="#63b8ff" d="M442.78,-336.79C403.61,-333.39 331.52,-323.34 278,-294 220.33,-262.38 209.63,-242.21 179,-184 171.66,-170.05 166.46,-152.94 163.21,-139.99"/>
<polygon fill="#63b8ff" stroke="#63b8ff" points="166.69,-139.52 161.02,-130.57 159.88,-141.11 166.69,-139.52"/>
</g>
<!-- Node12 -->
<g id="node12" class="node">
<title>Node12</title>
<g id="a_node12"><a xlink:href="playable_character_8hpp.html" target="_top" xlink:title="Classe principal com a lógica de playableCharacter.">
<polygon fill="white" stroke="#666666" points="385.5,-239 272.5,-239 272.5,-220 385.5,-220 385.5,-239"/>
<text text-anchor="middle" x="329" y="-227" font-family="Helvetica,sans-Serif" font-size="10.00">playableCharacter.hpp</text>
</a>
</g>
</g>
<!-- Node2&#45;&gt;Node12 -->
<g id="edge21" class="edge">
<title>Node2&#45;&gt;Node12</title>
<path fill="none" stroke="#63b8ff" d="M459.38,-329.66C435.35,-311.39 379.93,-269.23 349.65,-246.21"/>
<polygon fill="#63b8ff" stroke="#63b8ff" points="352.06,-243.64 341.99,-240.38 347.83,-249.22 352.06,-243.64"/>
</g>
<!-- Node14 -->
<g id="node14" class="node">
<title>Node14</title>
<g id="a_node14"><a xlink:href="inventory_8hpp.html" target="_top" xlink:title="Classe principal com a lógica do inventário.">
<polygon fill="white" stroke="#666666" points="508,-294 434,-294 434,-275 508,-275 508,-294"/>
<text text-anchor="middle" x="471" y="-282" font-family="Helvetica,sans-Serif" font-size="10.00">inventory.hpp</text>
</a>
</g>
</g>
<!-- Node2&#45;&gt;Node14 -->
<g id="edge27" class="edge">
<title>Node2&#45;&gt;Node14</title>
<path fill="none" stroke="#63b8ff" d="M471,-329.75C471,-323.27 471,-314.16 471,-305.9"/>
<polygon fill="#63b8ff" stroke="#63b8ff" points="474.5,-305.96 471,-295.96 467.5,-305.96 474.5,-305.96"/>
</g>
<!-- Node17 -->
<g id="node17" class="node">
<title>Node17</title>
<g id="a_node17"><a xlink:title=" ">
<polygon fill="#e0e0e0" stroke="#999999" points="688,-239 594,-239 594,-220 688,-220 688,-239"/>
<text text-anchor="middle" x="641" y="-227" font-family="Helvetica,sans-Serif" font-size="10.00">tabulate/table.hpp</text>
</a>
</g>
</g>
<!-- Node2&#45;&gt;Node17 -->
<g id="edge39" class="edge">
<title>Node2&#45;&gt;Node17</title>
<path fill="none" stroke="#63b8ff" d="M484.91,-329.66C513.93,-311.23 581.18,-268.5 617.21,-245.62"/>
<polygon fill="#63b8ff" stroke="#63b8ff" points="619.05,-248.59 625.62,-240.27 615.3,-242.68 619.05,-248.59"/>
</g>
<!-- Node6&#45;&gt;Node3 -->
<g id="edge7" class="edge">
<title>Node6&#45;&gt;Node3</title>
<path fill="none" stroke="#63b8ff" d="M267.64,-164.66C310.1,-145.55 410.59,-100.33 459.83,-78.18"/>
<polygon fill="#63b8ff" stroke="#63b8ff" points="461.01,-81.48 468.69,-74.19 458.14,-75.1 461.01,-81.48"/>
</g>
<!-- Node6&#45;&gt;Node4 -->
<g id="edge8" class="edge">
<title>Node6&#45;&gt;Node4</title>
<path fill="none" stroke="#63b8ff" d="M213.64,-165.21C181.05,-156.68 135.29,-142.73 123,-129 98.39,-101.52 94.32,-56.44 94.22,-30.52"/>
<polygon fill="#63b8ff" stroke="#63b8ff" points="97.72,-30.78 94.41,-20.72 90.72,-30.65 97.72,-30.78"/>
</g>
<!-- Node7 -->
<g id="node7" class="node">
<title>Node7</title>
<g id="a_node7"><a xlink:title=" ">
<polygon fill="#e0e0e0" stroke="#999999" points="420.5,-19 379.5,-19 379.5,0 420.5,0 420.5,-19"/>
<text text-anchor="middle" x="400" y="-7" font-family="Helvetica,sans-Serif" font-size="10.00">string</text>
</a>
</g>
</g>
<!-- Node6&#45;&gt;Node7 -->
<g id="edge6" class="edge">
<title>Node6&#45;&gt;Node7</title>
<path fill="none" stroke="#63b8ff" d="M266.43,-164.64C295.2,-149.87 350.62,-117.5 381,-74 389.99,-61.13 394.79,-43.95 397.32,-30.7"/>
<polygon fill="#63b8ff" stroke="#63b8ff" points="400.75,-31.4 398.87,-20.97 393.84,-30.3 400.75,-31.4"/>
</g>
<!-- Node8 -->
<g id="node8" class="node">
<title>Node8</title>
<g id="a_node8"><a xlink:title=" ">
<polygon fill="#e0e0e0" stroke="#999999" points="287.5,-74 240.5,-74 240.5,-55 287.5,-55 287.5,-74"/>
<text text-anchor="middle" x="264" y="-62" font-family="Helvetica,sans-Serif" font-size="10.00">iterator</text>
</a>
</g>
</g>
<!-- Node6&#45;&gt;Node8 -->
<g id="edge9" class="edge">
<title>Node6&#45;&gt;Node8</title>
<path fill="none" stroke="#63b8ff" d="M244.33,-164.75C239.67,-152.38 232.81,-129.17 238,-110 240.51,-100.74 245.48,-91.42 250.41,-83.73"/>
<polygon fill="#63b8ff" stroke="#63b8ff" points="253.19,-85.86 256.01,-75.64 247.44,-81.87 253.19,-85.86"/>
</g>
<!-- Node9 -->
<g id="node9" class="node">
<title>Node9</title>
<g id="a_node9"><a xlink:href="utilities_8hpp.html" target="_top" xlink:title="Classe principal com a lógica de utilities.">
<polygon fill="white" stroke="#666666" points="372,-74 306,-74 306,-55 372,-55 372,-74"/>
<text text-anchor="middle" x="339" y="-62" font-family="Helvetica,sans-Serif" font-size="10.00">utilities.hpp</text>
</a>
</g>
</g>
<!-- Node6&#45;&gt;Node9 -->
<g id="edge10" class="edge">
<title>Node6&#45;&gt;Node9</title>
<path fill="none" stroke="#63b8ff" d="M250.19,-164.9C253.82,-151.91 262.12,-126.97 276,-110 285.8,-98.02 299.6,-87.78 311.79,-80.16"/>
<polygon fill="#63b8ff" stroke="#63b8ff" points="313.4,-83.27 320.22,-75.16 309.83,-77.25 313.4,-83.27"/>
</g>
<!-- Node6&#45;&gt;Node10 -->
<g id="edge13" class="edge">
<title>Node6&#45;&gt;Node10</title>
<path fill="none" stroke="#63b8ff" d="M232.9,-164.51C219.4,-156.47 199.35,-144.53 183.54,-135.11"/>
<polygon fill="#63b8ff" stroke="#63b8ff" points="185.56,-132.24 175.18,-130.13 181.98,-138.26 185.56,-132.24"/>
</g>
<!-- Node9&#45;&gt;Node4 -->
<g id="edge12" class="edge">
<title>Node9&#45;&gt;Node4</title>
<path fill="none" stroke="#63b8ff" d="M305.58,-56.24C260.61,-46.47 180.79,-29.13 133.39,-18.84"/>
<polygon fill="#63b8ff" stroke="#63b8ff" points="134.36,-15.47 123.85,-16.77 132.88,-22.31 134.36,-15.47"/>
</g>
<!-- Node9&#45;&gt;Node7 -->
<g id="edge11" class="edge">
<title>Node9&#45;&gt;Node7</title>
<path fill="none" stroke="#63b8ff" d="M349.35,-54.51C358.08,-46.93 370.79,-35.88 381.3,-26.75"/>
<polygon fill="#63b8ff" stroke="#63b8ff" points="383.41,-29.55 388.66,-20.35 378.82,-24.27 383.41,-29.55"/>
</g>
<!-- Node10&#45;&gt;Node3 -->
<g id="edge17" class="edge">
<title>Node10&#45;&gt;Node3</title>
<path fill="none" stroke="#63b8ff" d="M186.48,-114.07C248,-104.16 396.3,-80.27 459.11,-70.15"/>
<polygon fill="#63b8ff" stroke="#63b8ff" points="459.33,-73.66 468.65,-68.62 458.22,-66.75 459.33,-73.66"/>
</g>
<!-- Node10&#45;&gt;Node4 -->
<g id="edge15" class="edge">
<title>Node10&#45;&gt;Node4</title>
<path fill="none" stroke="#63b8ff" d="M153.76,-109.66C143.4,-92.18 120.09,-52.84 106.14,-29.3"/>
<polygon fill="#63b8ff" stroke="#63b8ff" points="109.19,-27.58 101.08,-20.76 103.17,-31.15 109.19,-27.58"/>
</g>
<!-- Node10&#45;&gt;Node7 -->
<g id="edge16" class="edge">
<title>Node10&#45;&gt;Node7</title>
<path fill="none" stroke="#63b8ff" d="M166.46,-109.68C178.59,-95.92 203.94,-69.44 231,-55 275.25,-31.39 332.82,-19.72 368.06,-14.41"/>
<polygon fill="#63b8ff" stroke="#63b8ff" points="368.19,-17.92 377.6,-13.06 367.21,-10.99 368.19,-17.92"/>
</g>
<!-- Node10&#45;&gt;Node8 -->
<g id="edge18" class="edge">
<title>Node10&#45;&gt;Node8</title>
<path fill="none" stroke="#63b8ff" d="M176.81,-109.51C193.13,-101.27 217.53,-88.96 236.37,-79.45"/>
<polygon fill="#63b8ff" stroke="#63b8ff" points="237.75,-82.67 245.1,-75.04 234.6,-76.42 237.75,-82.67"/>
</g>
<!-- Node10&#45;&gt;Node9 -->
<g id="edge19" class="edge">
<title>Node10&#45;&gt;Node9</title>
<path fill="none" stroke="#63b8ff" d="M186.34,-110.45C215.94,-101.73 263.49,-87.73 297.66,-77.67"/>
<polygon fill="#63b8ff" stroke="#63b8ff" points="298.64,-81.03 307.24,-74.85 296.66,-74.32 298.64,-81.03"/>
</g>
<!-- Node11 -->
<g id="node11" class="node">
<title>Node11</title>
<g id="a_node11"><a xlink:title=" ">
<polygon fill="#e0e0e0" stroke="#999999" points="184,-74 142,-74 142,-55 184,-55 184,-74"/>
<text text-anchor="middle" x="163" y="-62" font-family="Helvetica,sans-Serif" font-size="10.00">vector</text>
</a>
</g>
</g>
<!-- Node10&#45;&gt;Node11 -->
<g id="edge14" class="edge">
<title>Node10&#45;&gt;Node11</title>
<path fill="none" stroke="#63b8ff" d="M159.66,-109.75C160.15,-103.27 160.84,-94.16 161.46,-85.9"/>
<polygon fill="#63b8ff" stroke="#63b8ff" points="164.95,-86.19 162.21,-75.95 157.97,-85.66 164.95,-86.19"/>
</g>
<!-- Node12&#45;&gt;Node4 -->
<g id="edge22" class="edge">
<title>Node12&#45;&gt;Node4</title>
<path fill="none" stroke="#63b8ff" d="M277.64,-219.52C226.6,-207.79 150.02,-182.14 108,-129 85.71,-100.81 87.68,-56.33 91.25,-30.64"/>
<polygon fill="#63b8ff" stroke="#63b8ff" points="94.69,-31.32 92.85,-20.89 87.78,-30.19 94.69,-31.32"/>
</g>
<!-- Node12&#45;&gt;Node6 -->
<g id="edge25" class="edge">
<title>Node12&#45;&gt;Node6</title>
<path fill="none" stroke="#63b8ff" d="M315.26,-219.51C303.2,-211.62 285.41,-199.98 271.16,-190.65"/>
<polygon fill="#63b8ff" stroke="#63b8ff" points="273.09,-187.73 262.8,-185.19 269.26,-193.59 273.09,-187.73"/>
</g>
<!-- Node12&#45;&gt;Node7 -->
<g id="edge23" class="edge">
<title>Node12&#45;&gt;Node7</title>
<path fill="none" stroke="#63b8ff" d="M334.65,-219.56C348.85,-196.54 385.79,-132.9 399,-74 402.19,-59.79 402.35,-43.33 401.76,-30.74"/>
<polygon fill="#63b8ff" stroke="#63b8ff" points="405.26,-30.51 401.08,-20.77 398.27,-30.99 405.26,-30.51"/>
</g>
<!-- Node12&#45;&gt;Node9 -->
<g id="edge26" class="edge">
<title>Node12&#45;&gt;Node9</title>
<path fill="none" stroke="#63b8ff" d="M329.54,-219.74C331.08,-194.53 335.57,-121.36 337.77,-85.62"/>
<polygon fill="#63b8ff" stroke="#63b8ff" points="341.25,-86.01 338.37,-75.82 334.26,-85.58 341.25,-86.01"/>
</g>
<!-- Node13 -->
<g id="node13" class="node">
<title>Node13</title>
<g id="a_node13"><a xlink:title=" ">
<polygon fill="#e0e0e0" stroke="#999999" points="423.5,-184 394.5,-184 394.5,-165 423.5,-165 423.5,-184"/>
<text text-anchor="middle" x="409" y="-172" font-family="Helvetica,sans-Serif" font-size="10.00">list</text>
</a>
</g>
</g>
<!-- Node12&#45;&gt;Node13 -->
<g id="edge24" class="edge">
<title>Node12&#45;&gt;Node13</title>
<path fill="none" stroke="#63b8ff" d="M342.57,-219.51C354.48,-211.62 372.05,-199.98 386.13,-190.65"/>
<polygon fill="#63b8ff" stroke="#63b8ff" points="387.96,-193.63 394.37,-185.19 384.1,-187.8 387.96,-193.63"/>
</g>
<!-- Node14&#45;&gt;Node3 -->
<g id="edge34" class="edge">
<title>Node14&#45;&gt;Node3</title>
<path fill="none" stroke="#63b8ff" d="M471.69,-274.68C474.19,-242.57 482.87,-131.33 486.44,-85.49"/>
<polygon fill="#63b8ff" stroke="#63b8ff" points="489.92,-85.94 487.2,-75.7 482.94,-85.39 489.92,-85.94"/>
</g>
<!-- Node14&#45;&gt;Node4 -->
<g id="edge28" class="edge">
<title>Node14&#45;&gt;Node4</title>
<path fill="none" stroke="#63b8ff" d="M477.2,-274.68C499.9,-241.24 574.17,-120.77 515,-55 489.73,-26.91 232.87,-15.21 133.74,-11.71"/>
<polygon fill="#63b8ff" stroke="#63b8ff" points="134.09,-8.22 123.97,-11.38 133.85,-15.22 134.09,-8.22"/>
</g>
<!-- Node14&#45;&gt;Node6 -->
<g id="edge31" class="edge">
<title>Node14&#45;&gt;Node6</title>
<path fill="none" stroke="#63b8ff" d="M433.83,-280.18C380.98,-274.71 287.87,-262.04 264,-239 252.48,-227.88 248.79,-209.77 247.81,-195.73"/>
<polygon fill="#63b8ff" stroke="#63b8ff" points="251.31,-195.72 247.55,-185.81 244.31,-195.89 251.31,-195.72"/>
</g>
<!-- Node14&#45;&gt;Node7 -->
<g id="edge29" class="edge">
<title>Node14&#45;&gt;Node7</title>
<path fill="none" stroke="#63b8ff" d="M494.13,-274.51C509.89,-267.22 530,-255.46 542,-239 590.74,-172.17 620.55,-120.48 570,-55 553.31,-33.38 476.78,-20.23 432.3,-14.28"/>
<polygon fill="#63b8ff" stroke="#63b8ff" points="432.81,-10.82 422.44,-13.02 431.92,-17.76 432.81,-10.82"/>
</g>
<!-- Node14&#45;&gt;Node9 -->
<g id="edge32" class="edge">
<title>Node14&#45;&gt;Node9</title>
<path fill="none" stroke="#63b8ff" d="M469.55,-274.62C465.92,-254.12 455.09,-202.39 433,-165 413.19,-131.47 380.21,-100.09 359.05,-81.85"/>
<polygon fill="#63b8ff" stroke="#63b8ff" points="361.31,-79.17 351.41,-75.41 356.8,-84.53 361.31,-79.17"/>
</g>
<!-- Node14&#45;&gt;Node10 -->
<g id="edge33" class="edge">
<title>Node14&#45;&gt;Node10</title>
<path fill="none" stroke="#63b8ff" d="M433.81,-283.79C387.08,-282.5 305.98,-274.72 248,-239 208.88,-214.9 181.03,-166.76 167.76,-139.85"/>
<polygon fill="#63b8ff" stroke="#63b8ff" points="170.93,-138.35 163.49,-130.81 164.6,-141.35 170.93,-138.35"/>
</g>
<!-- Node14&#45;&gt;Node12 -->
<g id="edge37" class="edge">
<title>Node14&#45;&gt;Node12</title>
<path fill="none" stroke="#63b8ff" d="M446.91,-274.51C423.93,-265.93 389.06,-252.92 363.2,-243.27"/>
<polygon fill="#63b8ff" stroke="#63b8ff" points="364.74,-240.1 354.15,-239.89 362.3,-246.66 364.74,-240.1"/>
</g>
<!-- Node14&#45;&gt;Node13 -->
<g id="edge30" class="edge">
<title>Node14&#45;&gt;Node13</title>
<path fill="none" stroke="#63b8ff" d="M463.59,-274.68C456.48,-265.97 445.72,-252.09 438,-239 429.6,-224.78 421.93,-207.7 416.59,-194.84"/>
<polygon fill="#63b8ff" stroke="#63b8ff" points="419.94,-193.79 412.95,-185.82 413.44,-196.41 419.94,-193.79"/>
</g>
<!-- Node14&#45;&gt;Node15 -->
<g id="edge35" class="edge">
<title>Node14&#45;&gt;Node15</title>
<path fill="none" stroke="#63b8ff" d="M508.31,-277.47C568.18,-267.8 685.66,-248.81 751.46,-238.18"/>
<polygon fill="#63b8ff" stroke="#63b8ff" points="751.92,-241.65 761.24,-236.6 750.81,-234.74 751.92,-241.65"/>
</g>
<!-- Node14&#45;&gt;Node17 -->
<g id="edge38" class="edge">
<title>Node14&#45;&gt;Node17</title>
<path fill="none" stroke="#63b8ff" d="M499.84,-274.51C527.76,-265.8 570.33,-252.53 601.42,-242.84"/>
<polygon fill="#63b8ff" stroke="#63b8ff" points="602.35,-246.21 610.86,-239.9 600.27,-239.53 602.35,-246.21"/>
</g>
<!-- Node16 -->
<g id="node16" class="node">
<title>Node16</title>
<g id="a_node16"><a xlink:title=" ">
<polygon fill="#e0e0e0" stroke="#999999" points="828.5,-184 769.5,-184 769.5,-165 828.5,-165 828.5,-184"/>
<text text-anchor="middle" x="799" y="-172" font-family="Helvetica,sans-Serif" font-size="10.00">exception</text>
</a>
</g>
</g>
<!-- Node15&#45;&gt;Node16 -->
<g id="edge36" class="edge">
<title>Node15&#45;&gt;Node16</title>
<path fill="none" stroke="#63b8ff" d="M799,-219.75C799,-213.27 799,-204.16 799,-195.9"/>
<polygon fill="#63b8ff" stroke="#63b8ff" points="802.5,-195.96 799,-185.96 795.5,-195.96 802.5,-195.96"/>
</g>
</g>
</svg>
