<?xml version="1.0" encoding="UTF-8" standalone="no"?>
<!DOCTYPE svg PUBLIC "-//W3C//DTD SVG 1.1//EN"
 "http://www.w3.org/Graphics/SVG/1.1/DTD/svg11.dtd">
<!-- Generated by graphviz version 7.0.4 (20221203.1631)
 -->
<!-- Title: include/shop.hpp Pages: 1 -->
<svg width="799pt" height="357pt"
 viewBox="0.00 0.00 798.50 357.00" xmlns="http://www.w3.org/2000/svg" xmlns:xlink="http://www.w3.org/1999/xlink">
<g id="graph0" class="graph" transform="scale(1 1) rotate(0) translate(4 353)">
<title>include/shop.hpp</title>
<!-- Node1 -->
<g id="node1" class="node">
<title>Node1</title>
<g id="a_node1"><a xlink:title="Classe principal com a lógica do shop.">
<polygon fill="#999999" stroke="#666666" points="541,-349 451,-349 451,-330 541,-330 541,-349"/>
<text text-anchor="middle" x="496" y="-337" font-family="Helvetica,sans-Serif" font-size="10.00">include/shop.hpp</text>
</a>
</g>
</g>
<!-- Node2 -->
<g id="node2" class="node">
<title>Node2</title>
<g id="a_node2"><a xlink:title=" ">
<polygon fill="#e0e0e0" stroke="#999999" points="545.5,-74 510.5,-74 510.5,-55 545.5,-55 545.5,-74"/>
<text text-anchor="middle" x="528" y="-62" font-family="Helvetica,sans-Serif" font-size="10.00">map</text>
</a>
</g>
</g>
<!-- Node1&#45;&gt;Node2 -->
<g id="edge1" class="edge">
<title>Node1&#45;&gt;Node2</title>
<path fill="none" stroke="#63b8ff" d="M541.26,-336.08C605.91,-329.9 717,-308.01 717,-230.5 717,-230.5 717,-230.5 717,-173.5 717,-100.75 610.13,-76.34 557.11,-68.71"/>
<polygon fill="#63b8ff" stroke="#63b8ff" points="557.65,-65.25 547.28,-67.41 556.74,-72.19 557.65,-65.25"/>
</g>
<!-- Node3 -->
<g id="node3" class="node">
<title>Node3</title>
<g id="a_node3"><a xlink:title=" ">
<polygon fill="#e0e0e0" stroke="#999999" points="153,-19 99,-19 99,0 153,0 153,-19"/>
<text text-anchor="middle" x="126" y="-7" font-family="Helvetica,sans-Serif" font-size="10.00">iostream</text>
</a>
</g>
</g>
<!-- Node1&#45;&gt;Node3 -->
<g id="edge2" class="edge">
<title>Node1&#45;&gt;Node3</title>
<path fill="none" stroke="#63b8ff" d="M450.67,-338.21C328.23,-336.2 0,-322.26 0,-230.5 0,-230.5 0,-230.5 0,-118.5 0,-71.04 52.18,-39.94 89.38,-23.79"/>
<polygon fill="#63b8ff" stroke="#63b8ff" points="90.59,-27.08 98.49,-20.03 87.92,-20.61 90.59,-27.08"/>
</g>
<!-- Node4 -->
<g id="node4" class="node">
<title>Node4</title>
<g id="a_node4"><a xlink:title=" ">
<polygon fill="#e0e0e0" stroke="#999999" points="790.5,-294 745.5,-294 745.5,-275 790.5,-275 790.5,-294"/>
<text text-anchor="middle" x="768" y="-282" font-family="Helvetica,sans-Serif" font-size="10.00">cstdlib</text>
</a>
</g>
</g>
<!-- Node1&#45;&gt;Node4 -->
<g id="edge3" class="edge">
<title>Node1&#45;&gt;Node4</title>
<path fill="none" stroke="#63b8ff" d="M541.15,-330.48C588.54,-321.95 665.16,-307.79 731,-294 732.16,-293.76 733.34,-293.51 734.53,-293.25"/>
<polygon fill="#63b8ff" stroke="#63b8ff" points="734.85,-296.76 743.85,-291.18 733.33,-289.93 734.85,-296.76"/>
</g>
<!-- Node5 -->
<g id="node5" class="node">
<title>Node5</title>
<g id="a_node5"><a xlink:href="weapon_8hpp.html" target="_top" xlink:title="Classe principal responsavel pela lógica de weapon.">
<polygon fill="white" stroke="#666666" points="499,-184 431,-184 431,-165 499,-165 499,-184"/>
<text text-anchor="middle" x="465" y="-172" font-family="Helvetica,sans-Serif" font-size="10.00">weapon.hpp</text>
</a>
</g>
</g>
<!-- Node1&#45;&gt;Node5 -->
<g id="edge4" class="edge">
<title>Node1&#45;&gt;Node5</title>
<path fill="none" stroke="#63b8ff" d="M530.44,-329.61C589.95,-312.6 701.83,-272.45 660,-220 641.63,-196.97 561.96,-184.92 510.31,-179.41"/>
<polygon fill="#63b8ff" stroke="#63b8ff" points="510.92,-175.96 500.61,-178.43 510.21,-182.92 510.92,-175.96"/>
</g>
<!-- Node9 -->
<g id="node9" class="node">
<title>Node9</title>
<g id="a_node9"><a xlink:href="item_8hpp.html" target="_top" xlink:title="Classe principal com a lógica dos itens.">
<polygon fill="white" stroke="#666666" points="361,-129 307,-129 307,-110 361,-110 361,-129"/>
<text text-anchor="middle" x="334" y="-117" font-family="Helvetica,sans-Serif" font-size="10.00">item.hpp</text>
</a>
</g>
</g>
<!-- Node1&#45;&gt;Node9 -->
<g id="edge19" class="edge">
<title>Node1&#45;&gt;Node9</title>
<path fill="none" stroke="#63b8ff" d="M450.83,-334.22C355.77,-324.18 140.3,-295.53 98,-239 43.42,-166.05 215.79,-134.95 295.65,-124.69"/>
<polygon fill="#63b8ff" stroke="#63b8ff" points="295.73,-128.2 305.22,-123.51 294.87,-121.26 295.73,-128.2"/>
</g>
<!-- Node11 -->
<g id="node11" class="node">
<title>Node11</title>
<g id="a_node11"><a xlink:href="playable_character_8hpp.html" target="_top" xlink:title="Classe principal com a lógica de playableCharacter.">
<polygon fill="white" stroke="#666666" points="220.5,-239 107.5,-239 107.5,-220 220.5,-220 220.5,-239"/>
<text text-anchor="middle" x="164" y="-227" font-family="Helvetica,sans-Serif" font-size="10.00">playableCharacter.hpp</text>
</a>
</g>
</g>
<!-- Node1&#45;&gt;Node11 -->
<g id="edge20" class="edge">
<title>Node1&#45;&gt;Node11</title>
<path fill="none" stroke="#63b8ff" d="M463.3,-329.58C432.21,-320.96 384.2,-307.29 343,-294 292.23,-277.63 234.15,-256.59 198.27,-243.32"/>
<polygon fill="#63b8ff" stroke="#63b8ff" points="199.89,-240.19 189.3,-239.99 197.46,-246.75 199.89,-240.19"/>
</g>
<!-- Node13 -->
<g id="node13" class="node">
<title>Node13</title>
<g id="a_node13"><a xlink:href="inventory_8hpp.html" target="_top" xlink:title="Classe principal com a lógica do inventário.">
<polygon fill="white" stroke="#666666" points="426,-294 352,-294 352,-275 426,-275 426,-294"/>
<text text-anchor="middle" x="389" y="-282" font-family="Helvetica,sans-Serif" font-size="10.00">inventory.hpp</text>
</a>
</g>
</g>
<!-- Node1&#45;&gt;Node13 -->
<g id="edge26" class="edge">
<title>Node1&#45;&gt;Node13</title>
<path fill="none" stroke="#63b8ff" d="M477.85,-329.51C461.22,-321.27 436.36,-308.96 417.15,-299.45"/>
<polygon fill="#63b8ff" stroke="#63b8ff" points="418.75,-296.33 408.24,-295.03 415.65,-302.6 418.75,-296.33"/>
</g>
<!-- Node16 -->
<g id="node16" class="node">
<title>Node16</title>
<g id="a_node16"><a xlink:title=" ">
<polygon fill="#e0e0e0" stroke="#999999" points="651,-239 557,-239 557,-220 651,-220 651,-239"/>
<text text-anchor="middle" x="604" y="-227" font-family="Helvetica,sans-Serif" font-size="10.00">tabulate/table.hpp</text>
</a>
</g>
</g>
<!-- Node1&#45;&gt;Node16 -->
<g id="edge38" class="edge">
<title>Node1&#45;&gt;Node16</title>
<path fill="none" stroke="#63b8ff" d="M504.84,-329.66C522.8,-311.7 563.81,-270.69 587.08,-247.42"/>
<polygon fill="#63b8ff" stroke="#63b8ff" points="589.37,-250.08 593.97,-240.53 584.42,-245.13 589.37,-250.08"/>
</g>
<!-- Node5&#45;&gt;Node2 -->
<g id="edge6" class="edge">
<title>Node5&#45;&gt;Node2</title>
<path fill="none" stroke="#63b8ff" d="M470.16,-164.66C480.35,-147.18 503.3,-107.84 517.03,-84.3"/>
<polygon fill="#63b8ff" stroke="#63b8ff" points="520,-86.17 522.01,-75.77 513.95,-82.64 520,-86.17"/>
</g>
<!-- Node5&#45;&gt;Node3 -->
<g id="edge7" class="edge">
<title>Node5&#45;&gt;Node3</title>
<path fill="none" stroke="#63b8ff" d="M464.37,-164.63C462.28,-142.25 453.5,-83.25 418,-55 379.5,-24.36 234.64,-14.65 164.51,-11.71"/>
<polygon fill="#63b8ff" stroke="#63b8ff" points="164.77,-8.22 154.64,-11.32 164.5,-15.21 164.77,-8.22"/>
</g>
<!-- Node6 -->
<g id="node6" class="node">
<title>Node6</title>
<g id="a_node6"><a xlink:title=" ">
<polygon fill="#e0e0e0" stroke="#999999" points="354.5,-19 313.5,-19 313.5,0 354.5,0 354.5,-19"/>
<text text-anchor="middle" x="334" y="-7" font-family="Helvetica,sans-Serif" font-size="10.00">string</text>
</a>
</g>
</g>
<!-- Node5&#45;&gt;Node6 -->
<g id="edge5" class="edge">
<title>Node5&#45;&gt;Node6</title>
<path fill="none" stroke="#63b8ff" d="M466.87,-164.63C470.84,-143.26 477.75,-88.2 452,-55 431.54,-28.63 393.61,-17.88 366.26,-13.51"/>
<polygon fill="#63b8ff" stroke="#63b8ff" points="366.79,-10.05 356.41,-12.16 365.84,-16.98 366.79,-10.05"/>
</g>
<!-- Node7 -->
<g id="node7" class="node">
<title>Node7</title>
<g id="a_node7"><a xlink:title=" ">
<polygon fill="#e0e0e0" stroke="#999999" points="409.5,-74 362.5,-74 362.5,-55 409.5,-55 409.5,-74"/>
<text text-anchor="middle" x="386" y="-62" font-family="Helvetica,sans-Serif" font-size="10.00">iterator</text>
</a>
</g>
</g>
<!-- Node5&#45;&gt;Node7 -->
<g id="edge8" class="edge">
<title>Node5&#45;&gt;Node7</title>
<path fill="none" stroke="#63b8ff" d="M451.51,-164.65C440.01,-156.52 423.68,-143.57 413,-129 403.24,-115.68 396.16,-98.3 391.71,-85.09"/>
<polygon fill="#63b8ff" stroke="#63b8ff" points="395.13,-84.31 388.81,-75.81 388.45,-86.4 395.13,-84.31"/>
</g>
<!-- Node8 -->
<g id="node8" class="node">
<title>Node8</title>
<g id="a_node8"><a xlink:href="utilities_8hpp.html" target="_top" xlink:title="Classe principal com a lógica de utilities.">
<polygon fill="white" stroke="#666666" points="208,-74 142,-74 142,-55 208,-55 208,-74"/>
<text text-anchor="middle" x="175" y="-62" font-family="Helvetica,sans-Serif" font-size="10.00">utilities.hpp</text>
</a>
</g>
</g>
<!-- Node5&#45;&gt;Node8 -->
<g id="edge9" class="edge">
<title>Node5&#45;&gt;Node8</title>
<path fill="none" stroke="#63b8ff" d="M430.73,-166.65C396.49,-159.27 342.64,-146.24 298,-129 262.46,-115.28 223.76,-94.2 199.45,-80.14"/>
<polygon fill="#63b8ff" stroke="#63b8ff" points="201.37,-77.2 190.97,-75.17 197.83,-83.24 201.37,-77.2"/>
</g>
<!-- Node5&#45;&gt;Node9 -->
<g id="edge12" class="edge">
<title>Node5&#45;&gt;Node9</title>
<path fill="none" stroke="#63b8ff" d="M442.78,-164.51C421.86,-156.04 390.27,-143.27 366.52,-133.66"/>
<polygon fill="#63b8ff" stroke="#63b8ff" points="367.88,-130.43 357.3,-129.93 365.25,-136.92 367.88,-130.43"/>
</g>
<!-- Node8&#45;&gt;Node3 -->
<g id="edge11" class="edge">
<title>Node8&#45;&gt;Node3</title>
<path fill="none" stroke="#63b8ff" d="M166.91,-54.75C160.14,-47.43 150.28,-36.76 141.94,-27.74"/>
<polygon fill="#63b8ff" stroke="#63b8ff" points="144.65,-25.52 135.29,-20.55 139.51,-30.27 144.65,-25.52"/>
</g>
<!-- Node8&#45;&gt;Node6 -->
<g id="edge10" class="edge">
<title>Node8&#45;&gt;Node6</title>
<path fill="none" stroke="#63b8ff" d="M201.97,-54.51C229.66,-45.28 272.74,-30.92 302.1,-21.13"/>
<polygon fill="#63b8ff" stroke="#63b8ff" points="303.19,-24.46 311.57,-17.98 300.97,-17.82 303.19,-24.46"/>
</g>
<!-- Node9&#45;&gt;Node2 -->
<g id="edge16" class="edge">
<title>Node9&#45;&gt;Node2</title>
<path fill="none" stroke="#63b8ff" d="M361.38,-111.02C397.76,-101.08 461.75,-83.6 498.95,-73.44"/>
<polygon fill="#63b8ff" stroke="#63b8ff" points="499.84,-76.82 508.56,-70.81 497.99,-70.07 499.84,-76.82"/>
</g>
<!-- Node9&#45;&gt;Node3 -->
<g id="edge14" class="edge">
<title>Node9&#45;&gt;Node3</title>
<path fill="none" stroke="#63b8ff" d="M318.22,-109.66C295.85,-97.19 253.56,-73.85 217,-55 196.55,-44.46 173.23,-33.06 155.32,-24.45"/>
<polygon fill="#63b8ff" stroke="#63b8ff" points="156.83,-21.29 146.3,-20.13 153.81,-27.61 156.83,-21.29"/>
</g>
<!-- Node9&#45;&gt;Node6 -->
<g id="edge15" class="edge">
<title>Node9&#45;&gt;Node6</title>
<path fill="none" stroke="#63b8ff" d="M334,-109.66C334,-92.57 334,-54.61 334,-30.92"/>
<polygon fill="#63b8ff" stroke="#63b8ff" points="337.5,-30.97 334,-20.97 330.5,-30.97 337.5,-30.97"/>
</g>
<!-- Node9&#45;&gt;Node7 -->
<g id="edge17" class="edge">
<title>Node9&#45;&gt;Node7</title>
<path fill="none" stroke="#63b8ff" d="M342.59,-109.75C349.84,-102.35 360.45,-91.54 369.37,-82.45"/>
<polygon fill="#63b8ff" stroke="#63b8ff" points="371.66,-85.11 376.17,-75.52 366.66,-80.21 371.66,-85.11"/>
</g>
<!-- Node9&#45;&gt;Node8 -->
<g id="edge18" class="edge">
<title>Node9&#45;&gt;Node8</title>
<path fill="none" stroke="#63b8ff" d="M307.03,-109.51C281.02,-100.84 241.45,-87.65 212.4,-77.97"/>
<polygon fill="#63b8ff" stroke="#63b8ff" points="213.87,-74.77 203.27,-74.92 211.65,-81.41 213.87,-74.77"/>
</g>
<!-- Node10 -->
<g id="node10" class="node">
<title>Node10</title>
<g id="a_node10"><a xlink:title=" ">
<polygon fill="#e0e0e0" stroke="#999999" points="306,-74 264,-74 264,-55 306,-55 306,-74"/>
<text text-anchor="middle" x="285" y="-62" font-family="Helvetica,sans-Serif" font-size="10.00">vector</text>
</a>
</g>
</g>
<!-- Node9&#45;&gt;Node10 -->
<g id="edge13" class="edge">
<title>Node9&#45;&gt;Node10</title>
<path fill="none" stroke="#63b8ff" d="M325.91,-109.75C319.14,-102.43 309.28,-91.76 300.94,-82.74"/>
<polygon fill="#63b8ff" stroke="#63b8ff" points="303.65,-80.52 294.29,-75.55 298.51,-85.27 303.65,-80.52"/>
</g>
<!-- Node11&#45;&gt;Node3 -->
<g id="edge21" class="edge">
<title>Node11&#45;&gt;Node3</title>
<path fill="none" stroke="#63b8ff" d="M141.57,-219.56C126.83,-212.36 108.71,-200.67 100,-184 73.44,-133.19 85.02,-110.34 100,-55 102.51,-45.74 107.48,-36.42 112.41,-28.73"/>
<polygon fill="#63b8ff" stroke="#63b8ff" points="115.19,-30.86 118.01,-20.64 109.44,-26.87 115.19,-30.86"/>
</g>
<!-- Node11&#45;&gt;Node5 -->
<g id="edge24" class="edge">
<title>Node11&#45;&gt;Node5</title>
<path fill="none" stroke="#63b8ff" d="M217.71,-219.51C267.3,-211.14 343.31,-198.14 419.64,-184.22"/>
<polygon fill="#63b8ff" stroke="#63b8ff" points="420.21,-187.67 429.41,-182.43 418.95,-180.78 420.21,-187.67"/>
</g>
<!-- Node11&#45;&gt;Node6 -->
<g id="edge22" class="edge">
<title>Node11&#45;&gt;Node6</title>
<path fill="none" stroke="#63b8ff" d="M158.22,-219.76C140.75,-192.18 92.2,-105.82 133,-55 153.82,-29.07 250.57,-17.32 301.87,-12.84"/>
<polygon fill="#63b8ff" stroke="#63b8ff" points="302.08,-16.34 311.76,-12.03 301.5,-9.36 302.08,-16.34"/>
</g>
<!-- Node11&#45;&gt;Node8 -->
<g id="edge25" class="edge">
<title>Node11&#45;&gt;Node8</title>
<path fill="none" stroke="#63b8ff" d="M164.59,-219.74C166.29,-194.53 171.23,-121.36 173.64,-85.62"/>
<polygon fill="#63b8ff" stroke="#63b8ff" points="177.12,-86.03 174.3,-75.82 170.14,-85.56 177.12,-86.03"/>
</g>
<!-- Node12 -->
<g id="node12" class="node">
<title>Node12</title>
<g id="a_node12"><a xlink:title=" ">
<polygon fill="#e0e0e0" stroke="#999999" points="250.5,-184 221.5,-184 221.5,-165 250.5,-165 250.5,-184"/>
<text text-anchor="middle" x="236" y="-172" font-family="Helvetica,sans-Serif" font-size="10.00">list</text>
</a>
</g>
</g>
<!-- Node11&#45;&gt;Node12 -->
<g id="edge23" class="edge">
<title>Node11&#45;&gt;Node12</title>
<path fill="none" stroke="#63b8ff" d="M176.21,-219.51C186.83,-211.7 202.44,-200.21 215.04,-190.93"/>
<polygon fill="#63b8ff" stroke="#63b8ff" points="216.77,-194 222.75,-185.26 212.62,-188.36 216.77,-194"/>
</g>
<!-- Node13&#45;&gt;Node2 -->
<g id="edge33" class="edge">
<title>Node13&#45;&gt;Node2</title>
<path fill="none" stroke="#63b8ff" d="M407.05,-274.55C434.42,-259.88 485.61,-227.9 508,-184 524.15,-152.33 527.66,-110.33 528.21,-85.77"/>
<polygon fill="#63b8ff" stroke="#63b8ff" points="531.7,-85.92 528.26,-75.9 524.7,-85.88 531.7,-85.92"/>
</g>
<!-- Node13&#45;&gt;Node3 -->
<g id="edge27" class="edge">
<title>Node13&#45;&gt;Node3</title>
<path fill="none" stroke="#63b8ff" d="M351.68,-280.82C283.42,-275.42 141.46,-261.78 98,-239 63.61,-220.98 38,-214.33 38,-175.5 38,-175.5 38,-175.5 38,-118.5 38,-77.97 75.71,-44.22 101.76,-25.74"/>
<polygon fill="#63b8ff" stroke="#63b8ff" points="103.51,-28.79 109.82,-20.28 99.58,-22.99 103.51,-28.79"/>
</g>
<!-- Node13&#45;&gt;Node5 -->
<g id="edge30" class="edge">
<title>Node13&#45;&gt;Node5</title>
<path fill="none" stroke="#63b8ff" d="M399.66,-274.81C409.48,-266.4 424.01,-252.92 434,-239 443.86,-225.27 452.09,-207.92 457.58,-194.82"/>
<polygon fill="#63b8ff" stroke="#63b8ff" points="460.8,-196.21 461.27,-185.63 454.3,-193.61 460.8,-196.21"/>
</g>
<!-- Node13&#45;&gt;Node6 -->
<g id="edge28" class="edge">
<title>Node13&#45;&gt;Node6</title>
<path fill="none" stroke="#63b8ff" d="M417.54,-274.51C437.81,-267.17 464.89,-255.33 485,-239 552.79,-183.94 609.3,-122.6 554,-55 530.61,-26.41 421.2,-15.76 366.01,-12.16"/>
<polygon fill="#63b8ff" stroke="#63b8ff" points="366.5,-8.68 356.31,-11.57 366.07,-15.67 366.5,-8.68"/>
</g>
<!-- Node13&#45;&gt;Node8 -->
<g id="edge31" class="edge">
<title>Node13&#45;&gt;Node8</title>
<path fill="none" stroke="#63b8ff" d="M377.21,-274.77C365.78,-266.13 348.14,-252.29 334,-239 277.08,-185.48 216.48,-115.11 189.46,-82.93"/>
<polygon fill="#63b8ff" stroke="#63b8ff" points="192.26,-80.82 183.16,-75.39 186.88,-85.3 192.26,-80.82"/>
</g>
<!-- Node13&#45;&gt;Node9 -->
<g id="edge32" class="edge">
<title>Node13&#45;&gt;Node9</title>
<path fill="none" stroke="#63b8ff" d="M375.84,-274.61C365.23,-266.64 350.98,-253.93 344,-239 329.09,-207.14 329.6,-165.2 331.61,-140.71"/>
<polygon fill="#63b8ff" stroke="#63b8ff" points="335.08,-141.16 332.6,-130.86 328.11,-140.46 335.08,-141.16"/>
</g>
<!-- Node13&#45;&gt;Node11 -->
<g id="edge36" class="edge">
<title>Node13&#45;&gt;Node11</title>
<path fill="none" stroke="#63b8ff" d="M351.59,-274.69C313.59,-265.74 254.55,-251.83 212.87,-242.01"/>
<polygon fill="#63b8ff" stroke="#63b8ff" points="213.88,-238.65 203.35,-239.77 212.28,-245.47 213.88,-238.65"/>
</g>
<!-- Node13&#45;&gt;Node12 -->
<g id="edge29" class="edge">
<title>Node13&#45;&gt;Node12</title>
<path fill="none" stroke="#63b8ff" d="M351.7,-276C327.15,-269.54 295.51,-258.14 273,-239 259.03,-227.12 249.08,-208.56 243.04,-194.57"/>
<polygon fill="#63b8ff" stroke="#63b8ff" points="246.4,-193.54 239.45,-185.54 239.9,-196.13 246.4,-193.54"/>
</g>
<!-- Node14 -->
<g id="node14" class="node">
<title>Node14</title>
<g id="a_node14"><a xlink:href="excecao_8hpp.html" target="_top" xlink:title=" ">
<polygon fill="white" stroke="#666666" points="425,-239 353,-239 353,-220 425,-220 425,-239"/>
<text text-anchor="middle" x="389" y="-227" font-family="Helvetica,sans-Serif" font-size="10.00">excecao.hpp</text>
</a>
</g>
</g>
<!-- Node13&#45;&gt;Node14 -->
<g id="edge34" class="edge">
<title>Node13&#45;&gt;Node14</title>
<path fill="none" stroke="#63b8ff" d="M389,-274.75C389,-268.27 389,-259.16 389,-250.9"/>
<polygon fill="#63b8ff" stroke="#63b8ff" points="392.5,-250.96 389,-240.96 385.5,-250.96 392.5,-250.96"/>
</g>
<!-- Node13&#45;&gt;Node16 -->
<g id="edge37" class="edge">
<title>Node13&#45;&gt;Node16</title>
<path fill="none" stroke="#63b8ff" d="M425.47,-274.51C461.64,-265.59 517.23,-251.89 556.76,-242.15"/>
<polygon fill="#63b8ff" stroke="#63b8ff" points="557.37,-245.6 566.24,-239.81 555.69,-238.8 557.37,-245.6"/>
</g>
<!-- Node15 -->
<g id="node15" class="node">
<title>Node15</title>
<g id="a_node15"><a xlink:title=" ">
<polygon fill="#e0e0e0" stroke="#999999" points="412.5,-184 353.5,-184 353.5,-165 412.5,-165 412.5,-184"/>
<text text-anchor="middle" x="383" y="-172" font-family="Helvetica,sans-Serif" font-size="10.00">exception</text>
</a>
</g>
</g>
<!-- Node14&#45;&gt;Node15 -->
<g id="edge35" class="edge">
<title>Node14&#45;&gt;Node15</title>
<path fill="none" stroke="#63b8ff" d="M388.01,-219.75C387.27,-213.19 386.22,-203.95 385.28,-195.6"/>
<polygon fill="#63b8ff" stroke="#63b8ff" points="388.79,-195.49 384.18,-185.95 381.83,-196.28 388.79,-195.49"/>
</g>
</g>
</svg>
