<?xml version="1.0" encoding="UTF-8" standalone="no"?>
<!DOCTYPE svg PUBLIC "-//W3C//DTD SVG 1.1//EN"
 "http://www.w3.org/Graphics/SVG/1.1/DTD/svg11.dtd">
<!-- Generated by graphviz version 7.0.4 (20221203.1631)
 -->
<!-- Title: src/vampire.cpp Pages: 1 -->
<svg width="172pt" height="247pt"
 viewBox="0.00 0.00 172.00 247.00" xmlns="http://www.w3.org/2000/svg" xmlns:xlink="http://www.w3.org/1999/xlink">
<g id="graph0" class="graph" transform="scale(1 1) rotate(0) translate(4 243)">
<title>src/vampire.cpp</title>
<!-- Node1 -->
<g id="node1" class="node">
<title>Node1</title>
<g id="a_node1"><a xlink:title=" ">
<polygon fill="#999999" stroke="#666666" points="143.5,-239 58.5,-239 58.5,-220 143.5,-220 143.5,-239"/>
<text text-anchor="middle" x="101" y="-227" font-family="Helvetica,sans-Serif" font-size="10.00">src/vampire.cpp</text>
</a>
</g>
</g>
<!-- Node2 -->
<g id="node2" class="node">
<title>Node2</title>
<g id="a_node2"><a xlink:href="vampire_8hpp.html" target="_top" xlink:title=" ">
<polygon fill="white" stroke="#666666" points="135,-184 67,-184 67,-165 135,-165 135,-184"/>
<text text-anchor="middle" x="101" y="-172" font-family="Helvetica,sans-Serif" font-size="10.00">vampire.hpp</text>
</a>
</g>
</g>
<!-- Node1&#45;&gt;Node2 -->
<g id="edge1" class="edge">
<title>Node1&#45;&gt;Node2</title>
<path fill="none" stroke="#63b8ff" d="M101,-219.75C101,-213.27 101,-204.16 101,-195.9"/>
<polygon fill="#63b8ff" stroke="#63b8ff" points="104.5,-195.96 101,-185.96 97.5,-195.96 104.5,-195.96"/>
</g>
<!-- Node3 -->
<g id="node3" class="node">
<title>Node3</title>
<g id="a_node3"><a xlink:href="monster_8hpp.html" target="_top" xlink:title="Classe principal com a lógica de monster.">
<polygon fill="white" stroke="#666666" points="104.5,-129 33.5,-129 33.5,-110 104.5,-110 104.5,-129"/>
<text text-anchor="middle" x="69" y="-117" font-family="Helvetica,sans-Serif" font-size="10.00">monster.hpp</text>
</a>
</g>
</g>
<!-- Node2&#45;&gt;Node3 -->
<g id="edge2" class="edge">
<title>Node2&#45;&gt;Node3</title>
<path fill="none" stroke="#63b8ff" d="M95.71,-164.75C91.52,-157.81 85.52,-147.86 80.26,-139.16"/>
<polygon fill="#63b8ff" stroke="#63b8ff" points="83.34,-137.49 75.18,-130.74 77.35,-141.11 83.34,-137.49"/>
</g>
<!-- Node7 -->
<g id="node7" class="node">
<title>Node7</title>
<g id="a_node7"><a xlink:title=" ">
<polygon fill="#e0e0e0" stroke="#999999" points="164,-19 110,-19 110,0 164,0 164,-19"/>
<text text-anchor="middle" x="137" y="-7" font-family="Helvetica,sans-Serif" font-size="10.00">iostream</text>
</a>
</g>
</g>
<!-- Node2&#45;&gt;Node7 -->
<g id="edge8" class="edge">
<title>Node2&#45;&gt;Node7</title>
<path fill="none" stroke="#63b8ff" d="M106.96,-164.68C117.9,-147.92 140.79,-109.9 149,-74 152.37,-59.25 148.86,-42.41 144.78,-29.78"/>
<polygon fill="#63b8ff" stroke="#63b8ff" points="148.14,-28.78 141.42,-20.59 141.57,-31.19 148.14,-28.78"/>
</g>
<!-- Node4 -->
<g id="node4" class="node">
<title>Node4</title>
<g id="a_node4"><a xlink:title=" ">
<polygon fill="#e0e0e0" stroke="#999999" points="63.5,-19 22.5,-19 22.5,0 63.5,0 63.5,-19"/>
<text text-anchor="middle" x="43" y="-7" font-family="Helvetica,sans-Serif" font-size="10.00">string</text>
</a>
</g>
</g>
<!-- Node3&#45;&gt;Node4 -->
<g id="edge3" class="edge">
<title>Node3&#45;&gt;Node4</title>
<path fill="none" stroke="#63b8ff" d="M45.57,-109.58C30.43,-102.45 11.95,-90.84 3,-74 -5.83,-57.39 8.02,-39.32 21.78,-26.72"/>
<polygon fill="#63b8ff" stroke="#63b8ff" points="24.03,-29.4 29.41,-20.27 19.51,-24.05 24.03,-29.4"/>
</g>
<!-- Node5 -->
<g id="node5" class="node">
<title>Node5</title>
<g id="a_node5"><a xlink:title=" ">
<polygon fill="#e0e0e0" stroke="#999999" points="56,-74 12,-74 12,-55 56,-55 56,-74"/>
<text text-anchor="middle" x="34" y="-62" font-family="Helvetica,sans-Serif" font-size="10.00">cmath</text>
</a>
</g>
</g>
<!-- Node3&#45;&gt;Node5 -->
<g id="edge4" class="edge">
<title>Node3&#45;&gt;Node5</title>
<path fill="none" stroke="#63b8ff" d="M63.22,-109.75C58.59,-102.73 51.92,-92.64 46.13,-83.87"/>
<polygon fill="#63b8ff" stroke="#63b8ff" points="49.17,-82.12 40.74,-75.71 43.33,-85.98 49.17,-82.12"/>
</g>
<!-- Node6 -->
<g id="node6" class="node">
<title>Node6</title>
<g id="a_node6"><a xlink:href="utilities_8hpp.html" target="_top" xlink:title="Classe principal com a lógica de utilities.">
<polygon fill="white" stroke="#666666" points="140,-74 74,-74 74,-55 140,-55 140,-74"/>
<text text-anchor="middle" x="107" y="-62" font-family="Helvetica,sans-Serif" font-size="10.00">utilities.hpp</text>
</a>
</g>
</g>
<!-- Node3&#45;&gt;Node6 -->
<g id="edge5" class="edge">
<title>Node3&#45;&gt;Node6</title>
<path fill="none" stroke="#63b8ff" d="M75.27,-109.75C80.36,-102.66 87.69,-92.42 94.03,-83.59"/>
<polygon fill="#63b8ff" stroke="#63b8ff" points="96.72,-85.84 99.71,-75.67 91.03,-81.76 96.72,-85.84"/>
</g>
<!-- Node6&#45;&gt;Node4 -->
<g id="edge6" class="edge">
<title>Node6&#45;&gt;Node4</title>
<path fill="none" stroke="#63b8ff" d="M96.14,-54.51C86.89,-46.85 73.38,-35.66 62.29,-26.47"/>
<polygon fill="#63b8ff" stroke="#63b8ff" points="64.79,-24.01 54.86,-20.32 60.33,-29.4 64.79,-24.01"/>
</g>
<!-- Node6&#45;&gt;Node7 -->
<g id="edge7" class="edge">
<title>Node6&#45;&gt;Node7</title>
<path fill="none" stroke="#63b8ff" d="M111.95,-54.75C115.84,-47.88 121.39,-38.08 126.27,-29.45"/>
<polygon fill="#63b8ff" stroke="#63b8ff" points="129.31,-31.19 131.19,-20.76 123.22,-27.74 129.31,-31.19"/>
</g>
</g>
</svg>
