<?xml version="1.0" encoding="UTF-8" standalone="no"?>
<!DOCTYPE svg PUBLIC "-//W3C//DTD SVG 1.1//EN"
 "http://www.w3.org/Graphics/SVG/1.1/DTD/svg11.dtd">
<!-- Generated by graphviz version 7.0.4 (20221203.1631)
 -->
<!-- Title: include/weapon.hpp Pages: 1 -->
<svg width="359pt" height="192pt"
 viewBox="0.00 0.00 358.55 192.00" xmlns="http://www.w3.org/2000/svg" xmlns:xlink="http://www.w3.org/1999/xlink">
<g id="graph0" class="graph" transform="scale(1 1) rotate(0) translate(4 188)">
<title>include/weapon.hpp</title>
<!-- Node1 -->
<g id="node1" class="node">
<title>Node1</title>
<g id="a_node1"><a xlink:title="Classe principal responsavel pela lógica de weapon.">
<polygon fill="#999999" stroke="#666666" points="171.92,-184 69.92,-184 69.92,-165 171.92,-165 171.92,-184"/>
<text text-anchor="middle" x="120.92" y="-172" font-family="Helvetica,sans-Serif" font-size="10.00">include/weapon.hpp</text>
</a>
</g>
</g>
<!-- Node2 -->
<g id="node2" class="node">
<title>Node2</title>
<g id="a_node2"><a xlink:title=" ">
<polygon fill="#e0e0e0" stroke="#999999" points="166.42,-19 125.42,-19 125.42,0 166.42,0 166.42,-19"/>
<text text-anchor="middle" x="145.92" y="-7" font-family="Helvetica,sans-Serif" font-size="10.00">string</text>
</a>
</g>
</g>
<!-- Node1&#45;&gt;Node2 -->
<g id="edge1" class="edge">
<title>Node1&#45;&gt;Node2</title>
<path fill="none" stroke="#63b8ff" d="M100.12,-164.59C59.21,-145.81 -24.96,-100.15 7.92,-55 32.01,-21.92 81.14,-12.91 113.8,-10.74"/>
<polygon fill="#63b8ff" stroke="#63b8ff" points="113.68,-14.25 123.5,-10.29 113.35,-7.25 113.68,-14.25"/>
</g>
<!-- Node3 -->
<g id="node3" class="node">
<title>Node3</title>
<g id="a_node3"><a xlink:title=" ">
<polygon fill="#e0e0e0" stroke="#999999" points="52.42,-74 17.42,-74 17.42,-55 52.42,-55 52.42,-74"/>
<text text-anchor="middle" x="34.92" y="-62" font-family="Helvetica,sans-Serif" font-size="10.00">map</text>
</a>
</g>
</g>
<!-- Node1&#45;&gt;Node3 -->
<g id="edge2" class="edge">
<title>Node1&#45;&gt;Node3</title>
<path fill="none" stroke="#63b8ff" d="M113.89,-164.66C99.77,-146.94 67.78,-106.77 49.14,-83.35"/>
<polygon fill="#63b8ff" stroke="#63b8ff" points="51.97,-81.29 43,-75.64 46.49,-85.65 51.97,-81.29"/>
</g>
<!-- Node4 -->
<g id="node4" class="node">
<title>Node4</title>
<g id="a_node4"><a xlink:title=" ">
<polygon fill="#e0e0e0" stroke="#999999" points="331.92,-19 277.92,-19 277.92,0 331.92,0 331.92,-19"/>
<text text-anchor="middle" x="304.92" y="-7" font-family="Helvetica,sans-Serif" font-size="10.00">iostream</text>
</a>
</g>
</g>
<!-- Node1&#45;&gt;Node4 -->
<g id="edge3" class="edge">
<title>Node1&#45;&gt;Node4</title>
<path fill="none" stroke="#63b8ff" d="M172.3,-167.2C226.38,-157.51 308.84,-133.35 346.92,-74 357.43,-57.63 341.98,-39.11 326.95,-26.31"/>
<polygon fill="#63b8ff" stroke="#63b8ff" points="329.54,-23.9 319.53,-20.43 325.2,-29.38 329.54,-23.9"/>
</g>
<!-- Node5 -->
<g id="node5" class="node">
<title>Node5</title>
<g id="a_node5"><a xlink:title=" ">
<polygon fill="#e0e0e0" stroke="#999999" points="117.42,-74 70.42,-74 70.42,-55 117.42,-55 117.42,-74"/>
<text text-anchor="middle" x="93.92" y="-62" font-family="Helvetica,sans-Serif" font-size="10.00">iterator</text>
</a>
</g>
</g>
<!-- Node1&#45;&gt;Node5 -->
<g id="edge4" class="edge">
<title>Node1&#45;&gt;Node5</title>
<path fill="none" stroke="#63b8ff" d="M118.71,-164.66C114.42,-147.5 104.86,-109.26 98.95,-85.6"/>
<polygon fill="#63b8ff" stroke="#63b8ff" points="102.35,-84.78 96.53,-75.93 95.56,-86.48 102.35,-84.78"/>
</g>
<!-- Node6 -->
<g id="node6" class="node">
<title>Node6</title>
<g id="a_node6"><a xlink:href="utilities_8hpp.html" target="_top" xlink:title="Classe principal com a lógica de utilities.">
<polygon fill="white" stroke="#666666" points="337.92,-74 271.92,-74 271.92,-55 337.92,-55 337.92,-74"/>
<text text-anchor="middle" x="304.92" y="-62" font-family="Helvetica,sans-Serif" font-size="10.00">utilities.hpp</text>
</a>
</g>
</g>
<!-- Node1&#45;&gt;Node6 -->
<g id="edge5" class="edge">
<title>Node1&#45;&gt;Node6</title>
<path fill="none" stroke="#63b8ff" d="M135.98,-164.66C167.65,-146.07 241.43,-102.77 280.17,-80.03"/>
<polygon fill="#63b8ff" stroke="#63b8ff" points="281.5,-83.31 288.35,-75.23 277.96,-77.27 281.5,-83.31"/>
</g>
<!-- Node7 -->
<g id="node7" class="node">
<title>Node7</title>
<g id="a_node7"><a xlink:href="item_8hpp.html" target="_top" xlink:title="Classe principal com a lógica dos itens.">
<polygon fill="white" stroke="#666666" points="175.92,-129 121.92,-129 121.92,-110 175.92,-110 175.92,-129"/>
<text text-anchor="middle" x="148.92" y="-117" font-family="Helvetica,sans-Serif" font-size="10.00">item.hpp</text>
</a>
</g>
</g>
<!-- Node1&#45;&gt;Node7 -->
<g id="edge8" class="edge">
<title>Node1&#45;&gt;Node7</title>
<path fill="none" stroke="#63b8ff" d="M125.55,-164.75C129.17,-157.88 134.35,-148.08 138.91,-139.45"/>
<polygon fill="#63b8ff" stroke="#63b8ff" points="141.92,-141.26 143.49,-130.78 135.73,-137.99 141.92,-141.26"/>
</g>
<!-- Node6&#45;&gt;Node2 -->
<g id="edge6" class="edge">
<title>Node6&#45;&gt;Node2</title>
<path fill="none" stroke="#63b8ff" d="M277.95,-54.51C250.26,-45.28 207.19,-30.92 177.82,-21.13"/>
<polygon fill="#63b8ff" stroke="#63b8ff" points="178.95,-17.82 168.36,-17.98 176.74,-24.46 178.95,-17.82"/>
</g>
<!-- Node6&#45;&gt;Node4 -->
<g id="edge7" class="edge">
<title>Node6&#45;&gt;Node4</title>
<path fill="none" stroke="#63b8ff" d="M304.92,-54.75C304.92,-48.27 304.92,-39.16 304.92,-30.9"/>
<polygon fill="#63b8ff" stroke="#63b8ff" points="308.42,-30.96 304.92,-20.96 301.42,-30.96 308.42,-30.96"/>
</g>
<!-- Node7&#45;&gt;Node2 -->
<g id="edge11" class="edge">
<title>Node7&#45;&gt;Node2</title>
<path fill="none" stroke="#63b8ff" d="M148.68,-109.66C148.2,-92.57 147.15,-54.61 146.49,-30.92"/>
<polygon fill="#63b8ff" stroke="#63b8ff" points="149.99,-30.87 146.21,-20.97 142.99,-31.07 149.99,-30.87"/>
</g>
<!-- Node7&#45;&gt;Node3 -->
<g id="edge12" class="edge">
<title>Node7&#45;&gt;Node3</title>
<path fill="none" stroke="#63b8ff" d="M129.58,-109.51C111.38,-101.05 83.91,-88.28 63.24,-78.67"/>
<polygon fill="#63b8ff" stroke="#63b8ff" points="64.77,-75.52 54.22,-74.47 61.82,-81.86 64.77,-75.52"/>
</g>
<!-- Node7&#45;&gt;Node4 -->
<g id="edge10" class="edge">
<title>Node7&#45;&gt;Node4</title>
<path fill="none" stroke="#63b8ff" d="M165.64,-109.6C181.32,-101.05 205.24,-87.47 224.92,-74 246.94,-58.93 270.71,-39.64 286.57,-26.29"/>
<polygon fill="#63b8ff" stroke="#63b8ff" points="288.41,-29.32 293.77,-20.18 283.88,-23.99 288.41,-29.32"/>
</g>
<!-- Node7&#45;&gt;Node5 -->
<g id="edge13" class="edge">
<title>Node7&#45;&gt;Node5</title>
<path fill="none" stroke="#63b8ff" d="M139.84,-109.75C132.09,-102.27 120.71,-91.32 111.23,-82.17"/>
<polygon fill="#63b8ff" stroke="#63b8ff" points="113.92,-79.91 104.29,-75.49 109.06,-84.95 113.92,-79.91"/>
</g>
<!-- Node7&#45;&gt;Node6 -->
<g id="edge14" class="edge">
<title>Node7&#45;&gt;Node6</title>
<path fill="none" stroke="#63b8ff" d="M175.39,-109.51C200.79,-100.88 239.39,-87.76 267.85,-78.1"/>
<polygon fill="#63b8ff" stroke="#63b8ff" points="268.81,-81.46 277.16,-74.93 266.56,-74.84 268.81,-81.46"/>
</g>
<!-- Node8 -->
<g id="node8" class="node">
<title>Node8</title>
<g id="a_node8"><a xlink:title=" ">
<polygon fill="#e0e0e0" stroke="#999999" points="215.92,-74 173.92,-74 173.92,-55 215.92,-55 215.92,-74"/>
<text text-anchor="middle" x="194.92" y="-62" font-family="Helvetica,sans-Serif" font-size="10.00">vector</text>
</a>
</g>
</g>
<!-- Node7&#45;&gt;Node8 -->
<g id="edge9" class="edge">
<title>Node7&#45;&gt;Node8</title>
<path fill="none" stroke="#63b8ff" d="M156.52,-109.75C162.81,-102.5 171.94,-91.98 179.72,-83.02"/>
<polygon fill="#63b8ff" stroke="#63b8ff" points="182.26,-85.43 186.17,-75.59 176.97,-80.84 182.26,-85.43"/>
</g>
</g>
</svg>
